<?xml version="1.0" encoding="UTF-8" standalone="no"?>
<!-- Created with Inkscape (http://www.inkscape.org/) -->

<svg
   width="192.05049mm"
   height="189.17374mm"
   version="1.1"
   viewBox="0 0 192.05048 189.17374"
   xml:space="preserve"
   id="svg752"
   sodipodi:docname="bbs.svg"
   inkscape:version="1.2.2 (b0a8486, 2022-12-01)"
   xmlns:inkscape="http://www.inkscape.org/namespaces/inkscape"
   xmlns:sodipodi="http://sodipodi.sourceforge.net/DTD/sodipodi-0.dtd"
   xmlns="http://www.w3.org/2000/svg"
   xmlns:svg="http://www.w3.org/2000/svg"
   xmlns:ns1="http://www.iki.fi/pav/software/textext/"><sodipodi:namedview
     id="namedview754"
     pagecolor="#ffffff"
     bordercolor="#000000"
     borderopacity="0.25"
     inkscape:showpageshadow="2"
     inkscape:pageopacity="0.0"
     inkscape:pagecheckerboard="0"
     inkscape:deskcolor="#d1d1d1"
     inkscape:document-units="mm"
     showgrid="false"
     inkscape:zoom="0.27581135"
     inkscape:cx="-5.4384999"
     inkscape:cy="337.187"
     inkscape:window-width="1427"
     inkscape:window-height="456"
     inkscape:window-x="0"
     inkscape:window-y="25"
     inkscape:window-maximized="0"
     inkscape:current-layer="svg752" /><defs
     id="defs276"><clipPath
   id="clipPath184"><path
     d="M 0,0 H 389.65 V 329.07 H 0 Z"
     id="path182" /></clipPath><radialGradient
   id="radialGradient16435"
   cx="-50.995998"
   cy="52.060001"
   r="5.9875998"
   gradientTransform="matrix(1.1324,0,0,1.1324,35.065,243.77)"
   gradientUnits="userSpaceOnUse"><stop
     stop-color="#f3efe7"
     offset="0"
     id="stop186" /><stop
     stop-color="#feb87e"
     offset=".27324"
     id="stop188" /><stop
     stop-color="#ec595f"
     offset="1"
     id="stop190" /></radialGradient><radialGradient
   id="radialGradient6297"
   cx="361.31"
   cy="57.609001"
   r="4.9765"
   gradientTransform="matrix(1.958,0.98282,-0.76524,1.5245,-746.86,-118.31)"
   gradientUnits="userSpaceOnUse"><stop
     stop-color="#f3efe7"
     offset="0"
     id="stop193" /><stop
     stop-color="#ca3e72"
     stop-opacity=".792"
     offset=".27324"
     id="stop195" /><stop
     stop-color="#8c2981"
     offset="1"
     id="stop197" /></radialGradient><linearGradient
   id="linearGradient10102"
   x1="-16.632999"
   x2="-16.249001"
   y1="95.221001"
   y2="101.52"
   gradientTransform="matrix(1.2448,0,0,1.2448,-0.7953,204.46)"
   gradientUnits="userSpaceOnUse"><stop
     stop-color="#f3efe7"
     offset="0"
     id="stop200" /><stop
     stop-color="#fdb37c"
     offset=".27324"
     id="stop202" /><stop
     stop-color="#ec595f"
     offset="1"
     id="stop204" /></linearGradient><linearGradient
   id="linearGradient5375"
   x1="-27.617001"
   x2="-22.688"
   y1="77.266998"
   y2="82.938004"
   gradientUnits="userSpaceOnUse"><stop
     stop-color="#f3efe7"
     offset="0"
     id="stop207" /><stop
     stop-color="#e4839b"
     offset=".45731"
     id="stop209" /><stop
     stop-color="#c52c7a"
     offset="1"
     id="stop211" /></linearGradient><linearGradient
   id="linearGradient3061"
   x1="-22.148001"
   x2="-11.008"
   y1="75.917"
   y2="77.875"
   gradientUnits="userSpaceOnUse"><stop
     stop-color="#f3efe7"
     offset="0"
     id="stop214" /><stop
     stop-color="#e78da0"
     offset=".41176"
     id="stop216" /><stop
     stop-color="#c52c7a"
     offset="1"
     id="stop218" /></linearGradient><radialGradient
   id="radialGradient9683"
   cx="-50.995998"
   cy="52.060001"
   r="5.9875998"
   gradientTransform="matrix(0.73683,0,0,0.73683,438.95,4.6932)"
   gradientUnits="userSpaceOnUse"><stop
     stop-color="#f3efe7"
     offset="0"
     id="stop221" /><stop
     stop-color="#ffb59e"
     offset=".27324"
     id="stop223" /><stop
     stop-color="#c52c7a"
     offset="1"
     id="stop225" /></radialGradient><radialGradient
   id="radialGradient9482"
   cx="-77.355003"
   cy="49.844002"
   r="5.9875998"
   gradientTransform="matrix(2.2165,-3.0039,0.91117,0.67232,71.712,32.515)"
   gradientUnits="userSpaceOnUse"><stop
     stop-color="#f3efe7"
     offset="0"
     id="stop228" /><stop
     stop-color="#db4769"
     stop-opacity=".552"
     offset=".27324"
     id="stop230" /><stop
     stop-color="#c52c7a"
     offset="1"
     id="stop232" /></radialGradient><radialGradient
   id="radialGradient9234"
   cx="-56.200001"
   cy="115.18"
   r="4.5282001"
   gradientTransform="translate(0,-1.9161e-4)"
   gradientUnits="userSpaceOnUse"><stop
     stop-color="#f3efe7"
     offset="0"
     id="stop235" /><stop
     stop-color="#cc5b89"
     stop-opacity=".79467"
     offset=".27324"
     id="stop237" /><stop
     stop-color="#8c2981"
     offset="1"
     id="stop239" /></radialGradient><radialGradient
   id="radialGradient8799"
   cx="341.87"
   cy="41.748001"
   r="5.4484"
   gradientTransform="matrix(1.7916,0.65529,-0.53739,1.4693,-704.2,15.289)"
   gradientUnits="userSpaceOnUse"><stop
     stop-color="#f3efe7"
     offset="0"
     id="stop242" /><stop
     stop-color="#b53679"
     stop-opacity=".584"
     offset=".27324"
     id="stop244" /><stop
     stop-color="#3b0f70"
     stop-opacity=".57333"
     offset=".55977"
     id="stop246" /><stop
     stop-color="#2b1767"
     offset="1"
     id="stop248" /></radialGradient><linearGradient
   id="linearGradient12501"
   x1="345.64001"
   x2="411.51001"
   y1="-116.59"
   y2="-117.21"
   gradientTransform="matrix(1.3971,0,0,1.3971,-592.75,453.29)"
   gradientUnits="userSpaceOnUse"><stop
     stop-color="#c70000"
     offset="0"
     id="stop251" /><stop
     stop-color="#c7030d"
     stop-opacity="0"
     offset="1"
     id="stop253" /></linearGradient><linearGradient
   id="linearGradient14798"
   x1="343.78"
   x2="411.51001"
   y1="-117.21"
   y2="-117.21"
   gradientTransform="matrix(1.3971,0,0,1.3971,-592.75,453.29)"
   gradientUnits="userSpaceOnUse"><stop
     offset="0"
     id="stop256" /><stop
     stop-color="#d9562a"
     offset="1"
     id="stop258" /></linearGradient><marker
   id="three_dots"
   overflow="visible"
   markerHeight="1.5"
   markerWidth="5.5"
   orient="auto-start-reverse"
   preserveAspectRatio="xMidYMid"
   viewBox="0 0 5.5 1.5"><g
     transform="scale(0.5)"
     id="g267"><circle
       cx="4"
       r="1"
       fill="context-stroke"
       stroke="context-stroke"
       id="circle261"
       cy="0" /><circle
       cx="8"
       r="1"
       fill="context-stroke"
       stroke="context-stroke"
       id="circle263"
       cy="0" /><circle
       cx="12"
       r="1"
       fill="context-stroke"
       stroke="context-stroke"
       id="circle265"
       cy="0" /></g></marker><marker
   id="TriangleStart"
   overflow="visible"
   markerHeight="6.155385"
   markerWidth="5.3244081"
   orient="auto-start-reverse"
   preserveAspectRatio="xMidYMid"
   viewBox="0 0 5.3244081 6.1553851"><path
     transform="scale(0.5)"
     d="M 5.77,0 -2.88,5 V -5 Z"
     fill="context-stroke"
     fill-rule="evenodd"
     stroke="context-stroke"
     stroke-width="1pt"
     id="path270" /></marker>
      
      
      
      
      
      
      
      
      
      
      
      
      
    
      
      
    
      
      
      
      
      
      
    
      
      
      
      
      
      
    
      
      
      
      
      
      
      
      
      
      
      
      
      
      
      
      
      
      
      
      
      
      
      
    
      
      
      
      
      
      
      
      
      
      
      
      
      
      
      
      
    <g
   id="id-de32940a-72f5-42a5-8f4a-3afba522434c">
      
      
    </g>
      
      
    
      
      
    
      
      
    <g
   id="id-05b08743-cbc7-4a88-a8bf-d345ad033e5e">
      
      
      
      
      
    </g>
      
      
    
      
      
    
      
      
      
      
      
      
      
      
      
      
      
      
      
    
      
      
      
      
      
      
      
      
      
      
      
      
      
    <g
   id="id-a16b1868-d5bb-4820-a7c5-06eb62d8817e">
      
      
      
      
      
      
      
      
      
      
    </g>
      
      
      
      
      
      
    
      
      
      
      
      
      
    
      
      
      
      
      
      
      
      
      
      
      
      
      
      
      
      
      
      
      
      
      
      
      
    
      
      
      
      
      
      
      
      
      
      
      
      
      
      
      
      
    
      
      
    
      
      
    
      
      
      
      
      
      
      
      
      
      
      
      
      
    
      
      
      
      
      
      
      
      
      
      
      
      
      
    
      
      
      
      
      
      
      
      
      
      
    
      
      
    
    
    
    </defs><g
     transform="translate(167.89919,-231.07973)"
     id="g750"><g
       transform="matrix(0.50977,0,0,0.50977,62.082,233.54)"
       id="g626"><g
         id="g278" /><g
         transform="translate(-432.14,16.075)"
         id="g624"><path
           transform="matrix(1,0,0,-1,0,329.07)"
           d="m 71.457,61.034 v 252 l 6.0859,-2.5469 5.9609,-2.5469 5.8398,-2.543 5.7148,-2.5469 5.5859,-2.5469 5.4688,-2.543 5.3398,-2.5469 5.2188,-2.5469 5.0898,-2.543 4.9688,-2.5469 4.8476,-2.543 4.7188,-2.5469 4.5977,-2.5469 4.4688,-2.543 4.3477,-2.5469 4.2266,-2.5469 4.0977,-2.543 3.9766,-2.5469 3.8476,-2.5469 3.7266,-2.543 3.6016,-2.5469 3.4805,-2.543 3.3516,-2.5469 3.2305,-2.5469 3.1055,-2.543 2.9805,-2.5469 2.8594,-2.5469 2.7305,-2.543 2.6094,-2.5469 2.4844,-2.5469 2.3594,-2.543 2.2383,-2.5469 2.1094,-2.543 1.9883,-2.5469 1.8633,-2.5469 1.7383,-2.543 1.6172,-2.5469 1.4883,-2.5469 1.3672,-2.543 1.2422,-2.5469 1.1172,-2.5469 0.99609,-2.543 0.86719,-2.5469 0.74609,-2.543 0.6211,-2.5469 0.49609,-2.5469 0.375,-2.543 0.24609,-2.5469 0.125,-2.5469 v -2.543 l -0.125,-2.5469 -0.24609,-2.5469 -0.375,-2.543 -0.49609,-2.5469 -0.6211,-2.543 -0.74609,-2.5469 -0.86719,-2.5469 -0.99609,-2.543 -1.1172,-2.5469 -1.2422,-2.5469 -1.3672,-2.543 -1.4883,-2.5469 -1.6172,-2.5469 -1.7383,-2.543 -1.8633,-2.5469 -1.9883,-2.543 -2.1094,-2.5469 -2.2383,-2.5469 -2.3594,-2.543 -2.4844,-2.5469 -2.6094,-2.5469 -2.7305,-2.543 -2.8594,-2.5469 -2.9805,-2.5469 -3.1055,-2.543 -3.2305,-2.5469 -3.3516,-2.543 -3.4805,-2.5469 -3.6016,-2.5469 -3.7266,-2.543 -3.8476,-2.5469 -3.9766,-2.5469 -4.0977,-2.543 -4.2266,-2.5469 -4.3477,-2.5469 -4.4688,-2.543 -4.5977,-2.5469 -4.7188,-2.543 -4.8476,-2.5469 -4.9688,-2.5469 -5.0898,-2.543 -5.2188,-2.5469 -5.3398,-2.5469 -5.4688,-2.543 -5.5859,-2.5469 -5.7148,-2.5469 -5.8398,-2.543 -5.9609,-2.5469 z"
           fill="#e8c6c4"
           fill-opacity="0.43922"
           stroke="#ff7f0e"
           stroke-linejoin="round"
           stroke-miterlimit="10"
           stroke-opacity="0.2"
           id="path280" /><path
           transform="matrix(1,0,0,-1,0,329.07)"
           d="m 71.457,40.873 v -3.5"
           fill="none"
           stroke="#000000"
           stroke-linejoin="round"
           stroke-miterlimit="10"
           stroke-width="0.8"
           id="path282" /><g
           transform="matrix(1.1,0,0,1.1,-7.1346,-29.914)"
           id="g296"><g
             transform="translate(63.502,302.79)"
             id="g286"><path
               d="m 3.1797,-6.6406 c -0.50781,0 -0.89063,0.25 -1.1484,0.75 -0.26172,0.5 -0.38281,1.25 -0.38281,2.25 0,1 0.12109,1.75 0.38281,2.25 0.25781,0.5 0.64062,0.75 1.1484,0.75 0.51172,0 0.89062,-0.25 1.1484,-0.75 0.25,-0.5 0.38281,-1.25 0.38281,-2.25 0,-1 -0.13281,-1.75 -0.38281,-2.25 -0.25781,-0.5 -0.63672,-0.75 -1.1484,-0.75 z m 0,-0.78125 c 0.80859,0 1.4297,0.33203 1.8711,0.97266 0.42969,0.64844 0.64844,1.5898 0.64844,2.8086 0,1.2305 -0.21875,2.1719 -0.64844,2.8125 -0.44141,0.63672 -1.0625,0.95703 -1.8789,0.95703 -0.82031,0 -1.4414,-0.32031 -1.8711,-0.95703 -0.42969,-0.64062 -0.64062,-1.582 -0.64062,-2.8125 0,-1.2188 0.21094,-2.1602 0.64062,-2.8086 0.42969,-0.64062 1.0586,-0.97266 1.8789,-0.97266 z"
               id="path284" /></g><g
             transform="translate(69.862,302.79)"
             id="g290"><path
               d="M 1.0703,-1.2383 H 2.1015 V 0 H 1.0703 Z"
               id="path288" /></g><g
             transform="translate(73.042,302.79)"
             id="g294"><path
               d="m 1.0781,-7.2891 h 3.8711 v 0.82812 H 1.9804 v 1.7891 c 0.14062,-0.046875 0.28906,-0.089844 0.42969,-0.10938 0.14063,-0.019536 0.28906,-0.039062 0.42969,-0.039062 0.80859,0 1.4492,0.23047 1.9297,0.67187 0.48047,0.44922 0.71875,1.0469 0.71875,1.8086 0,0.78906 -0.25,1.3984 -0.73828,1.8281 -0.48828,0.43359 -1.1797,0.64062 -2.0586,0.64062 -0.3125,0 -0.62109,-0.027344 -0.94141,-0.070312 -0.32031,-0.046875 -0.64062,-0.11719 -0.98047,-0.23047 v -0.98828 c 0.28906,0.16016 0.58984,0.28125 0.91016,0.35938 0.30859,0.082031 0.64062,0.10938 0.99219,0.10938 0.55859,0 1.0078,-0.13672 1.3398,-0.4375 0.31641,-0.30078 0.48828,-0.69922 0.48828,-1.2109 0,-0.5 -0.17188,-0.89844 -0.48828,-1.1992 -0.33203,-0.30078 -0.78125,-0.44922 -1.3398,-0.44922 -0.26172,0 -0.53125,0.027343 -0.79297,0.089843 -0.25781,0.058594 -0.52734,0.14844 -0.80078,0.26953 z"
               id="path292" /></g></g><path
           transform="matrix(1,0,0,-1,0,329.07)"
           d="m 132.33,40.873 v -3.5"
           fill="none"
           stroke="#000000"
           stroke-linejoin="round"
           stroke-miterlimit="10"
           stroke-width="0.8"
           id="path298" /><g
           transform="matrix(1.1,0,0,1.1,-13.234,-29.914)"
           id="g312"><g
             transform="translate(124.37,302.79)"
             id="g302"><path
               d="m 3.1797,-6.6406 c -0.50781,0 -0.89063,0.25 -1.1484,0.75 -0.26172,0.5 -0.38281,1.25 -0.38281,2.25 0,1 0.12109,1.75 0.38281,2.25 0.25781,0.5 0.64062,0.75 1.1484,0.75 0.51172,0 0.89062,-0.25 1.1484,-0.75 0.25,-0.5 0.38281,-1.25 0.38281,-2.25 0,-1 -0.13281,-1.75 -0.38281,-2.25 -0.25781,-0.5 -0.63672,-0.75 -1.1484,-0.75 z m 0,-0.78125 c 0.80859,0 1.4297,0.33203 1.8711,0.97266 0.42969,0.64844 0.64844,1.5898 0.64844,2.8086 0,1.2305 -0.21875,2.1719 -0.64844,2.8125 -0.44141,0.63672 -1.0625,0.95703 -1.8789,0.95703 -0.82031,0 -1.4414,-0.32031 -1.8711,-0.95703 -0.42969,-0.64062 -0.64062,-1.582 -0.64062,-2.8125 0,-1.2188 0.21094,-2.1602 0.64062,-2.8086 0.42969,-0.64062 1.0586,-0.97266 1.8789,-0.97266 z"
               id="path300" /></g><g
             transform="translate(130.73,302.79)"
             id="g306"><path
               d="M 1.0703,-1.2383 H 2.1015 V 0 H 1.0703 Z"
               id="path304" /></g><g
             transform="translate(133.91,302.79)"
             id="g310"><path
               d="m 3.3008,-4.0391 c -0.44141,0 -0.78906,0.16016 -1.0508,0.46094 -0.26172,0.29688 -0.39062,0.71875 -0.39062,1.2383 0,0.53125 0.12891,0.94922 0.39062,1.25 0.26172,0.30078 0.60938,0.44922 1.0508,0.44922 0.4375,0 0.78906,-0.14844 1.0508,-0.44922 0.25781,-0.30078 0.38672,-0.71875 0.38672,-1.25 0,-0.51953 -0.12891,-0.94141 -0.38672,-1.2383 C 4.08988,-3.87894 3.73832,-4.0391 3.3008,-4.0391 Z m 1.9609,-3.0898 v 0.89844 c -0.25,-0.12109 -0.5,-0.21094 -0.75,-0.26953 -0.26172,-0.058594 -0.51172,-0.089844 -0.75,-0.089844 -0.66016,0 -1.1602,0.21875 -1.5,0.66016 -0.33984,0.44141 -0.54297,1.1094 -0.58203,1.9883 0.19141,-0.27734 0.42969,-0.5 0.71875,-0.64844 0.29297,-0.14844 0.61328,-0.23047 0.96094,-0.23047 0.73047,0 1.3125,0.23047 1.7305,0.67187 0.42188,0.4375 0.64062,1.0469 0.64062,1.8086 0,0.75 -0.23047,1.3516 -0.67188,1.8008 -0.4375,0.44922 -1.0273,0.66797 -1.7578,0.66797 -0.83984,0 -1.4922,-0.32031 -1.9297,-0.95703 -0.44922,-0.64062 -0.67188,-1.582 -0.67188,-2.8125 0,-1.1484 0.26953,-2.0703 0.82031,-2.75 0.53906,-0.67969 1.2812,-1.0312 2.1992,-1.0312 0.24219,0 0.49219,0.03125 0.75,0.070313 0.25,0.050781 0.51172,0.12109 0.79297,0.22266 z"
               id="path308" /></g></g><path
           transform="matrix(1,0,0,-1,0,329.07)"
           d="m 193.2,40.873 v -3.5"
           fill="none"
           stroke="#000000"
           stroke-linejoin="round"
           stroke-miterlimit="10"
           stroke-width="0.8"
           id="path314" /><g
           transform="matrix(1.1,0,0,1.1,-19.31,-29.914)"
           id="g328"><g
             transform="translate(185.25,302.79)"
             id="g318"><path
               d="m 3.1797,-6.6406 c -0.50781,0 -0.89063,0.25 -1.1484,0.75 -0.26172,0.5 -0.38281,1.25 -0.38281,2.25 0,1 0.12109,1.75 0.38281,2.25 0.25781,0.5 0.64062,0.75 1.1484,0.75 0.51172,0 0.89062,-0.25 1.1484,-0.75 0.25,-0.5 0.38281,-1.25 0.38281,-2.25 0,-1 -0.13281,-1.75 -0.38281,-2.25 -0.25781,-0.5 -0.63672,-0.75 -1.1484,-0.75 z m 0,-0.78125 c 0.80859,0 1.4297,0.33203 1.8711,0.97266 0.42969,0.64844 0.64844,1.5898 0.64844,2.8086 0,1.2305 -0.21875,2.1719 -0.64844,2.8125 -0.44141,0.63672 -1.0625,0.95703 -1.8789,0.95703 -0.82031,0 -1.4414,-0.32031 -1.8711,-0.95703 -0.42969,-0.64062 -0.64062,-1.582 -0.64062,-2.8125 0,-1.2188 0.21094,-2.1602 0.64062,-2.8086 0.42969,-0.64062 1.0586,-0.97266 1.8789,-0.97266 z"
               id="path316" /></g><g
             transform="translate(191.61,302.79)"
             id="g322"><path
               d="M 1.0703,-1.2383 H 2.1015 V 0 H 1.0703 Z"
               id="path320" /></g><g
             transform="translate(194.79,302.79)"
             id="g326"><path
               d="m 0.82031,-7.2891 h 4.6914 v 0.41797 L 2.85941,-3e-5 h -1.0312 l 2.4922,-6.4609 h -3.5 z"
               id="path324" /></g></g><path
           transform="matrix(1,0,0,-1,0,329.07)"
           d="m 254.07,40.873 v -3.5"
           fill="none"
           stroke="#000000"
           stroke-linejoin="round"
           stroke-miterlimit="10"
           stroke-width="0.8"
           id="path330" /><g
           transform="matrix(1.1,0,0,1.1,-25.406,-29.914)"
           id="g344"><g
             transform="translate(246.12,302.79)"
             id="g334"><path
               d="m 3.1797,-6.6406 c -0.50781,0 -0.89063,0.25 -1.1484,0.75 -0.26172,0.5 -0.38281,1.25 -0.38281,2.25 0,1 0.12109,1.75 0.38281,2.25 0.25781,0.5 0.64062,0.75 1.1484,0.75 0.51172,0 0.89062,-0.25 1.1484,-0.75 0.25,-0.5 0.38281,-1.25 0.38281,-2.25 0,-1 -0.13281,-1.75 -0.38281,-2.25 -0.25781,-0.5 -0.63672,-0.75 -1.1484,-0.75 z m 0,-0.78125 c 0.80859,0 1.4297,0.33203 1.8711,0.97266 0.42969,0.64844 0.64844,1.5898 0.64844,2.8086 0,1.2305 -0.21875,2.1719 -0.64844,2.8125 -0.44141,0.63672 -1.0625,0.95703 -1.8789,0.95703 -0.82031,0 -1.4414,-0.32031 -1.8711,-0.95703 -0.42969,-0.64062 -0.64062,-1.582 -0.64062,-2.8125 0,-1.2188 0.21094,-2.1602 0.64062,-2.8086 0.42969,-0.64062 1.0586,-0.97266 1.8789,-0.97266 z"
               id="path332" /></g><g
             transform="translate(252.48,302.79)"
             id="g338"><path
               d="M 1.0703,-1.2383 H 2.1015 V 0 H 1.0703 Z"
               id="path336" /></g><g
             transform="translate(255.66,302.79)"
             id="g342"><path
               d="m 3.1797,-3.4609 c -0.46875,0 -0.83984,0.13281 -1.1094,0.38281 -0.26953,0.25 -0.39844,0.58984 -0.39844,1.0273 0,0.44141 0.12891,0.78906 0.39844,1.0391 0.26953,0.25 0.64063,0.37109 1.1094,0.37109 0.46094,0 0.83203,-0.12109 1.1016,-0.37891 0.26953,-0.25 0.41016,-0.58984 0.41016,-1.0312 0,-0.4375 -0.14062,-0.77734 -0.40234,-1.0273 -0.26953,-0.25 -0.64062,-0.38281 -1.1094,-0.38281 z M 2.19142,-3.87887 c -0.42188,-0.10156 -0.75,-0.30078 -0.99219,-0.58984 -0.23828,-0.29297 -0.34766,-0.64062 -0.34766,-1.0625 0,-0.57812 0.19922,-1.0391 0.61719,-1.3789 0.41016,-0.33984 0.98047,-0.51172 1.7109,-0.51172 0.71875,0 1.2891,0.17188 1.7109,0.51172 0.41016,0.33984 0.62109,0.80078 0.62109,1.3789 0,0.42188 -0.12109,0.76953 -0.36328,1.0625 -0.23828,0.28906 -0.55859,0.48828 -0.97656,0.58984 0.46875,0.10938 0.83984,0.32812 1.1094,0.64844 0.25781,0.32031 0.39844,0.71875 0.39844,1.1797 0,0.71094 -0.21875,1.25 -0.64844,1.6211 -0.44141,0.37891 -1.0625,0.55859 -1.8594,0.55859 -0.80078,0 -1.4219,-0.17969 -1.8516,-0.55859 -0.42969,-0.37109 -0.64062,-0.91016 -0.64062,-1.6211 0,-0.46094 0.12891,-0.85938 0.39844,-1.1797 0.26172,-0.32031 0.63281,-0.53906 1.1133,-0.64844 z m -0.36328,-1.5625 c 0,0.38281 0.11328,0.67969 0.35156,0.89062 0.24219,0.21094 0.57031,0.3125 1,0.3125 0.42187,0 0.75,-0.10156 0.99219,-0.3125 0.23828,-0.21094 0.35938,-0.50781 0.35938,-0.89062 0,-0.37891 -0.12109,-0.66797 -0.35938,-0.87891 C 3.9297,-6.53122 3.60158,-6.64059 3.1797,-6.64059 c -0.42969,0 -0.75781,0.10938 -1,0.32031 -0.23828,0.21094 -0.35156,0.5 -0.35156,0.87891 z"
               id="path340" /></g></g><path
           transform="matrix(1,0,0,-1,0,329.07)"
           d="m 314.95,40.873 v -3.5"
           fill="none"
           stroke="#000000"
           stroke-linejoin="round"
           stroke-miterlimit="10"
           stroke-width="0.8"
           id="path346" /><g
           transform="matrix(1.1,0,0,1.1,-31.492,-29.914)"
           id="g360"><g
             transform="translate(306.99,302.79)"
             id="g350"><path
               d="m 3.1797,-6.6406 c -0.50781,0 -0.89063,0.25 -1.1484,0.75 -0.26172,0.5 -0.38281,1.25 -0.38281,2.25 0,1 0.12109,1.75 0.38281,2.25 0.25781,0.5 0.64062,0.75 1.1484,0.75 0.51172,0 0.89062,-0.25 1.1484,-0.75 0.25,-0.5 0.38281,-1.25 0.38281,-2.25 0,-1 -0.13281,-1.75 -0.38281,-2.25 -0.25781,-0.5 -0.63672,-0.75 -1.1484,-0.75 z m 0,-0.78125 c 0.80859,0 1.4297,0.33203 1.8711,0.97266 0.42969,0.64844 0.64844,1.5898 0.64844,2.8086 0,1.2305 -0.21875,2.1719 -0.64844,2.8125 -0.44141,0.63672 -1.0625,0.95703 -1.8789,0.95703 -0.82031,0 -1.4414,-0.32031 -1.8711,-0.95703 -0.42969,-0.64062 -0.64062,-1.582 -0.64062,-2.8125 0,-1.2188 0.21094,-2.1602 0.64062,-2.8086 0.42969,-0.64062 1.0586,-0.97266 1.8789,-0.97266 z"
               id="path348" /></g><g
             transform="translate(313.35,302.79)"
             id="g354"><path
               d="M 1.0703,-1.2383 H 2.1015 V 0 H 1.0703 Z"
               id="path352" /></g><g
             transform="translate(316.53,302.79)"
             id="g358"><path
               d="m 1.1016,-0.14844 v -0.90234 c 0.23828,0.12109 0.48828,0.21094 0.75,0.26953 0.25,0.0625 0.5,0.089844 0.75,0.089844 0.63672,0 1.1367,-0.20703 1.4766,-0.64844 0.34375,-0.44141 0.54297,-1.1016 0.60156,-2 -0.19922,0.28125 -0.44141,0.5 -0.71875,0.64844 -0.28906,0.15234 -0.60938,0.22266 -0.96094,0.22266 -0.73828,0 -1.3203,-0.22266 -1.7383,-0.66016 -0.42188,-0.44141 -0.63281,-1.043 -0.63281,-1.8125 0,-0.73828 0.22266,-1.3398 0.66016,-1.7969 0.44141,-0.45312 1.0312,-0.68359 1.7695,-0.68359 0.83984,0 1.4922,0.33203 1.9297,0.97266 0.44141,0.64844 0.67188,1.5898 0.67188,2.8086 0,1.1602 -0.28125,2.0703 -0.82031,2.75 -0.55078,0.67969 -1.2812,1.0195 -2.1992,1.0195 -0.25,0 -0.5,-0.027344 -0.75,-0.070312 -0.26172,-0.039063 -0.51953,-0.10938 -0.78906,-0.20703 z m 1.957,-3.0898 c 0.44141,0 0.79297,-0.15234 1.0508,-0.45312 0.26172,-0.29688 0.39062,-0.71875 0.39062,-1.25 0,-0.51953 -0.12891,-0.9375 -0.39062,-1.2383 C 3.85159,-6.48044 3.50002,-6.6406 3.0586,-6.6406 c -0.4375,0 -0.78906,0.16016 -1.0469,0.46094 -0.26172,0.30078 -0.39062,0.71875 -0.39062,1.2383 0,0.53125 0.12891,0.95312 0.39062,1.25 0.25781,0.30078 0.60938,0.45312 1.0469,0.45312 z"
               id="path356" /></g></g><g
           id="g362" /><g
           transform="matrix(1.21,0,0,1.21,-38.004,-66.082)"
           id="g430"><g
             id="g428"><g
               transform="translate(130.53,317.99)"
               id="g366"><path
                 d="m 6.4219,-8.4609 v 1.1523 C 5.96487,-7.52344 5.54299,-7.67969 5.1485,-7.78907 4.73834,-7.88282 4.35553,-7.94532 3.9962,-7.94532 c -0.64844,0 -1.1523,0.13281 -1.5,0.375 -0.34766,0.25 -0.51562,0.60937 -0.51562,1.0664 0,0.38281 0.10938,0.68359 0.34766,0.875 0.22656,0.20312 0.67188,0.35938 1.3203,0.48047 l 0.71875,0.14453 c 0.875,0.16797 1.5234,0.46875 1.9453,0.88672 0.41797,0.43359 0.63672,0.99609 0.63672,1.707 0,0.85156 -0.28906,1.4844 -0.85156,1.918 -0.57812,0.43359 -1.4062,0.64844 -2.4961,0.64844 -0.42187,0 -0.86719,-0.046875 -1.332,-0.13281 C 1.8009,-0.058601 1.32043,-0.19141 0.82825,-0.38282 v -1.2266 c 0.48047,0.27734 0.94922,0.48047 1.4023,0.61328 0.45703,0.14453 0.91406,0.20312 1.3711,0.20312 0.67188,0 1.1875,-0.13281 1.5586,-0.39453 0.35938,-0.26562 0.55078,-0.63672 0.55078,-1.1406 0,-0.43359 -0.13281,-0.76953 -0.39453,-1.0078 C 5.05088,-3.57423 4.62119,-3.75782 4.0196,-3.87501 L 3.30085,-4.01954 C 2.41023,-4.18751 1.77745,-4.46485 1.37895,-4.84766 0.98442,-5.21875 0.79301,-5.73438 0.79301,-6.40626 c 0,-0.76953 0.26172,-1.3828 0.81641,-1.8242 0.53906,-0.44531 1.293,-0.67188 2.2539,-0.67188 0.41016,0 0.81641,0.035156 1.25,0.10547 0.41797,0.074219 0.85156,0.19141 1.3086,0.33594 z"
                 id="path364" /></g><g
               transform="translate(138.14,317.99)"
               id="g370"><path
                 d="M 1.1289,-6.5625 H 2.207 V 0 H 1.1289 Z m 0,-2.5586 H 2.207 v 1.3672 H 1.1289 Z"
                 id="path368" /></g><g
               transform="translate(141.48,317.99)"
               id="g374"><path
                 d="m 6.2383,-5.3047 c 0.26562,-0.48047 0.58984,-0.82812 0.96094,-1.0664 0.37109,-0.23047 0.81641,-0.34766 1.332,-0.34766 0.67188,0 1.1992,0.23828 1.5742,0.71875 0.37109,0.48047 0.5625,1.1641 0.5625,2.0391 V -1e-5 h -1.0781 v -3.9258 c 0,-0.62109 -0.12109,-1.0898 -0.33594,-1.4023 -0.23047,-0.30078 -0.56641,-0.45703 -1.0234,-0.45703 -0.5625,0 -1.0078,0.19141 -1.332,0.56641 -0.32422,0.37109 -0.47656,0.875 -0.47656,1.5117 v 3.707 h -1.082 v -3.9258 c 0,-0.62109 -0.12109,-1.0898 -0.33594,-1.4023 -0.22656,-0.30078 -0.57422,-0.45703 -1.0312,-0.45703 -0.55078,0 -0.99609,0.19141 -1.3203,0.56641 -0.32422,0.37109 -0.48047,0.875 -0.48047,1.5117 v 3.707 h -1.0781 v -6.5625 h 1.0781 v 1.0195 c 0.23828,-0.39844 0.53906,-0.69531 0.88672,-0.89062 0.33594,-0.19141 0.74609,-0.28516 1.2266,-0.28516 0.48047,0 0.875,0.11719 1.2109,0.35938 0.33594,0.23828 0.57422,0.59766 0.74219,1.0547 z"
                 id="path372" /></g><g
               transform="translate(153.17,317.99)"
               id="g378"><path
                 d="M 1.1289,-6.5625 H 2.207 V 0 H 1.1289 Z m 0,-2.5586 H 2.207 v 1.3672 H 1.1289 Z"
                 id="path376" /></g><g
               transform="translate(156.5,317.99)"
               id="g382"><path
                 d="M 1.1289,-9.1211 H 2.207 V 0 H 1.1289 Z"
                 id="path380" /></g><g
               transform="translate(159.83,317.99)"
               id="g386"><path
                 d="m 4.1172,-3.3008 c -0.87891,0 -1.4766,0.10938 -1.8125,0.30078 -0.33594,0.20312 -0.50391,0.53906 -0.50391,1.0195 0,0.38281 0.12109,0.69531 0.37109,0.91406 0.25391,0.22656 0.60156,0.33594 1.0312,0.33594 0.60156,0 1.082,-0.20703 1.4414,-0.63672 0.35938,-0.42187 0.53906,-0.98437 0.53906,-1.6914 V -3.30083 Z M 6.2656,-3.74221 V -1e-5 H 5.1836 V -0.9961 c -0.25,0.40625 -0.5625,0.69531 -0.92188,0.875 -0.36328,0.17969 -0.81641,0.27734 -1.3477,0.27734 -0.67187,0 -1.2109,-0.17969 -1.6055,-0.55078 -0.39844,-0.375 -0.58984,-0.87891 -0.58984,-1.5117 0,-0.73438 0.24219,-1.2852 0.74609,-1.668 0.49219,-0.375 1.2227,-0.56641 2.207,-0.56641 h 1.5117 v -0.10547 c 0,-0.49219 -0.16797,-0.87891 -0.49219,-1.1523 -0.32422,-0.26562 -0.78125,-0.41016 -1.3672,-0.41016 -0.38281,0 -0.74609,0.046875 -1.1055,0.14453 -0.35938,0.097656 -0.69531,0.22656 -1.0195,0.39453 v -0.99609 c 0.38672,-0.14062 0.76953,-0.26172 1.1406,-0.33594 0.37109,-0.070313 0.73047,-0.11719 1.0938,-0.11719 0.94531,0 1.6562,0.25 2.1211,0.74219 0.46875,0.49219 0.71094,1.2383 0.71094,2.2344 z"
                 id="path384" /></g><g
               transform="translate(167.19,317.99)"
               id="g390"><path
                 d="M 4.9336,-5.5547 C 4.81251,-5.628918 4.67969,-5.67579 4.53516,-5.71095 4.39063,-5.734387 4.23438,-5.761731 4.06641,-5.761731 c -0.60938,0 -1.0781,0.20703 -1.4023,0.60156 -0.33594,0.39453 -0.49219,0.96094 -0.49219,1.7031 v 3.457 h -1.0781 v -6.5625 h 1.0781 v 1.0195 c 0.21484,-0.39844 0.51562,-0.69531 0.875,-0.89062 0.35938,-0.19141 0.80469,-0.28516 1.332,-0.28516 0.074219,0 0.15625,0.011719 0.25391,0.011719 0.082032,0.011719 0.17969,0.023437 0.30078,0.046875 z"
                 id="path388" /></g><g
               transform="translate(172.12,317.99)"
               id="g394"><path
                 d="M 1.1289,-6.5625 H 2.207 V 0 H 1.1289 Z m 0,-2.5586 H 2.207 v 1.3672 H 1.1289 Z"
                 id="path392" /></g><g
               transform="translate(175.46,317.99)"
               id="g398"><path
                 d="m 2.1953,-8.4258 v 1.8633 h 2.2188 v 0.83984 H 2.1953 v 3.5625 c 0,0.53906 0.074219,0.88672 0.21484,1.0312 0.14453,0.15625 0.44531,0.23047 0.90234,0.23047 h 1.1016 V -5e-5 h -1.1016 c -0.83984,0 -1.418,-0.15625 -1.7266,-0.46875 -0.3125,-0.3125 -0.46875,-0.875 -0.46875,-1.6914 V -5.7227 H 0.32416 v -0.83984 h 0.79297 v -1.8633 z"
                 id="path396" /></g><g
               transform="translate(180.16,317.99)"
               id="g402"><path
                 d="M 3.8633,0.60156 C 3.5508,1.36719 3.25392,1.88276 2.96486,2.12496 2.6758,2.36324 2.29298,2.48434 1.81256,2.48434 H 0.94928 V 1.5859 H 1.586 c 0.28516,0 0.51562,-0.074219 0.68359,-0.21875 C 2.43756,1.22262 2.61725,0.8984 2.82037,0.37106 l 0.19141,-0.48047 -2.6523,-6.4531 h 1.1406 l 2.0508,5.1328 2.0547,-5.1328 h 1.1367 z"
                 id="path400" /></g><g
               transform="translate(191.08,317.99)"
               id="g406"><path
                 d="m 2.1953,-8.4258 v 1.8633 h 2.2188 v 0.83984 H 2.1953 v 3.5625 c 0,0.53906 0.074219,0.88672 0.21484,1.0312 0.14453,0.15625 0.44531,0.23047 0.90234,0.23047 h 1.1016 V -5e-5 h -1.1016 c -0.83984,0 -1.418,-0.15625 -1.7266,-0.46875 -0.3125,-0.3125 -0.46875,-0.875 -0.46875,-1.6914 V -5.7227 H 0.32416 v -0.83984 h 0.79297 v -1.8633 z"
                 id="path404" /></g><g
               transform="translate(195.78,317.99)"
               id="g410"><path
                 d="m 6.7422,-3.5508 v 0.52734 H 1.7891 c 0.046876,0.74219 0.26172,1.3203 0.67188,1.7031 0.39453,0.38281 0.94531,0.57812 1.668,0.57812 0.40625,0 0.81641,-0.050781 1.1992,-0.14453 0.38281,-0.097656 0.78125,-0.25391 1.1641,-0.46875 v 1.0195 c -0.38281,0.16797 -0.78125,0.30078 -1.1875,0.37109 -0.41016,0.074219 -0.82813,0.12109 -1.2383,0.12109 -1.0547,0 -1.8828,-0.30078 -2.4961,-0.89844 -0.60937,-0.60156 -0.91016,-1.4297 -0.91016,-2.4727 0,-1.0703 0.28906,-1.9219 0.86328,-2.5586 0.57812,-0.62109 1.3672,-0.94531 2.3516,-0.94531 0.89062,0 1.5859,0.28516 2.1016,0.85156 0.50391,0.57422 0.76563,1.3438 0.76563,2.3164 z M 5.6641,-3.8633 C 5.652382,-4.45314 5.48441,-4.9219 5.17191,-5.2813 4.84769,-5.62896 4.4141,-5.80864 3.88671,-5.80864 c -0.59766,0 -1.0781,0.17969 -1.4375,0.51562 -0.35938,0.33594 -0.57812,0.81641 -0.625,1.4297 z"
                 id="path408" /></g><g
               transform="translate(203.16,317.99)"
               id="g414"><path
                 d="m 5.3164,-6.3711 v 1.0195 C 5.0039,-5.49613 4.6914,-5.61723 4.36718,-5.69926 4.03124,-5.773479 3.6953,-5.82035 3.34768,-5.82035 c -0.53906,0 -0.94922,0.085937 -1.2109,0.25391 -0.26562,0.16797 -0.39844,0.40625 -0.39844,0.73047 0,0.25 0.097657,0.44531 0.28906,0.58984 0.19141,0.14062 0.57812,0.28516 1.1523,0.40625 l 0.37109,0.082032 c 0.76953,0.16797 1.3086,0.41016 1.6328,0.69922 0.3125,0.29688 0.48047,0.71875 0.48047,1.2461 0,0.61328 -0.23828,1.0938 -0.71875,1.4414 -0.48047,0.35938 -1.1523,0.52734 -1.9922,0.52734 -0.35938,0 -0.72266,-0.035156 -1.1055,-0.097656 C 1.4648,-3.8e-5 1.06636,-0.097694 0.64841,-0.238314 v -1.1172 c 0.39453,0.21484 0.79297,0.37109 1.1758,0.46875 0.38281,0.10547 0.76953,0.15625 1.1523,0.15625 0.50391,0 0.89844,-0.085937 1.1758,-0.25391 0.26172,-0.16797 0.40625,-0.41797 0.40625,-0.74219 0,-0.28906 -0.10547,-0.51563 -0.29688,-0.67188 -0.19531,-0.15625 -0.625,-0.3125 -1.2969,-0.45703 L 2.59369,-2.941461 c -0.67188,-0.14453 -1.1641,-0.35938 -1.4531,-0.64844 -0.30078,-0.28516 -0.44531,-0.68359 -0.44531,-1.1992 0,-0.60938 0.21484,-1.0898 0.64844,-1.4258 0.43359,-0.33594 1.0547,-0.50391 1.8711,-0.50391 0.39844,0 0.76953,0.035156 1.1289,0.09375 0.34766,0.0625 0.67188,0.14453 0.97266,0.25391 z"
                 id="path412" /></g><g
               transform="translate(209.42,317.99)"
               id="g418"><path
                 d="m 2.1953,-8.4258 v 1.8633 h 2.2188 v 0.83984 H 2.1953 v 3.5625 c 0,0.53906 0.074219,0.88672 0.21484,1.0312 0.14453,0.15625 0.44531,0.23047 0.90234,0.23047 h 1.1016 V -5e-5 h -1.1016 c -0.83984,0 -1.418,-0.15625 -1.7266,-0.46875 -0.3125,-0.3125 -0.46875,-0.875 -0.46875,-1.6914 V -5.7227 H 0.32416 v -0.83984 h 0.79297 v -1.8633 z"
                 id="path416" /></g><g
               transform="translate(217.94,317.99)"
               id="g422"><path
                 d="m 5.9531,-4.043 c 0,-0.57812 -0.13281,-1.0078 -0.375,-1.3203 -0.25,-0.30078 -0.60938,-0.45703 -1.0781,-0.45703 -0.32422,0 -0.63672,0.085937 -0.92578,0.25391 -0.28516,0.16797 -0.55078,0.39453 -0.76562,0.70703 -0.23047,0.3125 -0.41016,0.69531 -0.53906,1.1289 -0.13281,0.42969 -0.19531,0.86328 -0.19531,1.293 0,0.55469 0.12109,0.97266 0.375,1.2617 0.23828,0.30078 0.59766,0.44531 1.0664,0.44531 0.33594,0 0.64844,-0.074219 0.9375,-0.24219 0.28516,-0.15625 0.53906,-0.38281 0.75391,-0.69531 0.21875,-0.3125 0.39844,-0.69531 0.53906,-1.1289 0.13281,-0.42969 0.20703,-0.85156 0.20703,-1.2461 z M 2.6172,-5.5664 c 0.28516,-0.375 0.62109,-0.66016 1.0195,-0.85547 0.38281,-0.19141 0.82812,-0.29688 1.3086,-0.29688 0.67188,0 1.1875,0.22656 1.5586,0.66016 0.37109,0.44141 0.5625,1.0547 0.5625,1.8477 0,0.64844 -0.11719,1.2695 -0.34766,1.8594 -0.23828,0.58594 -0.5625,1.1172 -0.99609,1.5703 -0.28516,0.3125 -0.62109,0.55469 -0.98438,0.71094 -0.35938,0.14062 -0.74219,0.22656 -1.1367,0.22656 -0.46875,0 -0.86719,-0.097656 -1.1758,-0.27734 C 2.11327,-0.31244 1.87108,-0.6015 1.71483,-0.98431 l -0.67188,3.4688 h -1.0664 l 1.75,-9.0469 h 1.082 z"
                 id="path420" /></g><g
               transform="translate(225.55,319.96)"
               id="g426"><path
                 d="M 5.0664,-5.9219 4.90624,-5.11721 C 4.6289,-5.25783 4.35155,-5.36721 4.08202,-5.44143 3.81249,-5.519555 3.54296,-5.56252 3.29296,-5.56252 c -0.49609,0 -0.89062,0.10938 -1.1836,0.32812 -0.29688,0.21875 -0.4375,0.50391 -0.4375,0.85938 0,0.19922 0.050781,0.35156 0.16016,0.45312 0.10938,0.10938 0.38672,0.21875 0.83984,0.33594 l 0.49609,0.125 c 0.55469,0.15234 0.94922,0.33594 1.168,0.55469 0.21878,0.21875 0.32422,0.52734 0.32422,0.93359 0,0.62109 -0.24219,1.1172 -0.73047,1.5039 C 3.44532,-0.08597 2.8047,0.10934 2.0156,0.10934 1.68748,0.10934 1.35935,0.074184 1.03122,0.01559 0.707,-0.043004 0.37888,-0.13285 0.05075,-0.26957 l 0.16797,-0.85547 c 0.30078,0.19141 0.60547,0.33594 0.90625,0.42969 0.30469,0.097656 0.61328,0.14062 0.91797,0.14062 0.51172,0 0.92188,-0.10937 1.2422,-0.34375 0.30859,-0.22656 0.46875,-0.53125 0.46875,-0.89844 0,-0.24609 -0.066406,-0.42969 -0.19141,-0.55469 C 3.437476,-2.47661 3.16795,-2.5938 2.7617,-2.70317 L 2.26951,-2.83208 C 1.69529,-2.9727 1.30857,-3.14067 1.10931,-3.33599 0.89837,-3.5274 0.79681,-3.79693 0.79681,-4.14849 c 0,-0.60547 0.23438,-1.1094 0.70703,-1.4961 0.46875,-0.38672 1.0742,-0.58984 1.832,-0.58984 0.28516,0 0.57812,0.027344 0.86328,0.078125 0.28516,0.050781 0.58203,0.13281 0.86719,0.23438 z"
                 id="path424" /></g></g></g><path
           transform="matrix(1,0,0,-1,0,329.07)"
           d="m 47.105,61.034 h -3.5"
           fill="none"
           stroke="#000000"
           stroke-linejoin="round"
           stroke-miterlimit="10"
           stroke-width="0.8"
           id="path432" /><g
           transform="matrix(1.1,0,0,1.1,-3.2044,-26.819)"
           id="g446"><g
             transform="translate(24.2,271.83)"
             id="g436"><path
               d="m 3.1797,-6.6406 c -0.50781,0 -0.89063,0.25 -1.1484,0.75 -0.26172,0.5 -0.38281,1.25 -0.38281,2.25 0,1 0.12109,1.75 0.38281,2.25 0.25781,0.5 0.64062,0.75 1.1484,0.75 0.51172,0 0.89062,-0.25 1.1484,-0.75 0.25,-0.5 0.38281,-1.25 0.38281,-2.25 0,-1 -0.13281,-1.75 -0.38281,-2.25 -0.25781,-0.5 -0.63672,-0.75 -1.1484,-0.75 z m 0,-0.78125 c 0.80859,0 1.4297,0.33203 1.8711,0.97266 0.42969,0.64844 0.64844,1.5898 0.64844,2.8086 0,1.2305 -0.21875,2.1719 -0.64844,2.8125 -0.44141,0.63672 -1.0625,0.95703 -1.8789,0.95703 -0.82031,0 -1.4414,-0.32031 -1.8711,-0.95703 -0.42969,-0.64062 -0.64062,-1.582 -0.64062,-2.8125 0,-1.2188 0.21094,-2.1602 0.64062,-2.8086 0.42969,-0.64062 1.0586,-0.97266 1.8789,-0.97266 z"
               id="path434" /></g><g
             transform="translate(30.56,271.83)"
             id="g440"><path
               d="M 1.0703,-1.2383 H 2.1015 V 0 H 1.0703 Z"
               id="path438" /></g><g
             transform="translate(33.74,271.83)"
             id="g444"><path
               d="m 1.0781,-7.2891 h 3.8711 v 0.82812 H 1.9804 v 1.7891 c 0.14062,-0.046875 0.28906,-0.089844 0.42969,-0.10938 0.14063,-0.019536 0.28906,-0.039062 0.42969,-0.039062 0.80859,0 1.4492,0.23047 1.9297,0.67187 0.48047,0.44922 0.71875,1.0469 0.71875,1.8086 0,0.78906 -0.25,1.3984 -0.73828,1.8281 -0.48828,0.43359 -1.1797,0.64062 -2.0586,0.64062 -0.3125,0 -0.62109,-0.027344 -0.94141,-0.070312 -0.32031,-0.046875 -0.64062,-0.11719 -0.98047,-0.23047 v -0.98828 c 0.28906,0.16016 0.58984,0.28125 0.91016,0.35938 0.30859,0.082031 0.64062,0.10938 0.99219,0.10938 0.55859,0 1.0078,-0.13672 1.3398,-0.4375 0.31641,-0.30078 0.48828,-0.69922 0.48828,-1.2109 0,-0.5 -0.17188,-0.89844 -0.48828,-1.1992 -0.33203,-0.30078 -0.78125,-0.44922 -1.3398,-0.44922 -0.26172,0 -0.53125,0.027343 -0.79297,0.089843 -0.25781,0.058594 -0.52734,0.14844 -0.80078,0.26953 z"
               id="path442" /></g></g><path
           transform="matrix(1,0,0,-1,0,329.07)"
           d="m 47.105,111.43 h -3.5"
           fill="none"
           stroke="#000000"
           stroke-linejoin="round"
           stroke-miterlimit="10"
           stroke-width="0.8"
           id="path448" /><g
           transform="matrix(1.1,0,0,1.1,-3.2165,-21.779)"
           id="g462"><g
             transform="translate(24.2,221.43)"
             id="g452"><path
               d="m 3.1797,-6.6406 c -0.50781,0 -0.89063,0.25 -1.1484,0.75 -0.26172,0.5 -0.38281,1.25 -0.38281,2.25 0,1 0.12109,1.75 0.38281,2.25 0.25781,0.5 0.64062,0.75 1.1484,0.75 0.51172,0 0.89062,-0.25 1.1484,-0.75 0.25,-0.5 0.38281,-1.25 0.38281,-2.25 0,-1 -0.13281,-1.75 -0.38281,-2.25 -0.25781,-0.5 -0.63672,-0.75 -1.1484,-0.75 z m 0,-0.78125 c 0.80859,0 1.4297,0.33203 1.8711,0.97266 0.42969,0.64844 0.64844,1.5898 0.64844,2.8086 0,1.2305 -0.21875,2.1719 -0.64844,2.8125 -0.44141,0.63672 -1.0625,0.95703 -1.8789,0.95703 -0.82031,0 -1.4414,-0.32031 -1.8711,-0.95703 -0.42969,-0.64062 -0.64062,-1.582 -0.64062,-2.8125 0,-1.2188 0.21094,-2.1602 0.64062,-2.8086 0.42969,-0.64062 1.0586,-0.97266 1.8789,-0.97266 z"
               id="path450" /></g><g
             transform="translate(30.56,221.43)"
             id="g456"><path
               d="M 1.0703,-1.2383 H 2.1015 V 0 H 1.0703 Z"
               id="path454" /></g><g
             transform="translate(33.74,221.43)"
             id="g460"><path
               d="m 3.3008,-4.0391 c -0.44141,0 -0.78906,0.16016 -1.0508,0.46094 -0.26172,0.29688 -0.39062,0.71875 -0.39062,1.2383 0,0.53125 0.12891,0.94922 0.39062,1.25 0.26172,0.30078 0.60938,0.44922 1.0508,0.44922 0.4375,0 0.78906,-0.14844 1.0508,-0.44922 0.25781,-0.30078 0.38672,-0.71875 0.38672,-1.25 0,-0.51953 -0.12891,-0.94141 -0.38672,-1.2383 C 4.08988,-3.87894 3.73832,-4.0391 3.3008,-4.0391 Z m 1.9609,-3.0898 v 0.89844 c -0.25,-0.12109 -0.5,-0.21094 -0.75,-0.26953 -0.26172,-0.058594 -0.51172,-0.089844 -0.75,-0.089844 -0.66016,0 -1.1602,0.21875 -1.5,0.66016 -0.33984,0.44141 -0.54297,1.1094 -0.58203,1.9883 0.19141,-0.27734 0.42969,-0.5 0.71875,-0.64844 0.29297,-0.14844 0.61328,-0.23047 0.96094,-0.23047 0.73047,0 1.3125,0.23047 1.7305,0.67187 0.42188,0.4375 0.64062,1.0469 0.64062,1.8086 0,0.75 -0.23047,1.3516 -0.67188,1.8008 -0.4375,0.44922 -1.0273,0.66797 -1.7578,0.66797 -0.83984,0 -1.4922,-0.32031 -1.9297,-0.95703 -0.44922,-0.64062 -0.67188,-1.582 -0.67188,-2.8125 0,-1.1484 0.26953,-2.0703 0.82031,-2.75 0.53906,-0.67969 1.2812,-1.0312 2.1992,-1.0312 0.24219,0 0.49219,0.03125 0.75,0.070313 0.25,0.050781 0.51172,0.12109 0.79297,0.22266 z"
               id="path458" /></g></g><path
           transform="matrix(1,0,0,-1,0,329.07)"
           d="m 47.105,161.83 h -3.5"
           fill="none"
           stroke="#000000"
           stroke-linejoin="round"
           stroke-miterlimit="10"
           stroke-width="0.8"
           id="path464" /><g
           transform="matrix(1.1,0,0,1.1,-3.2056,-16.739)"
           id="g478"><g
             transform="translate(24.2,171.03)"
             id="g468"><path
               d="m 3.1797,-6.6406 c -0.50781,0 -0.89063,0.25 -1.1484,0.75 -0.26172,0.5 -0.38281,1.25 -0.38281,2.25 0,1 0.12109,1.75 0.38281,2.25 0.25781,0.5 0.64062,0.75 1.1484,0.75 0.51172,0 0.89062,-0.25 1.1484,-0.75 0.25,-0.5 0.38281,-1.25 0.38281,-2.25 0,-1 -0.13281,-1.75 -0.38281,-2.25 -0.25781,-0.5 -0.63672,-0.75 -1.1484,-0.75 z m 0,-0.78125 c 0.80859,0 1.4297,0.33203 1.8711,0.97266 0.42969,0.64844 0.64844,1.5898 0.64844,2.8086 0,1.2305 -0.21875,2.1719 -0.64844,2.8125 -0.44141,0.63672 -1.0625,0.95703 -1.8789,0.95703 -0.82031,0 -1.4414,-0.32031 -1.8711,-0.95703 -0.42969,-0.64062 -0.64062,-1.582 -0.64062,-2.8125 0,-1.2188 0.21094,-2.1602 0.64062,-2.8086 0.42969,-0.64062 1.0586,-0.97266 1.8789,-0.97266 z"
               id="path466" /></g><g
             transform="translate(30.56,171.03)"
             id="g472"><path
               d="M 1.0703,-1.2383 H 2.1015 V 0 H 1.0703 Z"
               id="path470" /></g><g
             transform="translate(33.74,171.03)"
             id="g476"><path
               d="m 0.82031,-7.2891 h 4.6914 v 0.41797 L 2.85941,-3e-5 h -1.0312 l 2.4922,-6.4609 h -3.5 z"
               id="path474" /></g></g><path
           transform="matrix(1,0,0,-1,0,329.07)"
           d="m 47.105,212.23 h -3.5"
           fill="none"
           stroke="#000000"
           stroke-linejoin="round"
           stroke-miterlimit="10"
           stroke-width="0.8"
           id="path480" /><g
           transform="matrix(1.1,0,0,1.1,-3.214,-11.699)"
           id="g494"><g
             transform="translate(24.2,120.63)"
             id="g484"><path
               d="m 3.1797,-6.6406 c -0.50781,0 -0.89063,0.25 -1.1484,0.75 -0.26172,0.5 -0.38281,1.25 -0.38281,2.25 0,1 0.12109,1.75 0.38281,2.25 0.25781,0.5 0.64062,0.75 1.1484,0.75 0.51172,0 0.89062,-0.25 1.1484,-0.75 0.25,-0.5 0.38281,-1.25 0.38281,-2.25 0,-1 -0.13281,-1.75 -0.38281,-2.25 -0.25781,-0.5 -0.63672,-0.75 -1.1484,-0.75 z m 0,-0.78125 c 0.80859,0 1.4297,0.33203 1.8711,0.97266 0.42969,0.64844 0.64844,1.5898 0.64844,2.8086 0,1.2305 -0.21875,2.1719 -0.64844,2.8125 -0.44141,0.63672 -1.0625,0.95703 -1.8789,0.95703 -0.82031,0 -1.4414,-0.32031 -1.8711,-0.95703 -0.42969,-0.64062 -0.64062,-1.582 -0.64062,-2.8125 0,-1.2188 0.21094,-2.1602 0.64062,-2.8086 0.42969,-0.64062 1.0586,-0.97266 1.8789,-0.97266 z"
               id="path482" /></g><g
             transform="translate(30.56,120.63)"
             id="g488"><path
               d="M 1.0703,-1.2383 H 2.1015 V 0 H 1.0703 Z"
               id="path486" /></g><g
             transform="translate(33.74,120.63)"
             id="g492"><path
               d="m 3.1797,-3.4609 c -0.46875,0 -0.83984,0.13281 -1.1094,0.38281 -0.26953,0.25 -0.39844,0.58984 -0.39844,1.0273 0,0.44141 0.12891,0.78906 0.39844,1.0391 0.26953,0.25 0.64063,0.37109 1.1094,0.37109 0.46094,0 0.83203,-0.12109 1.1016,-0.37891 0.26953,-0.25 0.41016,-0.58984 0.41016,-1.0312 0,-0.4375 -0.14062,-0.77734 -0.40234,-1.0273 -0.26953,-0.25 -0.64062,-0.38281 -1.1094,-0.38281 z M 2.19142,-3.87887 c -0.42188,-0.10156 -0.75,-0.30078 -0.99219,-0.58984 -0.23828,-0.29297 -0.34766,-0.64062 -0.34766,-1.0625 0,-0.57812 0.19922,-1.0391 0.61719,-1.3789 0.41016,-0.33984 0.98047,-0.51172 1.7109,-0.51172 0.71875,0 1.2891,0.17188 1.7109,0.51172 0.41016,0.33984 0.62109,0.80078 0.62109,1.3789 0,0.42188 -0.12109,0.76953 -0.36328,1.0625 -0.23828,0.28906 -0.55859,0.48828 -0.97656,0.58984 0.46875,0.10938 0.83984,0.32812 1.1094,0.64844 0.25781,0.32031 0.39844,0.71875 0.39844,1.1797 0,0.71094 -0.21875,1.25 -0.64844,1.6211 -0.44141,0.37891 -1.0625,0.55859 -1.8594,0.55859 -0.80078,0 -1.4219,-0.17969 -1.8516,-0.55859 -0.42969,-0.37109 -0.64062,-0.91016 -0.64062,-1.6211 0,-0.46094 0.12891,-0.85938 0.39844,-1.1797 0.26172,-0.32031 0.63281,-0.53906 1.1133,-0.64844 z m -0.36328,-1.5625 c 0,0.38281 0.11328,0.67969 0.35156,0.89062 0.24219,0.21094 0.57031,0.3125 1,0.3125 0.42187,0 0.75,-0.10156 0.99219,-0.3125 0.23828,-0.21094 0.35938,-0.50781 0.35938,-0.89062 0,-0.37891 -0.12109,-0.66797 -0.35938,-0.87891 C 3.9297,-6.53122 3.60158,-6.64059 3.1797,-6.64059 c -0.42969,0 -0.75781,0.10938 -1,0.32031 -0.23828,0.21094 -0.35156,0.5 -0.35156,0.87891 z"
               id="path490" /></g></g><path
           transform="matrix(1,0,0,-1,0,329.07)"
           d="m 47.105,262.63 h -3.5"
           fill="none"
           stroke="#000000"
           stroke-linejoin="round"
           stroke-miterlimit="10"
           stroke-width="0.8"
           id="path496" /><g
           transform="matrix(1.1,0,0,1.1,-3.213,-6.6587)"
           id="g510"><g
             transform="translate(24.2,70.234)"
             id="g500"><path
               d="m 3.1797,-6.6406 c -0.50781,0 -0.89063,0.25 -1.1484,0.75 -0.26172,0.5 -0.38281,1.25 -0.38281,2.25 0,1 0.12109,1.75 0.38281,2.25 0.25781,0.5 0.64062,0.75 1.1484,0.75 0.51172,0 0.89062,-0.25 1.1484,-0.75 0.25,-0.5 0.38281,-1.25 0.38281,-2.25 0,-1 -0.13281,-1.75 -0.38281,-2.25 -0.25781,-0.5 -0.63672,-0.75 -1.1484,-0.75 z m 0,-0.78125 c 0.80859,0 1.4297,0.33203 1.8711,0.97266 0.42969,0.64844 0.64844,1.5898 0.64844,2.8086 0,1.2305 -0.21875,2.1719 -0.64844,2.8125 -0.44141,0.63672 -1.0625,0.95703 -1.8789,0.95703 -0.82031,0 -1.4414,-0.32031 -1.8711,-0.95703 -0.42969,-0.64062 -0.64062,-1.582 -0.64062,-2.8125 0,-1.2188 0.21094,-2.1602 0.64062,-2.8086 0.42969,-0.64062 1.0586,-0.97266 1.8789,-0.97266 z"
               id="path498" /></g><g
             transform="translate(30.56,70.234)"
             id="g504"><path
               d="M 1.0703,-1.2383 H 2.1015 V 0 H 1.0703 Z"
               id="path502" /></g><g
             transform="translate(33.74,70.234)"
             id="g508"><path
               d="m 1.1016,-0.14844 v -0.90234 c 0.23828,0.12109 0.48828,0.21094 0.75,0.26953 0.25,0.0625 0.5,0.089844 0.75,0.089844 0.63672,0 1.1367,-0.20703 1.4766,-0.64844 0.34375,-0.44141 0.54297,-1.1016 0.60156,-2 -0.19922,0.28125 -0.44141,0.5 -0.71875,0.64844 -0.28906,0.15234 -0.60938,0.22266 -0.96094,0.22266 -0.73828,0 -1.3203,-0.22266 -1.7383,-0.66016 -0.42188,-0.44141 -0.63281,-1.043 -0.63281,-1.8125 0,-0.73828 0.22266,-1.3398 0.66016,-1.7969 0.44141,-0.45312 1.0312,-0.68359 1.7695,-0.68359 0.83984,0 1.4922,0.33203 1.9297,0.97266 0.44141,0.64844 0.67188,1.5898 0.67188,2.8086 0,1.1602 -0.28125,2.0703 -0.82031,2.75 -0.55078,0.67969 -1.2812,1.0195 -2.1992,1.0195 -0.25,0 -0.5,-0.027344 -0.75,-0.070312 -0.26172,-0.039063 -0.51953,-0.10938 -0.78906,-0.20703 z m 1.957,-3.0898 c 0.44141,0 0.79297,-0.15234 1.0508,-0.45312 0.26172,-0.29688 0.39062,-0.71875 0.39062,-1.25 0,-0.51953 -0.12891,-0.9375 -0.39062,-1.2383 C 3.85159,-6.48044 3.50002,-6.6406 3.0586,-6.6406 c -0.4375,0 -0.78906,0.16016 -1.0469,0.46094 -0.26172,0.30078 -0.39062,0.71875 -0.39062,1.2383 0,0.53125 0.12891,0.95312 0.39062,1.25 0.25781,0.30078 0.60938,0.45312 1.0469,0.45312 z"
               id="path506" /></g></g><path
           transform="matrix(1,0,0,-1,0,329.07)"
           d="m 47.105,313.03 h -3.5"
           fill="none"
           stroke="#000000"
           stroke-linejoin="round"
           stroke-miterlimit="10"
           stroke-width="0.8"
           id="path512" /><g
           transform="matrix(1.1,0,0,1.1,-3.237,-1.6187)"
           id="g526"><g
             transform="translate(24.2,19.834)"
             id="g516"><path
               d="m 1.2383,-0.82812 h 1.6133 v -5.5625 l -1.75,0.35156 V -6.9414 l 1.7383,-0.34766 h 0.98828 v 6.4609 h 1.6133 V -4e-5 h -4.2031 z"
               id="path514" /></g><g
             transform="translate(30.56,19.834)"
             id="g520"><path
               d="M 1.0703,-1.2383 H 2.1015 V 0 H 1.0703 Z"
               id="path518" /></g><g
             transform="translate(33.74,19.834)"
             id="g524"><path
               d="m 3.1797,-6.6406 c -0.50781,0 -0.89063,0.25 -1.1484,0.75 -0.26172,0.5 -0.38281,1.25 -0.38281,2.25 0,1 0.12109,1.75 0.38281,2.25 0.25781,0.5 0.64062,0.75 1.1484,0.75 0.51172,0 0.89062,-0.25 1.1484,-0.75 0.25,-0.5 0.38281,-1.25 0.38281,-2.25 0,-1 -0.13281,-1.75 -0.38281,-2.25 -0.25781,-0.5 -0.63672,-0.75 -1.1484,-0.75 z m 0,-0.78125 c 0.80859,0 1.4297,0.33203 1.8711,0.97266 0.42969,0.64844 0.64844,1.5898 0.64844,2.8086 0,1.2305 -0.21875,2.1719 -0.64844,2.8125 -0.44141,0.63672 -1.0625,0.95703 -1.8789,0.95703 -0.82031,0 -1.4414,-0.32031 -1.8711,-0.95703 -0.42969,-0.64062 -0.64062,-1.582 -0.64062,-2.8125 0,-1.2188 0.21094,-2.1602 0.64062,-2.8086 0.42969,-0.64062 1.0586,-0.97266 1.8789,-0.97266 z"
               id="path522" /></g></g><g
           id="g528" /><g
           transform="matrix(1.21,0,0,1.21,-2.7314,-31.374)"
           id="g612"><g
             id="g610"><g
               transform="translate(16.325,209.6)"
               id="g532"><path
                 d="M -8.7461,-1.1758 V -2.3633 H 0 v 1.1875 z"
                 id="path530" /></g><g
               transform="translate(16.325,206.06)"
               id="g536"><path
                 d="M -5.5664,-5.4492 H -9.1211 V -6.5273 H 0 v 1.0781 h -0.98438 c 0.39453,0.23047 0.68359,0.51562 0.86328,0.86328 0.17969,0.35156 0.27734,0.75781 0.27734,1.2383 0,0.79297 -0.3125,1.4414 -0.9375,1.9453 -0.62109,0.50391 -1.4609,0.74219 -2.4961,0.74219 -1.0312,0 -1.8594,-0.23828 -2.4961,-0.74219 -0.62109,-0.50391 -0.94531,-1.1523 -0.94531,-1.9453 0,-0.48047 0.09375,-0.88672 0.28516,-1.2383 0.19531,-0.34766 0.48047,-0.63281 0.86719,-0.86328 z m 2.2891,3.6719 c 0.79297,0 1.418,-0.15625 1.875,-0.48047 0.45312,-0.32031 0.67188,-0.76563 0.67188,-1.3438 0,-0.57422 -0.21875,-1.0195 -0.67188,-1.3555 -0.45703,-0.32422 -1.082,-0.49219 -1.875,-0.49219 -0.78906,0 -1.4023,0.16797 -1.8594,0.49219 -0.45703,0.33594 -0.68359,0.78125 -0.68359,1.3555 0,0.57812 0.22656,1.0234 0.68359,1.3438 0.45703,0.32422 1.0703,0.48047 1.8594,0.48047 z"
                 id="path534" /></g><g
               transform="translate(16.325,198.44)"
               id="g540"><path
                 d="m -3.5508,-6.7422 h 0.52734 v 4.9531 c 0.74219,-0.046876 1.3203,-0.26172 1.7031,-0.67188 0.38281,-0.39453 0.57812,-0.94531 0.57812,-1.668 0,-0.40625 -0.050781,-0.81641 -0.14453,-1.1992 -0.097656,-0.38281 -0.25391,-0.78125 -0.46875,-1.1641 h 1.0195 c 0.16797,0.38281 0.30078,0.78125 0.37109,1.1875 0.074219,0.41016 0.12109,0.82813 0.12109,1.2383 0,1.0547 -0.30078,1.8828 -0.89844,2.4961 -0.60156,0.60937 -1.4297,0.91016 -2.4727,0.91016 -1.0703,0 -1.9219,-0.28906 -2.5586,-0.86328 -0.62109,-0.57812 -0.94531,-1.3672 -0.94531,-2.3516 0,-0.89062 0.28516,-1.5859 0.85156,-2.1016 0.57422,-0.50391 1.3438,-0.76563 2.3164,-0.76563 z m -0.3125,1.0781 c -0.58984,0.011718 -1.0586,0.17969 -1.418,0.49219 -0.34766,0.32422 -0.52734,0.75781 -0.52734,1.2852 0,0.59766 0.17969,1.0781 0.51562,1.4375 0.33594,0.35938 0.81641,0.57812 1.4297,0.625 z"
                 id="path538" /></g><g
               transform="translate(16.325,191.06)"
               id="g544"><path
                 d="M -3.9609,-6.5898 H 0 v 1.082 h -3.9258 c -0.62109,0 -1.0781,0.13281 -1.3906,0.37109 -0.3125,0.24219 -0.46875,0.60156 -0.46875,1.082 0,0.58594 0.19141,1.043 0.56641,1.3789 0.37109,0.33594 0.875,0.50391 1.5117,0.50391 h 3.707 v 1.0781 h -6.5625 v -1.0781 h 1.0195 c -0.38672,-0.25391 -0.68359,-0.55078 -0.87891,-0.91406 -0.19141,-0.34766 -0.29688,-0.75391 -0.29688,-1.2109 0,-0.74219 0.23828,-1.3203 0.70703,-1.7031 0.46875,-0.3828 1.1523,-0.58984 2.0508,-0.58984 z"
                 id="path542" /></g><g
               transform="translate(16.325,183.45)"
               id="g548"><path
                 d="m -8.4258,-2.1953 h 1.8633 v -2.2188 h 0.83984 v 2.2188 h 3.5625 c 0.53906,0 0.88672,-0.074219 1.0312,-0.21484 0.15625,-0.14453 0.23047,-0.44531 0.23047,-0.90234 v -1.1016 H -5e-5 v 1.1016 c 0,0.83984 -0.15625,1.418 -0.46875,1.7266 -0.3125,0.3125 -0.875,0.46875 -1.6914,0.46875 h -3.5625 v 0.79297 h -0.83984 v -0.79297 h -1.8633 z"
                 id="path546" /></g><g
               transform="translate(16.325,178.75)"
               id="g552"><path
                 d="M -6.5625,-1.1289 V -2.207 H 0 v 1.0781 z m -2.5586,0 V -2.207 h 1.3672 v 1.0781 z"
                 id="path550" /></g><g
               transform="translate(16.325,175.41)"
               id="g556"><path
                 d="m -9.1211,-4.4531 h 0.90234 v 1.0312 c 0,0.38672 0.082031,0.66016 0.23828,0.80469 0.15625,0.15625 0.43359,0.23047 0.83984,0.23047 h 0.57812 v -1.7773 h 0.83984 v 1.7773 H 2e-5 v 1.0781 h -5.7227 v 1.0312 h -0.83984 v -1.0312 h -0.45703 c -0.71875,0 -1.2617,-0.16797 -1.5977,-0.50391 -0.33594,-0.33594 -0.50391,-0.875 -0.50391,-1.6211 z"
                 id="path554" /></g><g
               transform="translate(16.325,171.19)"
               id="g560"><path
                 d="M -6.5625,-1.1289 V -2.207 H 0 v 1.0781 z m -2.5586,0 V -2.207 h 1.3672 v 1.0781 z"
                 id="path558" /></g><g
               transform="translate(16.325,167.85)"
               id="g564"><path
                 d="m -6.3125,-5.8555 h 1.0078 c -0.16797,0.3125 -0.28906,0.61328 -0.37109,0.92188 -0.085938,0.3125 -0.13281,0.61328 -0.13281,0.92578 0,0.69531 0.23047,1.2461 0.67188,1.6328 0.44531,0.38281 1.0703,0.57422 1.8594,0.57422 0.80469,0 1.4297,-0.19141 1.875,-0.57422 0.44141,-0.38672 0.66016,-0.9375 0.66016,-1.6328 0,-0.3125 -0.039062,-0.61328 -0.12109,-0.92578 C -0.949188,-5.24221 -1.07809,-5.543 -1.24606,-5.8555 h 0.99219 c 0.14453,0.3125 0.25391,0.625 0.3125,0.93359 0.0625,0.32422 0.097656,0.67578 0.097656,1.0352 0,0.98438 -0.30078,1.7734 -0.92578,2.3516 -0.60938,0.58594 -1.4492,0.875 -2.5078,0.875 -1.0664,0 -1.9062,-0.28906 -2.5195,-0.875 -0.60938,-0.58984 -0.92188,-1.3945 -0.92188,-2.4258 0,-0.33594 0.035156,-0.66016 0.10547,-0.97266 0.074219,-0.30859 0.16797,-0.62109 0.30078,-0.92188 z"
                 id="path562" /></g><g
               transform="translate(16.325,161.26)"
               id="g568"><path
                 d="m -3.3008,-4.1172 c 0,0.87891 0.10938,1.4766 0.30078,1.8125 0.20312,0.33594 0.53906,0.50391 1.0195,0.50391 0.38281,0 0.69531,-0.12109 0.91406,-0.37109 0.22656,-0.25391 0.33594,-0.60156 0.33594,-1.0312 0,-0.60156 -0.20703,-1.082 -0.63672,-1.4414 -0.42187,-0.35938 -0.98437,-0.53906 -1.6914,-0.53906 H -3.30083 Z M -3.74221,-6.2656 H -1e-5 v 1.082 H -0.9961 c 0.40625,0.25 0.69531,0.5625 0.875,0.92188 0.17969,0.36328 0.27734,0.81641 0.27734,1.3477 0,0.67187 -0.17969,1.2109 -0.55078,1.6055 -0.375,0.39844 -0.87891,0.58984 -1.5117,0.58984 -0.73438,0 -1.2852,-0.24219 -1.668,-0.74609 -0.375,-0.49219 -0.56641,-1.2227 -0.56641,-2.207 v -1.5117 h -0.10547 c -0.49219,0 -0.87891,0.16797 -1.1523,0.49219 -0.26562,0.32422 -0.41016,0.78125 -0.41016,1.3672 0,0.38281 0.046875,0.74609 0.14453,1.1055 0.097656,0.35938 0.22656,0.69531 0.39453,1.0195 h -0.99609 c -0.14062,-0.38672 -0.26172,-0.76953 -0.33594,-1.1406 -0.070313,-0.37109 -0.11719,-0.73047 -0.11719,-1.0938 0,-0.94531 0.25,-1.6562 0.74219,-2.1211 0.49219,-0.46875 1.2383,-0.71094 2.2344,-0.71094 z"
                 id="path566" /></g><g
               transform="translate(16.325,153.9)"
               id="g572"><path
                 d="m -8.4258,-2.1953 h 1.8633 v -2.2188 h 0.83984 v 2.2188 h 3.5625 c 0.53906,0 0.88672,-0.074219 1.0312,-0.21484 0.15625,-0.14453 0.23047,-0.44531 0.23047,-0.90234 v -1.1016 H -5e-5 v 1.1016 c 0,0.83984 -0.15625,1.418 -0.46875,1.7266 -0.3125,0.3125 -0.875,0.46875 -1.6914,0.46875 h -3.5625 v 0.79297 h -0.83984 v -0.79297 h -1.8633 z"
                 id="path570" /></g><g
               transform="translate(16.325,149.2)"
               id="g576"><path
                 d="M -6.5625,-1.1289 V -2.207 H 0 v 1.0781 z m -2.5586,0 V -2.207 h 1.3672 v 1.0781 z"
                 id="path574" /></g><g
               transform="translate(16.325,145.86)"
               id="g580"><path
                 d="m -5.8086,-3.6719 c 0,0.57422 0.23047,1.0312 0.68359,1.3672 0.45703,0.33594 1.0703,0.50391 1.8477,0.50391 0.79297,0 1.4062,-0.15625 1.8633,-0.49219 0.45312,-0.33594 0.67187,-0.79297 0.67187,-1.3789 0,-0.57422 -0.21875,-1.0312 -0.67187,-1.3672 -0.45703,-0.33594 -1.0703,-0.50391 -1.8633,-0.50391 -0.76562,0 -1.3906,0.16797 -1.8477,0.50391 -0.45312,0.33594 -0.68359,0.79297 -0.68359,1.3672 z m -0.91016,0 c 0,-0.9375 0.3125,-1.668 0.91016,-2.207 0.61328,-0.52734 1.4531,-0.80469 2.5312,-0.80469 1.082,0 1.9219,0.27734 2.5195,0.80469 0.61328,0.53906 0.91406,1.2695 0.91406,2.207 0,0.94922 -0.30078,1.6914 -0.91406,2.2188 -0.59766,0.52734 -1.4375,0.79297 -2.5195,0.79297 -1.0781,0 -1.918,-0.26562 -2.5312,-0.79297 -0.59766,-0.52734 -0.91016,-1.2695 -0.91016,-2.2188 z"
                 id="path578" /></g><g
               transform="translate(16.325,138.52)"
               id="g584"><path
                 d="M -3.9609,-6.5898 H 0 v 1.082 h -3.9258 c -0.62109,0 -1.0781,0.13281 -1.3906,0.37109 -0.3125,0.24219 -0.46875,0.60156 -0.46875,1.082 0,0.58594 0.19141,1.043 0.56641,1.3789 0.37109,0.33594 0.875,0.50391 1.5117,0.50391 h 3.707 v 1.0781 h -6.5625 v -1.0781 h 1.0195 c -0.38672,-0.25391 -0.68359,-0.55078 -0.87891,-0.91406 -0.19141,-0.34766 -0.29688,-0.75391 -0.29688,-1.2109 0,-0.74219 0.23828,-1.3203 0.70703,-1.7031 0.46875,-0.3828 1.1523,-0.58984 2.0508,-0.58984 z"
                 id="path582" /></g><g
               transform="translate(16.325,127.1)"
               id="g588"><path
                 d="m -8.4258,-2.1953 h 1.8633 v -2.2188 h 0.83984 v 2.2188 h 3.5625 c 0.53906,0 0.88672,-0.074219 1.0312,-0.21484 0.15625,-0.14453 0.23047,-0.44531 0.23047,-0.90234 v -1.1016 H -5e-5 v 1.1016 c 0,0.83984 -0.15625,1.418 -0.46875,1.7266 -0.3125,0.3125 -0.875,0.46875 -1.6914,0.46875 h -3.5625 v 0.79297 h -0.83984 v -0.79297 h -1.8633 z"
                 id="path586" /></g><g
               transform="translate(16.325,122.4)"
               id="g592"><path
                 d="m -3.5508,-6.7422 h 0.52734 v 4.9531 c 0.74219,-0.046876 1.3203,-0.26172 1.7031,-0.67188 0.38281,-0.39453 0.57812,-0.94531 0.57812,-1.668 0,-0.40625 -0.050781,-0.81641 -0.14453,-1.1992 -0.097656,-0.38281 -0.25391,-0.78125 -0.46875,-1.1641 h 1.0195 c 0.16797,0.38281 0.30078,0.78125 0.37109,1.1875 0.074219,0.41016 0.12109,0.82813 0.12109,1.2383 0,1.0547 -0.30078,1.8828 -0.89844,2.4961 -0.60156,0.60937 -1.4297,0.91016 -2.4727,0.91016 -1.0703,0 -1.9219,-0.28906 -2.5586,-0.86328 -0.62109,-0.57812 -0.94531,-1.3672 -0.94531,-2.3516 0,-0.89062 0.28516,-1.5859 0.85156,-2.1016 0.57422,-0.50391 1.3438,-0.76563 2.3164,-0.76563 z m -0.3125,1.0781 c -0.58984,0.011718 -1.0586,0.17969 -1.418,0.49219 -0.34766,0.32422 -0.52734,0.75781 -0.52734,1.2852 0,0.59766 0.17969,1.0781 0.51562,1.4375 0.33594,0.35938 0.81641,0.57812 1.4297,0.625 z"
                 id="path590" /></g><g
               transform="translate(16.325,115.01)"
               id="g596"><path
                 d="m -6.3711,-5.3164 h 1.0195 c -0.14453,0.3125 -0.26563,0.625 -0.34766,0.94922 -0.074219,0.33594 -0.12109,0.67188 -0.12109,1.0195 0,0.53906 0.085937,0.94922 0.25391,1.2109 0.16797,0.26562 0.40625,0.39844 0.73047,0.39844 0.25,0 0.44531,-0.097657 0.58984,-0.28906 0.14062,-0.19141 0.28516,-0.57812 0.40625,-1.1523 l 0.082032,-0.37109 c 0.16797,-0.76953 0.41016,-1.3086 0.69922,-1.6328 0.29688,-0.3125 0.71875,-0.48047 1.2461,-0.48047 0.61328,0 1.0938,0.23828 1.4414,0.71875 0.35938,0.48047 0.52734,1.1523 0.52734,1.9922 0,0.35938 -0.035156,0.72266 -0.097656,1.1055 -0.058594,0.38281 -0.15625,0.78125 -0.29687,1.1992 h -1.1172 c 0.21484,-0.39453 0.37109,-0.79297 0.46875,-1.1758 0.10547,-0.38281 0.15625,-0.76953 0.15625,-1.1523 0,-0.50391 -0.085937,-0.89844 -0.25391,-1.1758 -0.16797,-0.26172 -0.41797,-0.40625 -0.74219,-0.40625 -0.28906,0 -0.51563,0.10547 -0.67188,0.29688 -0.15625,0.19531 -0.3125,0.625 -0.45703,1.2969 l -0.085937,0.37109 c -0.14453,0.67188 -0.35938,1.1641 -0.64844,1.4531 -0.28516,0.30078 -0.68359,0.44531 -1.1992,0.44531 -0.60938,0 -1.0898,-0.21484 -1.4258,-0.64844 -0.33594,-0.43359 -0.50391,-1.0547 -0.50391,-1.8711 0,-0.39844 0.035156,-0.76953 0.09375,-1.1289 0.0625,-0.34766 0.14453,-0.67188 0.25391,-0.97266 z"
                 id="path594" /></g><g
               transform="translate(16.325,108.76)"
               id="g600"><path
                 d="m -8.4258,-2.1953 h 1.8633 v -2.2188 h 0.83984 v 2.2188 h 3.5625 c 0.53906,0 0.88672,-0.074219 1.0312,-0.21484 0.15625,-0.14453 0.23047,-0.44531 0.23047,-0.90234 v -1.1016 H -5e-5 v 1.1016 c 0,0.83984 -0.15625,1.418 -0.46875,1.7266 -0.3125,0.3125 -0.875,0.46875 -1.6914,0.46875 h -3.5625 v 0.79297 h -0.83984 v -0.79297 h -1.8633 z"
                 id="path598" /></g><g
               transform="translate(16.325,100.24)"
               id="g604"><path
                 d="m -4.043,-5.9531 c -0.57812,0 -1.0078,0.13281 -1.3203,0.375 -0.30078,0.25 -0.45703,0.60938 -0.45703,1.0781 0,0.32422 0.085937,0.63672 0.25391,0.92578 0.16797,0.28516 0.39453,0.55078 0.70703,0.76562 0.3125,0.23047 0.69531,0.41016 1.1289,0.53906 0.42969,0.13281 0.86328,0.19531 1.293,0.19531 0.55469,0 0.97266,-0.12109 1.2617,-0.375 0.30078,-0.23828 0.44531,-0.59766 0.44531,-1.0664 0,-0.33594 -0.074219,-0.64844 -0.24219,-0.9375 -0.15625,-0.28516 -0.38281,-0.53906 -0.69531,-0.75391 -0.3125,-0.21875 -0.69531,-0.39844 -1.1289,-0.53906 -0.42969,-0.13281 -0.85156,-0.20703 -1.2461,-0.20703 z m -1.5234,3.3359 c -0.375,-0.28516 -0.66016,-0.62109 -0.85547,-1.0195 -0.19141,-0.38281 -0.29688,-0.82812 -0.29688,-1.3086 0,-0.67188 0.22656,-1.1875 0.66016,-1.5586 0.44141,-0.37109 1.0547,-0.5625 1.8477,-0.5625 0.64844,0 1.2695,0.11719 1.8594,0.34766 0.58594,0.23828 1.1172,0.5625 1.5703,0.99609 0.3125,0.28516 0.55469,0.62109 0.71094,0.98438 0.14062,0.35938 0.22656,0.74219 0.22656,1.1367 0,0.46875 -0.097656,0.86719 -0.27734,1.1758 -0.19141,0.3125 -0.48047,0.55469 -0.86328,0.71094 l 3.4688,0.67188 v 1.0664 l -9.0469,-1.75 v -1.082 z"
                 id="path602" /></g><g
               transform="translate(18.294,92.626)"
               id="g608"><path
                 d="M -6.125,-1.418 V -2.25003 L 0,-1.05863 v 0.83203 z"
                 id="path606" /></g></g></g><g
           fill="none"
           stroke="#000000"
           stroke-linecap="square"
           stroke-miterlimit="10"
           id="g620"><path
             transform="matrix(1,0,0,-1,0,329.07)"
             d="m 71.457,313.03 6.0859,-2.5469 5.9609,-2.5469 5.8398,-2.543 5.7148,-2.5469 5.5859,-2.5469 5.4688,-2.543 5.3398,-2.5469 5.2188,-2.5469 5.0898,-2.543 4.9688,-2.5469 4.8476,-2.543 4.7188,-2.5469 4.5977,-2.5469 4.4688,-2.543 4.3477,-2.5469 4.2266,-2.5469 4.0977,-2.543 3.9766,-2.5469 3.8476,-2.5469 3.7266,-2.543 3.6016,-2.5469 3.4805,-2.543 3.3516,-2.5469 3.2305,-2.5469 3.1055,-2.543 2.9805,-2.5469 2.8594,-2.5469 2.7305,-2.543 2.6094,-2.5469 2.4844,-2.5469 2.3594,-2.543 2.2383,-2.5469 2.1094,-2.543 1.9883,-2.5469 1.8633,-2.5469 1.7383,-2.543 1.6172,-2.5469 1.4883,-2.5469 1.3672,-2.543 1.2422,-2.5469 1.1172,-2.5469 0.99609,-2.543 0.86719,-2.5469 0.74609,-2.543 0.6211,-2.5469 0.49609,-2.5469 0.375,-2.543 0.24609,-2.5469 0.125,-2.5469 v -2.543 l -0.125,-2.5469 -0.24609,-2.5469 -0.375,-2.543 -0.49609,-2.5469 -0.6211,-2.543 -0.74609,-2.5469 -0.86719,-2.5469 -0.99609,-2.543 -1.1172,-2.5469 -1.2422,-2.5469 -1.3672,-2.543 -1.4883,-2.5469 -1.6172,-2.5469 -1.7383,-2.543 -1.8633,-2.5469 -1.9883,-2.543 -2.1094,-2.5469 -2.2383,-2.5469 -2.3594,-2.543 -2.4844,-2.5469 -2.6094,-2.5469 -2.7305,-2.543 -2.8594,-2.5469 -2.9805,-2.5469 -3.1055,-2.543 -3.2305,-2.5469 -3.3516,-2.543 -3.4805,-2.5469 -3.6016,-2.5469 -3.7266,-2.543 -3.8476,-2.5469 -3.9766,-2.5469 -4.0977,-2.543 -4.2266,-2.5469 -4.3477,-2.5469 -4.4688,-2.543 -4.5977,-2.5469 -4.7188,-2.543 -4.8476,-2.5469 -4.9688,-2.5469 -5.0898,-2.543 -5.2188,-2.5469 -5.3398,-2.5469 -5.4688,-2.543 -5.5859,-2.5469 -5.7148,-2.5469 -5.8398,-2.543 -5.9609,-2.5469 -6.0859,-2.543"
             stroke-linejoin="round"
             id="path614" /><path
             transform="matrix(1,0,0,-1,0,329.07)"
             d="m 47.105,40.873 v 277.2"
             stroke-width="0.8"
             id="path616" /><path
             transform="matrix(1,0,0,-1,0,329.07)"
             d="m 47.105,40.873 h 267.84"
             stroke-width="0.8"
             id="path618" /></g><g
           id="g622" /></g></g><g
       stroke="#384b86"
       stroke-linecap="round"
       stroke-linejoin="round"
       id="g650"><path
         d="m -15.007,304.21 a 6.7801,6.7801 0 0 1 -6.7275,6.7799 6.7801,6.7801 0 0 1 -6.8318,-6.6747 6.7801,6.7801 0 0 1 6.6216,-6.8834 6.7801,6.7801 0 0 1 6.9345,6.568 z"
         fill="url(#radialGradient16435)"
         stroke-width="0.22647"
         style="fill:url(#radialGradient16435);paint-order:markers fill stroke"
         id="path628" /><g
         id="g648"><g
           stroke-width="0.22647"
           id="g636"><path
             d="m -75.964,328.04 c 0,4.1378 0.23168,7.3028 -3.906,7.3349 -4.1377,0.0321 -11.096,-3.0808 -11.16,-7.2181 -0.0642,-4.1373 5.7982,-9.4356 9.9349,-9.5319 4.1367,-0.0962 4.9991,5.0456 5.1274,9.1814 z"
             fill="url(#radialGradient6297)"
             stop-color="#000000"
             style="font-variation-settings:normal;fill:url(#radialGradient6297);-inkscape-stroke:none;paint-order:markers fill stroke"
             id="path630" /><path
             d="m -22.004,320.82 c -5.6208,0.0725 -10.084,2.641 -9.997,5.753 0.0868,3.1124 4.6926,5.6033 10.315,5.579 5.6229,-0.0241 10.158,-2.5544 10.157,-5.6672 l -0.003,-0.1763 c -0.17535,-3.1107 -4.8498,-5.561 -10.47,-5.4885 z m -0.0326,4.5204 c 1.4762,-0.004 2.9655,0.23413 3.6209,0.38224 -1.9481,0.69291 -6.5275,0.47004 -7.336,0.0498 -0.0313,-0.23376 1.6271,-0.42662 3.7151,-0.43202 z"
             fill="url(#linearGradient10102)"
             stop-color="#000000"
             style="font-variation-settings:normal;fill:url(#linearGradient10102);-inkscape-stroke:none;paint-order:markers fill stroke"
             id="path632" /><path
             d="m -27.582,324.76 c 2.3814,2.3814 10.083,1.3685 11.452,0"
             fill="none"
             stop-color="#000000"
             style="font-variation-settings:normal;-inkscape-stroke:none;paint-order:markers fill stroke"
             id="path634" /></g><g
           transform="matrix(1.3469,0,0,1.3469,-21.079,218.42)"
           stroke-width="0.16815"
           id="g644"><rect
             x="-28.268"
             y="76.617996"
             width="8.6694002"
             height="8.4179001"
             ry="0.11691"
             fill="url(#linearGradient5375)"
             stop-color="#000000"
             style="font-variation-settings:normal;fill:url(#linearGradient5375);-inkscape-stroke:none;paint-order:markers fill stroke"
             id="rect638" /><path
             d="m -28.219,76.618 h 8.5027 c 0.06477,0 0.06493,0.15554 0.11691,0.11691 l 3.0562,-2.2709 c 0.05199,-0.03863 0.0667,-0.01144 0.0019,-0.01144 h -6.386 c -0.06477,0 -0.01319,-0.02254 -0.07286,0.0027 l -5.2282,2.2112 C -28.288,76.6917 -28.28376,76.618 -28.21895,76.618 Z"
             fill="url(#linearGradient3061)"
             stop-color="#000000"
             style="font-variation-settings:normal;fill:url(#linearGradient3061);-inkscape-stroke:none;paint-order:markers fill stroke"
             id="path640" /><path
             d="m -19.602,84.894 -0.11358,-8.2758 c -8.89e-4,-0.06476 0.0088,-0.05114 0.0624,-0.0875 l 3.0821,-2.0903 0.03045,0.01233 -0.03605,7.9375 c -2.94e-4,0.06477 -0.03921,0.03042 -0.08894,0.07193 l -3.0533,2.5487 c -0.04973,0.04151 0.1178,-0.05215 0.11691,-0.11691 z"
             fill="url(#radialGradient9683)"
             stop-color="#000000"
             style="font-variation-settings:normal;fill:url(#radialGradient9683);-inkscape-stroke:none;paint-order:markers fill stroke"
             id="path642" /></g><path
           d="m -59.636,295.69 -3.9003,5.4368 c 6.2977,0.0309 4.6215,3.6757 7.8041,5.913 4.6663,3.2803 8.7463,0.74704 10.043,5.5515 l 3.9155,-5.2651 c -3.4318,-4.8807 -5.409,-1.5773 -10.174,-4.6645 -3.3031,-2.1403 -1.6874,-7.0378 -7.6885,-6.9716 z"
           fill="url(#radialGradient9482)"
           stop-color="#000000"
           stroke-width="0.22647"
           style="font-variation-settings:normal;fill:url(#radialGradient9482);-inkscape-stroke:none;paint-order:markers fill stroke"
           id="path646" /></g></g><g
       transform="matrix(1.3831,0,0,1.3831,-8.6034,146.93)"
       stroke-linecap="round"
       stroke-linejoin="round"
       id="g658"><path
         d="m -45.573,110.75 a 3.8559,3.8559 0 0 1 -3.826,3.8558 3.8559,3.8559 0 0 1 -3.8853,-3.796 3.8559,3.8559 0 0 1 3.7657,-3.9147 3.8559,3.8559 0 0 1 3.9437,3.7353 z"
         fill="none"
         stroke="#8c2981"
         stroke-width="0.28318"
         style="paint-order:markers fill stroke"
         id="path652" /><path
         d="m -51.42,115.76 a 4.4463,4.4463 0 0 1 -4.4118,4.4462 4.4463,4.4463 0 0 1 -4.4802,-4.3772 4.4463,4.4463 0 0 1 4.3423,-4.514 4.4463,4.4463 0 0 1 4.5476,4.3072 z"
         fill="url(#radialGradient9234)"
         stop-color="#000000"
         stroke="#384b86"
         stroke-width="0.16374"
         style="font-variation-settings:normal;fill:url(#radialGradient9234);-inkscape-stroke:none;paint-order:markers fill stroke"
         id="path654" /><path
         d="m -52.159,113.05 a 0.29979,0.29979 0 0 1 -0.29747,0.29978 0.29979,0.29979 0 0 1 -0.30208,-0.29513 0.29979,0.29979 0 0 1 0.29278,-0.30436 0.29979,0.29979 0 0 1 0.30662,0.29041 z"
         fill="#8c2981"
         stroke="#8c2981"
         stroke-width="0.063866"
         style="paint-order:markers fill stroke"
         id="path656" /></g><path
       d="m -118.95,305.05 c -0.73188,-2.7597 -0.4738,-7.0453 2.0874,-8.307 1.1925,-0.58742 4.8997,0.0175 5.4877,1.9 0.55921,1.7903 -2.0048,4.857 -0.77406,4.5684 0.95794,-0.22464 4.0688,-0.30156 5.1727,-2.2874 1.0095,-1.8161 0.0127,-5.5736 0.89645,-5.4046 1.3996,0.26765 1.3769,5.013 1.9658,6.5888 0.72795,1.9479 1.8337,0.8891 1.0686,2.4756 -1.0665,2.2115 -6.1319,0.19446 -6.9216,2.5193 -0.61758,1.8179 4.2355,3.3164 3.0927,4.8592 -1.5291,2.0641 -6.2382,-5.0257 -7.699,-6.1976 -2.0037,-1.6074 -3.8026,1.4499 -4.3767,-0.71475 z"
       fill="url(#radialGradient8799)"
       stop-color="#000000"
       stroke="#384b86"
       stroke-linecap="round"
       stroke-linejoin="round"
       stroke-width="0.22647"
       style="font-variation-settings:normal;mix-blend-mode:normal;fill:url(#radialGradient8799);-inkscape-stroke:none;paint-order:markers fill stroke"
       id="path660" /><g
       transform="matrix(0.90804,0,0,0.90804,-39.826,225.46)"
       stroke-linecap="round"
       stroke-linejoin="round"
       id="g702"><path
         d="m -78.348,113.04 c -3.1259,3.8363 0.09132,7.4884 0.09132,7.4884"
         fill="none"
         stroke="#d3648c"
         stroke-width="0.282"
         style="paint-order:markers fill stroke"
         id="path662" /><g
         fill="#5d3886"
         stroke="#d3648c"
         stroke-width="0.282"
         id="g672"><path
           d="m -73.392,117.91 -4.9995,-4.8166"
           style="paint-order:markers fill stroke"
           id="path664" /><path
           d="m -79.977,108.33 -4.2679,3.4753"
           style="paint-order:markers fill stroke"
           id="path666" /><path
           d="m -84.367,112.36 -1.5242,-8.4138"
           style="paint-order:markers fill stroke"
           id="path668" /><path
           d="m -76.197,102.79 -4.024,5.4873"
           style="paint-order:markers fill stroke"
           id="path670" /></g><g
         stroke="#d3648c"
         stroke-width="0.282"
         id="g682"><path
           d="m -79.794,108.88 c 0,0 3.0565,1.3244 1.2804,4.024"
           fill="none"
           style="paint-order:markers fill stroke"
           id="path674" /><path
           d="m -70.405,109.07 c 0,0 -5.6241,-2.2946 -9.3894,-0.73164"
           fill="none"
           style="paint-order:markers fill stroke"
           id="path676" /><path
           d="m -80.831,108.64 -4.9386,-4.6947"
           fill="#5d3886"
           style="paint-order:markers fill stroke"
           id="path678" /><path
           d="m -84.306,112.48 c 1.563,2.4865 5.8494,5.3452 11.036,5.4873"
           fill="none"
           style="paint-order:markers fill stroke"
           id="path680" /></g><g
         fill="#4c3c64"
         stroke="#4f2b88"
         stroke-width="0.3131"
         id="g700"><path
           d="m -83.534,112.08 a 0.7952,0.7952 0 0 1 -0.78903,0.79517 0.7952,0.7952 0 0 1 -0.80127,-0.78284 0.7952,0.7952 0 0 1 0.77661,-0.80731 0.7952,0.7952 0 0 1 0.81331,0.77032 z"
           style="paint-order:markers fill stroke"
           id="path684" /><path
           d="m -79.288,108.47 a 0.7952,0.7952 0 0 1 -0.78903,0.79518 0.7952,0.7952 0 0 1 -0.80127,-0.78284 0.7952,0.7952 0 0 1 0.77661,-0.80732 0.7952,0.7952 0 0 1 0.81331,0.77032 z"
           style="paint-order:markers fill stroke"
           id="path686" /><path
           d="m -77.553,113.13 a 0.7952,0.7952 0 0 1 -0.78903,0.79517 0.7952,0.7952 0 0 1 -0.80127,-0.78284 0.7952,0.7952 0 0 1 0.77661,-0.80732 0.7952,0.7952 0 0 1 0.81331,0.77033 z"
           style="paint-order:markers fill stroke"
           id="path688" /><path
           d="m -77.553,120.43 a 0.7952,0.7952 0 0 1 -0.78903,0.79517 0.7952,0.7952 0 0 1 -0.80127,-0.78284 0.7952,0.7952 0 0 1 0.77661,-0.80732 0.7952,0.7952 0 0 1 0.81331,0.77033 z"
           style="paint-order:markers fill stroke"
           id="path690" /><path
           d="m -69.608,109.2 a 0.7952,0.7952 0 0 1 -0.78903,0.79517 0.7952,0.7952 0 0 1 -0.80127,-0.78284 0.7952,0.7952 0 0 1 0.77661,-0.80732 0.7952,0.7952 0 0 1 0.81331,0.77033 z"
           style="paint-order:markers fill stroke"
           id="path692" /><path
           d="m -75.544,102.72 a 0.7952,0.7952 0 0 1 -0.78903,0.79518 0.7952,0.7952 0 0 1 -0.80127,-0.78284 0.7952,0.7952 0 0 1 0.77661,-0.80732 0.7952,0.7952 0 0 1 0.81331,0.77032 z"
           style="paint-order:markers fill stroke"
           id="path694" /><path
           d="m -85.224,104 a 0.7952,0.7952 0 0 1 -0.78903,0.79517 0.7952,0.7952 0 0 1 -0.80127,-0.78284 0.7952,0.7952 0 0 1 0.77661,-0.80732 0.7952,0.7952 0 0 1 0.81331,0.77033 z"
           style="paint-order:markers fill stroke"
           id="path696" /><path
           d="m -72.713,117.88 a 0.7952,0.7952 0 0 1 -0.78903,0.79518 0.7952,0.7952 0 0 1 -0.80127,-0.78285 0.7952,0.7952 0 0 1 0.77661,-0.80731 0.7952,0.7952 0 0 1 0.81331,0.77032 z"
           style="paint-order:markers fill stroke"
           id="path698" /></g></g><path
       d="m -22.321,289.53 h -95.15"
       fill="url(#linearGradient12501)"
       marker-end="url(#TriangleStart)"
       marker-start="url(#three_dots)"
       stroke="url(#linearGradient14798)"
       stroke-linecap="round"
       stroke-linejoin="round"
       stroke-width="0.66502"
       style="fill:url(#linearGradient12501);stroke:url(#linearGradient14798);paint-order:markers fill stroke"
       id="path704" /><g
       transform="matrix(0.81323,0,0,0.81323,-53.313,279.29)"
       ns1:alignment="middle center"
       ns1:inkscapeversion="1.2.2"
       ns1:jacobian_sqrt="0.995724"
       ns1:pdfconverter="inkscape"
       ns1:preamble="/Users/marconurisso/Library/Application Support/org.inkscape.Inkscape/config/inkscape/extensions/textext/default_packages.tex"
       ns1:scale="2.8225217434322185"
       ns1:stroke-to-path="0"
       ns1:texconverter="pdflatex"
       ns1:text="$\\mathrm{Var}(b(\\varepsilon))$"
       ns1:version="1.8.2"
       id="g748"><defs
         id="defs706" /><g
         id="g746"><g
           id="id-a0243a6b-8779-46c9-bfc0-095b289bfd2f"
           transform="translate(-148.9,-127.23)"><g
             transform="translate(148.71,134.76)"
             id="g709"><path
               id="id-abac5e2e-c128-40e0-8c25-84f3312cc75c"
               d="m 6.1875,-5.8281 c 0.14062,-0.375 0.40625,-0.65625 1.0938,-0.67188 v -0.3125 c -0.3125,0.03125 -0.71875,0.03125 -0.96875,0.03125 -0.29688,0 -0.875,-0.015625 -1.1406,-0.03125 v 0.3125 c 0.51562,0.015625 0.73438,0.26562 0.73438,0.5 0,0.078125 -0.03125,0.14062 -0.046875,0.20312 l -1.8281,4.7969 -1.9062,-5.0312 c -0.0625,-0.14062 -0.0625,-0.15625 -0.0625,-0.17188 0,-0.29688 0.5625,-0.29688 0.8125,-0.29688 v -0.3125 c -0.35938,0.03125 -1.0469,0.03125 -1.4219,0.03125 -0.46875,0 -0.90625,-0.015625 -1.2656,-0.03125 v 0.3125 c 0.65625,0 0.84375,0 0.98438,0.375 l 2.3125,6.125 c 0.0625,0.1875 0.10938,0.21875 0.25,0.21875 0.15625,0 0.1875,-0.046875 0.23438,-0.1875 z" /></g></g><g
           transform="translate(-148.9,-127.23)"
           id="g721"><g
             transform="translate(155.36,134.76)"
             id="g713"><path
               id="id-83d6977d-3d43-49e6-b4c3-014a2211638a"
               d="m 3.3125,-0.75 c 0.046875,0.39062 0.3125,0.8125 0.78125,0.8125 0.21875,0 0.82812,-0.14062 0.82812,-0.95312 v -0.5625 h -0.25 v 0.5625 c 0,0.57812 -0.25,0.64062 -0.35938,0.64062 -0.32812,0 -0.375,-0.45312 -0.375,-0.5 v -1.9844 c 0,-0.42188 0,-0.8125 -0.35938,-1.1875 -0.39062,-0.39062 -0.89062,-0.54688 -1.3594,-0.54688 -0.82812,0 -1.5156,0.46875 -1.5156,1.125 0,0.29688 0.20312,0.46875 0.46875,0.46875 0.28125,0 0.45312,-0.20312 0.45312,-0.45312 0,-0.125 -0.046875,-0.45312 -0.51562,-0.45312 0.28125,-0.35938 0.76562,-0.46875 1.0781,-0.46875 0.5,0 1.0625,0.39062 1.0625,1.2812 v 0.35938 c -0.51562,0.03125 -1.2031,0.0625 -1.8281,0.35938 -0.75,0.34375 -1,0.85938 -1,1.2969 0,0.8125 0.96875,1.0625 1.5938,1.0625 0.65625,0 1.1094,-0.40625 1.2969,-0.85938 z M 3.25,-2.3906 v 1 c 0,0.9375 -0.71875,1.2812 -1.1719,1.2812 -0.48438,0 -0.89062,-0.34375 -0.89062,-0.84375 0,-0.54688 0.42188,-1.375 2.0625,-1.4375 z" /></g><g
             transform="translate(160.34,134.76)"
             id="g716"><path
               id="id-b4466ba0-816f-432a-b011-96dea8a50a4a"
               d="m 1.6719,-3.3125 v -1.0938 l -1.3906,0.10938 v 0.3125 c 0.70312,0 0.78125,0.0625 0.78125,0.5625 v 2.6719 c 0,0.4375 -0.10938,0.4375 -0.78125,0.4375 V -2e-5 c 0.39062,-0.015625 0.85938,-0.03125 1.1406,-0.03125 0.39062,0 0.85938,0 1.2656,0.03125 v -0.3125 H 2.46875 c -0.73438,0 -0.75,-0.10938 -0.75,-0.46875 v -1.5312 c 0,-0.98438 0.42188,-1.875 1.1719,-1.875 0.0625,0 0.09375,0 0.10938,0.015625 -0.03125,0 -0.23438,0.125 -0.23438,0.39062 0,0.26562 0.21875,0.42188 0.4375,0.42188 0.17188,0 0.42188,-0.125 0.42188,-0.4375 0,-0.3125 -0.3125,-0.60938 -0.73438,-0.60938 -0.73438,0 -1.0938,0.67188 -1.2188,1.0938 z" /></g><g
             transform="translate(164.24,134.76)"
             id="g719"><path
               id="id-869f21fb-8e06-4331-ace2-4093c3031ade"
               d="M 3.4375,2.4375 3.625,2.21875 c -1.3594,-1.1562 -1.8594,-2.9688 -1.8594,-4.7656 0,-1.7968 0.5,-3.6094 1.8594,-4.7656 L 3.4375,-7.5312 c -1.625,1.0938 -2.4531,3.0156 -2.4531,4.9844 0,1.9688 0.82812,3.875 2.4531,4.9844 z" /></g></g><g
           id="id-bf325f92-6f76-4e36-943f-a611fa75216c"
           transform="translate(-148.9,-127.23)"><g
             transform="translate(168.66,134.76)"
             id="g724"><path
               id="id-f8149eff-2478-4035-8242-323d510cf2ac"
               d="m 2.375,-6.8125 c 0,0 0,-0.10938 -0.125,-0.10938 -0.21875,0 -0.95312,0.078125 -1.2188,0.10938 -0.078125,0 -0.1875,0.015625 -0.1875,0.1875 0,0.125 0.09375,0.125 0.25,0.125 0.46875,0 0.48438,0.0625 0.48438,0.17188 0,0.0625 -0.078125,0.40625 -0.125,0.60938 l -0.82812,3.25 c -0.10938,0.5 -0.15625,0.67188 -0.15625,1.0156 0,0.9375 0.53125,1.5625 1.2656,1.5625 1.1719,0 2.4062,-1.4844 2.4062,-2.9219 0,-0.90625 -0.53125,-1.5938 -1.3281,-1.5938 -0.45312,0 -0.875,0.29688 -1.1719,0.59375 z m -0.92188,3.7656 c 0.046875,-0.21875 0.046875,-0.23438 0.14062,-0.34375 0.48438,-0.64062 0.9375,-0.79688 1.2031,-0.79688 0.35938,0 0.625,0.29688 0.625,0.9375 0,0.59375 -0.32812,1.7344 -0.51562,2.1094 -0.32812,0.67188 -0.78125,1.0312 -1.1719,1.0312 -0.34375,0 -0.67188,-0.26562 -0.67188,-1 0,-0.20312 0,-0.39062 0.15625,-1.0156 z" /></g></g><g
           transform="translate(-148.9,-127.23)"
           id="g731"><g
             transform="translate(172.94,134.76)"
             id="g729"><path
               d="M 3.4375,2.4375 3.625,2.21875 c -1.3594,-1.1562 -1.8594,-2.9688 -1.8594,-4.7656 0,-1.7968 0.5,-3.6094 1.8594,-4.7656 L 3.4375,-7.5312 c -1.625,1.0938 -2.4531,3.0156 -2.4531,4.9844 0,1.9688 0.82812,3.875 2.4531,4.9844 z"
               id="path727" /></g></g><g
           id="id-55aa9eda-5c58-4055-a22b-9febb9ba2b4a"
           transform="translate(-148.9,-127.23)"><g
             transform="translate(177.37,134.76)"
             id="g734"><path
               id="id-00aceb95-36ad-4b3c-bfd4-65df483576fb"
               d="m 1.4062,-2.2656 c 0.32812,0.14062 0.625,0.14062 0.85938,0.14062 0.25,0 0.8125,0 0.8125,-0.3125 0,-0.23438 -0.35938,-0.26562 -0.73438,-0.26562 -0.20312,0 -0.5625,0.015625 -0.92188,0.1875 -0.23438,-0.10938 -0.40625,-0.3125 -0.40625,-0.57812 0,-0.60938 0.98438,-0.96875 1.875,-0.96875 0.15625,0 0.51562,0 0.92188,0.28125 0.10938,0.078125 0.125,0.10938 0.1875,0.10938 0.14062,0 0.28125,-0.14062 0.28125,-0.28125 0,-0.1875 -0.60938,-0.5625 -1.2969,-0.5625 -1.1406,0 -2.2188,0.67188 -2.2188,1.4219 0,0.4375 0.35938,0.6875 0.40625,0.71875 -0.59375,0.32812 -0.90625,0.875 -0.90625,1.3438 0,0.64062 0.5625,1.25 1.625,1.25 1.3125,0 1.875,-0.875 1.875,-1.0312 0,-0.0625 -0.0625,-0.09375 -0.10938,-0.09375 -0.0625,0 -0.09375,0.03125 -0.10938,0.0625 -0.14062,0.23438 -0.375,0.60938 -1.5781,0.60938 -0.60938,0 -1.4531,-0.15625 -1.4531,-0.85938 0,-0.34375 0.28125,-0.875 0.89062,-1.1719 z m 0.32812,-0.125 c 0.23438,-0.078125 0.4375,-0.09375 0.60938,-0.09375 0.25,0 0.28125,0.015625 0.46875,0.0625 -0.15625,0.0625 -0.17188,0.078125 -0.54688,0.078125 -0.21875,0 -0.34375,0 -0.53125,-0.046875 z" /></g></g><g
           transform="translate(-148.9,-127.23)"
           id="g744"><g
             transform="translate(182.01,134.76)"
             id="g739"><path
               d="m 0.98438,2.4375 c 1.625,-1.1094 2.4531,-3.0156 2.4531,-4.9844 0,-1.9688 -0.82812,-3.8906 -2.4531,-4.9844 l -0.1875,0.21875 c 1.3594,1.1562 1.8594,2.9688 1.8594,4.7656 0,1.7968 -0.5,3.6094 -1.8594,4.7656 z"
               id="path737" /></g><g
             transform="translate(186.44,134.76)"
             id="g742"><path
               id="id-49ae96b0-b7ba-40b5-9400-a924b705258a"
               d="m 0.98438,2.4375 c 1.625,-1.1094 2.4531,-3.0156 2.4531,-4.9844 0,-1.9688 -0.82812,-3.8906 -2.4531,-4.9844 l -0.1875,0.21875 c 1.3594,1.1562 1.8594,2.9688 1.8594,4.7656 0,1.7968 -0.5,3.6094 -1.8594,4.7656 z" /></g></g></g></g></g></svg>
