<?xml version="1.0" encoding="UTF-8"?>
<!-- Created with Inkscape (http://www.inkscape.org/) -->
<svg width="170.82mm" height="167.75mm" version="1.1" viewBox="0 0 170.82 167.75" xml:space="preserve" xmlns="http://www.w3.org/2000/svg" xmlns:ns1="http://www.iki.fi/pav/software/textext/" xmlns:xlink="http://www.w3.org/1999/xlink"><defs><clipPath><path d="m0 0h389.65v329.07h-389.65z"/></clipPath><radialGradient id="radialGradient16435" cx="-50.996" cy="52.06" r="5.9876" gradientTransform="matrix(1.1324 0 0 1.1324 35.065 243.77)" gradientUnits="userSpaceOnUse"><stop stop-color="#f3efe7" offset="0"/><stop stop-color="#feb87e" offset=".27324"/><stop stop-color="#ec595f" offset="1"/></radialGradient><radialGradient id="radialGradient6297" cx="361.31" cy="57.609" r="4.9765" gradientTransform="matrix(1.958 .98282 -.76524 1.5245 -746.86 -118.31)" gradientUnits="userSpaceOnUse"><stop stop-color="#f3efe7" offset="0"/><stop stop-color="#ca3e72" stop-opacity=".792" offset=".27324"/><stop stop-color="#8c2981" offset="1"/></radialGradient><linearGradient id="linearGradient10102" x1="-16.633" x2="-16.249" y1="95.221" y2="101.52" gradientTransform="matrix(1.2448 0 0 1.2448 -.7953 204.46)" gradientUnits="userSpaceOnUse"><stop stop-color="#f3efe7" offset="0"/><stop stop-color="#fdb37c" offset=".27324"/><stop stop-color="#ec595f" offset="1"/></linearGradient><linearGradient id="linearGradient5375" x1="-27.617" x2="-22.688" y1="77.267" y2="82.938" gradientUnits="userSpaceOnUse"><stop stop-color="#f3efe7" offset="0"/><stop stop-color="#e4839b" offset=".45731"/><stop stop-color="#c52c7a" offset="1"/></linearGradient><linearGradient id="linearGradient3061" x1="-22.148" x2="-11.008" y1="75.917" y2="77.875" gradientUnits="userSpaceOnUse"><stop stop-color="#f3efe7" offset="0"/><stop stop-color="#e78da0" offset=".41176"/><stop stop-color="#c52c7a" offset="1"/></linearGradient><radialGradient id="radialGradient9683" cx="-50.996" cy="52.06" r="5.9876" gradientTransform="matrix(.73683 0 0 .73683 438.95 4.6932)" gradientUnits="userSpaceOnUse"><stop stop-color="#f3efe7" offset="0"/><stop stop-color="#ffb59e" offset=".27324"/><stop stop-color="#c52c7a" offset="1"/></radialGradient><radialGradient id="radialGradient9482" cx="-77.355" cy="49.844" r="5.9876" gradientTransform="matrix(2.2165 -3.0039 .91117 .67232 71.712 32.515)" gradientUnits="userSpaceOnUse"><stop stop-color="#f3efe7" offset="0"/><stop stop-color="#db4769" stop-opacity=".552" offset=".27324"/><stop stop-color="#c52c7a" offset="1"/></radialGradient><radialGradient id="radialGradient9234" cx="-56.2" cy="115.18" r="4.5282" gradientTransform="matrix(1 0 0 1 0 -.00019161)" gradientUnits="userSpaceOnUse"><stop stop-color="#f3efe7" offset="0"/><stop stop-color="#cc5b89" stop-opacity=".79467" offset=".27324"/><stop stop-color="#8c2981" offset="1"/></radialGradient><radialGradient id="radialGradient8799" cx="341.87" cy="41.748" r="5.4484" gradientTransform="matrix(1.7916 .65529 -.53739 1.4693 -704.2 15.289)" gradientUnits="userSpaceOnUse"><stop stop-color="#f3efe7" offset="0"/><stop stop-color="#b53679" stop-opacity=".584" offset=".27324"/><stop stop-color="#3b0f70" stop-opacity=".57333" offset=".55977"/><stop stop-color="#2b1767" offset="1"/></radialGradient><linearGradient id="linearGradient12501" x1="345.64" x2="411.51" y1="-116.59" y2="-117.21" gradientTransform="matrix(1.3971 0 0 1.3971 -592.75 453.29)" gradientUnits="userSpaceOnUse"><stop stop-color="#c70000" offset="0"/><stop stop-color="#c7030d" stop-opacity="0" offset="1"/></linearGradient><linearGradient id="linearGradient14798" x1="343.78" x2="411.51" y1="-117.21" y2="-117.21" gradientTransform="matrix(1.3971 0 0 1.3971 -592.75 453.29)" gradientUnits="userSpaceOnUse"><stop offset="0"/><stop stop-color="#d9562a" offset="1"/></linearGradient><marker id="three_dots" overflow="visible" markerHeight="1.5" markerWidth="5.5" orient="auto-start-reverse" preserveAspectRatio="xMidYMid" viewBox="0 0 5.5 1.5"><g transform="scale(.5)"><circle cx="4" r="1" fill="context-stroke" stroke="context-stroke"/><circle cx="8" r="1" fill="context-stroke" stroke="context-stroke"/><circle cx="12" r="1" fill="context-stroke" stroke="context-stroke"/></g></marker><marker id="TriangleStart" overflow="visible" markerHeight="6.155385" markerWidth="5.3244081" orient="auto-start-reverse" preserveAspectRatio="xMidYMid" viewBox="0 0 5.3244081 6.1553851"><path transform="scale(.5)" d="m5.77 0-8.65 5v-10z" fill="context-stroke" fill-rule="evenodd" stroke="context-stroke" stroke-width="1pt"/></marker>
      
      
      
      
      
      
      
      
      
      
      
      
      
    
      
      
    
      
      
      
      
      
      
    
      
      
      
      
      
      
    
      
      
      
      
      
      
      
      
      
      
      
      
      
      
      
      
      
      
      
      
      
      
      
    
      
      
      
      
      
      
      
      
      
      
      
      
      
      
      
      
    <g id="id-de32940a-72f5-42a5-8f4a-3afba522434c">
      
      
    </g>
      
      
    
      
      
    
      
      
    <g id="id-05b08743-cbc7-4a88-a8bf-d345ad033e5e">
      
      
      
      
      
    </g>
      
      
    
      
      
    
      
      
      
      
      
      
      
      
      
      
      
      
      
    
      
      
      
      
      
      
      
      
      
      
      
      
      
    <g id="id-a16b1868-d5bb-4820-a7c5-06eb62d8817e">
      
      
      
      
      
      
      
      
      
      
    </g>
      
      
      
      
      
      
    
      
      
      
      
      
      
    
      
      
      
      
      
      
      
      
      
      
      
      
      
      
      
      
      
      
      
      
      
      
      
    
      
      
      
      
      
      
      
      
      
      
      
      
      
      
      
      
    
      
      
    
      
      
    
      
      
      
      
      
      
      
      
      
      
      
      
      
    
      
      
      
      
      
      
      
      
      
      
      
      
      
    
      
      
      
      
      
      
      
      
      
      
    
      
      
    
    
    
    </defs><g transform="translate(158.21 -241.73)"><g transform="matrix(.50977 0 0 .50977 62.082 233.54)"><g/><g transform="translate(-432.14 16.075)"><path transform="matrix(1 0 0 -1 0 329.07)" d="m71.457 61.034v252l6.0859-2.5469 5.9609-2.5469 5.8398-2.543 5.7148-2.5469 5.5859-2.5469 5.4688-2.543 5.3398-2.5469 5.2188-2.5469 5.0898-2.543 4.9688-2.5469 4.8476-2.543 4.7188-2.5469 4.5977-2.5469 4.4688-2.543 4.3477-2.5469 4.2266-2.5469 4.0977-2.543 3.9766-2.5469 3.8476-2.5469 3.7266-2.543 3.6016-2.5469 3.4805-2.543 3.3516-2.5469 3.2305-2.5469 3.1055-2.543 2.9805-2.5469 2.8594-2.5469 2.7305-2.543 2.6094-2.5469 2.4844-2.5469 2.3594-2.543 2.2383-2.5469 2.1094-2.543 1.9883-2.5469 1.8633-2.5469 1.7383-2.543 1.6172-2.5469 1.4883-2.5469 1.3672-2.543 1.2422-2.5469 1.1172-2.5469 0.99609-2.543 0.86719-2.5469 0.74609-2.543 0.6211-2.5469 0.49609-2.5469 0.375-2.543 0.24609-2.5469 0.125-2.5469v-2.543l-0.125-2.5469-0.24609-2.5469-0.375-2.543-0.49609-2.5469-0.6211-2.543-0.74609-2.5469-0.86719-2.5469-0.99609-2.543-1.1172-2.5469-1.2422-2.5469-1.3672-2.543-1.4883-2.5469-1.6172-2.5469-1.7383-2.543-1.8633-2.5469-1.9883-2.543-2.1094-2.5469-2.2383-2.5469-2.3594-2.543-2.4844-2.5469-2.6094-2.5469-2.7305-2.543-2.8594-2.5469-2.9805-2.5469-3.1055-2.543-3.2305-2.5469-3.3516-2.543-3.4805-2.5469-3.6016-2.5469-3.7266-2.543-3.8476-2.5469-3.9766-2.5469-4.0977-2.543-4.2266-2.5469-4.3477-2.5469-4.4688-2.543-4.5977-2.5469-4.7188-2.543-4.8476-2.5469-4.9688-2.5469-5.0898-2.543-5.2188-2.5469-5.3398-2.5469-5.4688-2.543-5.5859-2.5469-5.7148-2.5469-5.8398-2.543-5.9609-2.5469z" fill="#e8c6c4" fill-opacity=".43922" stroke="#ff7f0e" stroke-linejoin="round" stroke-miterlimit="10" stroke-opacity=".2"/><path transform="matrix(1 0 0 -1 0 329.07)" d="m71.457 40.873v-3.5" fill="none" stroke="#000" stroke-linejoin="round" stroke-miterlimit="10" stroke-width=".8"/><g transform="matrix(1.1 0 0 1.1 -7.1346 -29.914)"><g transform="translate(63.502 302.79)"><path d="m3.1797-6.6406c-0.50781 0-0.89063 0.25-1.1484 0.75-0.26172 0.5-0.38281 1.25-0.38281 2.25s0.12109 1.75 0.38281 2.25c0.25781 0.5 0.64062 0.75 1.1484 0.75 0.51172 0 0.89062-0.25 1.1484-0.75 0.25-0.5 0.38281-1.25 0.38281-2.25s-0.13281-1.75-0.38281-2.25c-0.25781-0.5-0.63672-0.75-1.1484-0.75zm0-0.78125c0.80859 0 1.4297 0.33203 1.8711 0.97266 0.42969 0.64844 0.64844 1.5898 0.64844 2.8086 0 1.2305-0.21875 2.1719-0.64844 2.8125-0.44141 0.63672-1.0625 0.95703-1.8789 0.95703-0.82031 0-1.4414-0.32031-1.8711-0.95703-0.42969-0.64062-0.64062-1.582-0.64062-2.8125 0-1.2188 0.21094-2.1602 0.64062-2.8086 0.42969-0.64062 1.0586-0.97266 1.8789-0.97266z"/></g><g transform="translate(69.862 302.79)"><path d="m1.0703-1.2383h1.0312v1.2383h-1.0312z"/></g><g transform="translate(73.042 302.79)"><path d="m1.0781-7.2891h3.8711v0.82812h-2.9688v1.7891c0.14062-0.046875 0.28906-0.089844 0.42969-0.10938s0.28906-0.039062 0.42969-0.039062c0.80859 0 1.4492 0.23047 1.9297 0.67187 0.48047 0.44922 0.71875 1.0469 0.71875 1.8086 0 0.78906-0.25 1.3984-0.73828 1.8281-0.48828 0.43359-1.1797 0.64062-2.0586 0.64062-0.3125 0-0.62109-0.027344-0.94141-0.070312-0.32031-0.046875-0.64062-0.11719-0.98047-0.23047v-0.98828c0.28906 0.16016 0.58984 0.28125 0.91016 0.35938 0.30859 0.082031 0.64062 0.10938 0.99219 0.10938 0.55859 0 1.0078-0.13672 1.3398-0.4375 0.31641-0.30078 0.48828-0.69922 0.48828-1.2109 0-0.5-0.17188-0.89844-0.48828-1.1992-0.33203-0.30078-0.78125-0.44922-1.3398-0.44922-0.26172 0-0.53125 0.027343-0.79297 0.089843-0.25781 0.058594-0.52734 0.14844-0.80078 0.26953z"/></g></g><path transform="matrix(1 0 0 -1 0 329.07)" d="m132.33 40.873v-3.5" fill="none" stroke="#000" stroke-linejoin="round" stroke-miterlimit="10" stroke-width=".8"/><g transform="matrix(1.1 0 0 1.1 -13.234 -29.914)"><g transform="translate(124.37 302.79)"><path d="m3.1797-6.6406c-0.50781 0-0.89063 0.25-1.1484 0.75-0.26172 0.5-0.38281 1.25-0.38281 2.25s0.12109 1.75 0.38281 2.25c0.25781 0.5 0.64062 0.75 1.1484 0.75 0.51172 0 0.89062-0.25 1.1484-0.75 0.25-0.5 0.38281-1.25 0.38281-2.25s-0.13281-1.75-0.38281-2.25c-0.25781-0.5-0.63672-0.75-1.1484-0.75zm0-0.78125c0.80859 0 1.4297 0.33203 1.8711 0.97266 0.42969 0.64844 0.64844 1.5898 0.64844 2.8086 0 1.2305-0.21875 2.1719-0.64844 2.8125-0.44141 0.63672-1.0625 0.95703-1.8789 0.95703-0.82031 0-1.4414-0.32031-1.8711-0.95703-0.42969-0.64062-0.64062-1.582-0.64062-2.8125 0-1.2188 0.21094-2.1602 0.64062-2.8086 0.42969-0.64062 1.0586-0.97266 1.8789-0.97266z"/></g><g transform="translate(130.73 302.79)"><path d="m1.0703-1.2383h1.0312v1.2383h-1.0312z"/></g><g transform="translate(133.91 302.79)"><path d="m3.3008-4.0391c-0.44141 0-0.78906 0.16016-1.0508 0.46094-0.26172 0.29688-0.39062 0.71875-0.39062 1.2383 0 0.53125 0.12891 0.94922 0.39062 1.25 0.26172 0.30078 0.60938 0.44922 1.0508 0.44922 0.4375 0 0.78906-0.14844 1.0508-0.44922 0.25781-0.30078 0.38672-0.71875 0.38672-1.25 0-0.51953-0.12891-0.94141-0.38672-1.2383-0.26172-0.30078-0.61328-0.46094-1.0508-0.46094zm1.9609-3.0898v0.89844c-0.25-0.12109-0.5-0.21094-0.75-0.26953-0.26172-0.058594-0.51172-0.089844-0.75-0.089844-0.66016 0-1.1602 0.21875-1.5 0.66016-0.33984 0.44141-0.54297 1.1094-0.58203 1.9883 0.19141-0.27734 0.42969-0.5 0.71875-0.64844 0.29297-0.14844 0.61328-0.23047 0.96094-0.23047 0.73047 0 1.3125 0.23047 1.7305 0.67187 0.42188 0.4375 0.64062 1.0469 0.64062 1.8086 0 0.75-0.23047 1.3516-0.67188 1.8008-0.4375 0.44922-1.0273 0.66797-1.7578 0.66797-0.83984 0-1.4922-0.32031-1.9297-0.95703-0.44922-0.64062-0.67188-1.582-0.67188-2.8125 0-1.1484 0.26953-2.0703 0.82031-2.75 0.53906-0.67969 1.2812-1.0312 2.1992-1.0312 0.24219 0 0.49219 0.03125 0.75 0.070313 0.25 0.050781 0.51172 0.12109 0.79297 0.22266z"/></g></g><path transform="matrix(1 0 0 -1 0 329.07)" d="m193.2 40.873v-3.5" fill="none" stroke="#000" stroke-linejoin="round" stroke-miterlimit="10" stroke-width=".8"/><g transform="matrix(1.1 0 0 1.1 -19.31 -29.914)"><g transform="translate(185.25 302.79)"><path d="m3.1797-6.6406c-0.50781 0-0.89063 0.25-1.1484 0.75-0.26172 0.5-0.38281 1.25-0.38281 2.25s0.12109 1.75 0.38281 2.25c0.25781 0.5 0.64062 0.75 1.1484 0.75 0.51172 0 0.89062-0.25 1.1484-0.75 0.25-0.5 0.38281-1.25 0.38281-2.25s-0.13281-1.75-0.38281-2.25c-0.25781-0.5-0.63672-0.75-1.1484-0.75zm0-0.78125c0.80859 0 1.4297 0.33203 1.8711 0.97266 0.42969 0.64844 0.64844 1.5898 0.64844 2.8086 0 1.2305-0.21875 2.1719-0.64844 2.8125-0.44141 0.63672-1.0625 0.95703-1.8789 0.95703-0.82031 0-1.4414-0.32031-1.8711-0.95703-0.42969-0.64062-0.64062-1.582-0.64062-2.8125 0-1.2188 0.21094-2.1602 0.64062-2.8086 0.42969-0.64062 1.0586-0.97266 1.8789-0.97266z"/></g><g transform="translate(191.61 302.79)"><path d="m1.0703-1.2383h1.0312v1.2383h-1.0312z"/></g><g transform="translate(194.79 302.79)"><path d="m0.82031-7.2891h4.6914v0.41797l-2.6523 6.8711h-1.0312l2.4922-6.4609h-3.5z"/></g></g><path transform="matrix(1 0 0 -1 0 329.07)" d="m254.07 40.873v-3.5" fill="none" stroke="#000" stroke-linejoin="round" stroke-miterlimit="10" stroke-width=".8"/><g transform="matrix(1.1 0 0 1.1 -25.406 -29.914)"><g transform="translate(246.12 302.79)"><path d="m3.1797-6.6406c-0.50781 0-0.89063 0.25-1.1484 0.75-0.26172 0.5-0.38281 1.25-0.38281 2.25s0.12109 1.75 0.38281 2.25c0.25781 0.5 0.64062 0.75 1.1484 0.75 0.51172 0 0.89062-0.25 1.1484-0.75 0.25-0.5 0.38281-1.25 0.38281-2.25s-0.13281-1.75-0.38281-2.25c-0.25781-0.5-0.63672-0.75-1.1484-0.75zm0-0.78125c0.80859 0 1.4297 0.33203 1.8711 0.97266 0.42969 0.64844 0.64844 1.5898 0.64844 2.8086 0 1.2305-0.21875 2.1719-0.64844 2.8125-0.44141 0.63672-1.0625 0.95703-1.8789 0.95703-0.82031 0-1.4414-0.32031-1.8711-0.95703-0.42969-0.64062-0.64062-1.582-0.64062-2.8125 0-1.2188 0.21094-2.1602 0.64062-2.8086 0.42969-0.64062 1.0586-0.97266 1.8789-0.97266z"/></g><g transform="translate(252.48 302.79)"><path d="m1.0703-1.2383h1.0312v1.2383h-1.0312z"/></g><g transform="translate(255.66 302.79)"><path d="m3.1797-3.4609c-0.46875 0-0.83984 0.13281-1.1094 0.38281-0.26953 0.25-0.39844 0.58984-0.39844 1.0273 0 0.44141 0.12891 0.78906 0.39844 1.0391 0.26953 0.25 0.64063 0.37109 1.1094 0.37109 0.46094 0 0.83203-0.12109 1.1016-0.37891 0.26953-0.25 0.41016-0.58984 0.41016-1.0312 0-0.4375-0.14062-0.77734-0.40234-1.0273-0.26953-0.25-0.64062-0.38281-1.1094-0.38281zm-0.98828-0.41797c-0.42188-0.10156-0.75-0.30078-0.99219-0.58984-0.23828-0.29297-0.34766-0.64062-0.34766-1.0625 0-0.57812 0.19922-1.0391 0.61719-1.3789 0.41016-0.33984 0.98047-0.51172 1.7109-0.51172 0.71875 0 1.2891 0.17188 1.7109 0.51172 0.41016 0.33984 0.62109 0.80078 0.62109 1.3789 0 0.42188-0.12109 0.76953-0.36328 1.0625-0.23828 0.28906-0.55859 0.48828-0.97656 0.58984 0.46875 0.10938 0.83984 0.32812 1.1094 0.64844 0.25781 0.32031 0.39844 0.71875 0.39844 1.1797 0 0.71094-0.21875 1.25-0.64844 1.6211-0.44141 0.37891-1.0625 0.55859-1.8594 0.55859-0.80078 0-1.4219-0.17969-1.8516-0.55859-0.42969-0.37109-0.64062-0.91016-0.64062-1.6211 0-0.46094 0.12891-0.85938 0.39844-1.1797 0.26172-0.32031 0.63281-0.53906 1.1133-0.64844zm-0.36328-1.5625c0 0.38281 0.11328 0.67969 0.35156 0.89062 0.24219 0.21094 0.57031 0.3125 1 0.3125 0.42187 0 0.75-0.10156 0.99219-0.3125 0.23828-0.21094 0.35938-0.50781 0.35938-0.89062 0-0.37891-0.12109-0.66797-0.35938-0.87891-0.24219-0.21094-0.57031-0.32031-0.99219-0.32031-0.42969 0-0.75781 0.10938-1 0.32031-0.23828 0.21094-0.35156 0.5-0.35156 0.87891z"/></g></g><path transform="matrix(1 0 0 -1 0 329.07)" d="m314.95 40.873v-3.5" fill="none" stroke="#000" stroke-linejoin="round" stroke-miterlimit="10" stroke-width=".8"/><g transform="matrix(1.1 0 0 1.1 -31.492 -29.914)"><g transform="translate(306.99 302.79)"><path d="m3.1797-6.6406c-0.50781 0-0.89063 0.25-1.1484 0.75-0.26172 0.5-0.38281 1.25-0.38281 2.25s0.12109 1.75 0.38281 2.25c0.25781 0.5 0.64062 0.75 1.1484 0.75 0.51172 0 0.89062-0.25 1.1484-0.75 0.25-0.5 0.38281-1.25 0.38281-2.25s-0.13281-1.75-0.38281-2.25c-0.25781-0.5-0.63672-0.75-1.1484-0.75zm0-0.78125c0.80859 0 1.4297 0.33203 1.8711 0.97266 0.42969 0.64844 0.64844 1.5898 0.64844 2.8086 0 1.2305-0.21875 2.1719-0.64844 2.8125-0.44141 0.63672-1.0625 0.95703-1.8789 0.95703-0.82031 0-1.4414-0.32031-1.8711-0.95703-0.42969-0.64062-0.64062-1.582-0.64062-2.8125 0-1.2188 0.21094-2.1602 0.64062-2.8086 0.42969-0.64062 1.0586-0.97266 1.8789-0.97266z"/></g><g transform="translate(313.35 302.79)"><path d="m1.0703-1.2383h1.0312v1.2383h-1.0312z"/></g><g transform="translate(316.53 302.79)"><path d="m1.1016-0.14844v-0.90234c0.23828 0.12109 0.48828 0.21094 0.75 0.26953 0.25 0.0625 0.5 0.089844 0.75 0.089844 0.63672 0 1.1367-0.20703 1.4766-0.64844 0.34375-0.44141 0.54297-1.1016 0.60156-2-0.19922 0.28125-0.44141 0.5-0.71875 0.64844-0.28906 0.15234-0.60938 0.22266-0.96094 0.22266-0.73828 0-1.3203-0.22266-1.7383-0.66016-0.42188-0.44141-0.63281-1.043-0.63281-1.8125 0-0.73828 0.22266-1.3398 0.66016-1.7969 0.44141-0.45312 1.0312-0.68359 1.7695-0.68359 0.83984 0 1.4922 0.33203 1.9297 0.97266 0.44141 0.64844 0.67188 1.5898 0.67188 2.8086 0 1.1602-0.28125 2.0703-0.82031 2.75-0.55078 0.67969-1.2812 1.0195-2.1992 1.0195-0.25 0-0.5-0.027344-0.75-0.070312-0.26172-0.039063-0.51953-0.10938-0.78906-0.20703zm1.957-3.0898c0.44141 0 0.79297-0.15234 1.0508-0.45312 0.26172-0.29688 0.39062-0.71875 0.39062-1.25 0-0.51953-0.12891-0.9375-0.39062-1.2383-0.25781-0.30078-0.60938-0.46094-1.0508-0.46094-0.4375 0-0.78906 0.16016-1.0469 0.46094-0.26172 0.30078-0.39062 0.71875-0.39062 1.2383 0 0.53125 0.12891 0.95312 0.39062 1.25 0.25781 0.30078 0.60938 0.45312 1.0469 0.45312z"/></g></g><g/><g transform="matrix(1.21 0 0 1.21 -38.004 -66.082)"><g><g transform="translate(130.53 317.99)"><path d="m6.4219-8.4609v1.1523c-0.45703-0.21484-0.87891-0.37109-1.2734-0.48047-0.41016-0.09375-0.79297-0.15625-1.1523-0.15625-0.64844 0-1.1523 0.13281-1.5 0.375-0.34766 0.25-0.51562 0.60937-0.51562 1.0664 0 0.38281 0.10938 0.68359 0.34766 0.875 0.22656 0.20312 0.67188 0.35938 1.3203 0.48047l0.71875 0.14453c0.875 0.16797 1.5234 0.46875 1.9453 0.88672 0.41797 0.43359 0.63672 0.99609 0.63672 1.707 0 0.85156-0.28906 1.4844-0.85156 1.918-0.57812 0.43359-1.4062 0.64844-2.4961 0.64844-0.42187 0-0.86719-0.046875-1.332-0.13281-0.46875-0.082031-0.94922-0.21484-1.4414-0.40625v-1.2266c0.48047 0.27734 0.94922 0.48047 1.4023 0.61328 0.45703 0.14453 0.91406 0.20312 1.3711 0.20312 0.67188 0 1.1875-0.13281 1.5586-0.39453 0.35938-0.26562 0.55078-0.63672 0.55078-1.1406 0-0.43359-0.13281-0.76953-0.39453-1.0078-0.26562-0.23828-0.69531-0.42187-1.2969-0.53906l-0.71875-0.14453c-0.89062-0.16797-1.5234-0.44531-1.9219-0.82812-0.39453-0.37109-0.58594-0.88672-0.58594-1.5586 0-0.76953 0.26172-1.3828 0.81641-1.8242 0.53906-0.44531 1.293-0.67188 2.2539-0.67188 0.41016 0 0.81641 0.035156 1.25 0.10547 0.41797 0.074219 0.85156 0.19141 1.3086 0.33594z"/></g><g transform="translate(138.14 317.99)"><path d="m1.1289-6.5625h1.0781v6.5625h-1.0781zm0-2.5586h1.0781v1.3672h-1.0781z"/></g><g transform="translate(141.48 317.99)"><path d="m6.2383-5.3047c0.26562-0.48047 0.58984-0.82812 0.96094-1.0664 0.37109-0.23047 0.81641-0.34766 1.332-0.34766 0.67188 0 1.1992 0.23828 1.5742 0.71875 0.37109 0.48047 0.5625 1.1641 0.5625 2.0391v3.9609h-1.0781v-3.9258c0-0.62109-0.12109-1.0898-0.33594-1.4023-0.23047-0.30078-0.56641-0.45703-1.0234-0.45703-0.5625 0-1.0078 0.19141-1.332 0.56641-0.32422 0.37109-0.47656 0.875-0.47656 1.5117v3.707h-1.082v-3.9258c0-0.62109-0.12109-1.0898-0.33594-1.4023-0.22656-0.30078-0.57422-0.45703-1.0312-0.45703-0.55078 0-0.99609 0.19141-1.3203 0.56641-0.32422 0.37109-0.48047 0.875-0.48047 1.5117v3.707h-1.0781v-6.5625h1.0781v1.0195c0.23828-0.39844 0.53906-0.69531 0.88672-0.89062 0.33594-0.19141 0.74609-0.28516 1.2266-0.28516 0.48047 0 0.875 0.11719 1.2109 0.35938 0.33594 0.23828 0.57422 0.59766 0.74219 1.0547z"/></g><g transform="translate(153.17 317.99)"><path d="m1.1289-6.5625h1.0781v6.5625h-1.0781zm0-2.5586h1.0781v1.3672h-1.0781z"/></g><g transform="translate(156.5 317.99)"><path d="m1.1289-9.1211h1.0781v9.1211h-1.0781z"/></g><g transform="translate(159.83 317.99)"><path d="m4.1172-3.3008c-0.87891 0-1.4766 0.10938-1.8125 0.30078-0.33594 0.20312-0.50391 0.53906-0.50391 1.0195 0 0.38281 0.12109 0.69531 0.37109 0.91406 0.25391 0.22656 0.60156 0.33594 1.0312 0.33594 0.60156 0 1.082-0.20703 1.4414-0.63672 0.35938-0.42187 0.53906-0.98437 0.53906-1.6914v-0.24219zm2.1484-0.44141v3.7422h-1.082v-0.99609c-0.25 0.40625-0.5625 0.69531-0.92188 0.875-0.36328 0.17969-0.81641 0.27734-1.3477 0.27734-0.67187 0-1.2109-0.17969-1.6055-0.55078-0.39844-0.375-0.58984-0.87891-0.58984-1.5117 0-0.73438 0.24219-1.2852 0.74609-1.668 0.49219-0.375 1.2227-0.56641 2.207-0.56641h1.5117v-0.10547c0-0.49219-0.16797-0.87891-0.49219-1.1523-0.32422-0.26562-0.78125-0.41016-1.3672-0.41016-0.38281 0-0.74609 0.046875-1.1055 0.14453-0.35938 0.097656-0.69531 0.22656-1.0195 0.39453v-0.99609c0.38672-0.14062 0.76953-0.26172 1.1406-0.33594 0.37109-0.070313 0.73047-0.11719 1.0938-0.11719 0.94531 0 1.6562 0.25 2.1211 0.74219 0.46875 0.49219 0.71094 1.2383 0.71094 2.2344z"/></g><g transform="translate(167.19 317.99)"><path d="m4.9336-5.5547c-0.12109-0.074218-0.25391-0.12109-0.39844-0.15625-0.14453-0.023437-0.30078-0.050781-0.46875-0.050781-0.60938 0-1.0781 0.20703-1.4023 0.60156-0.33594 0.39453-0.49219 0.96094-0.49219 1.7031v3.457h-1.0781v-6.5625h1.0781v1.0195c0.21484-0.39844 0.51562-0.69531 0.875-0.89062 0.35938-0.19141 0.80469-0.28516 1.332-0.28516 0.074219 0 0.15625 0.011719 0.25391 0.011719 0.082032 0.011719 0.17969 0.023437 0.30078 0.046875z"/></g><g transform="translate(172.12 317.99)"><path d="m1.1289-6.5625h1.0781v6.5625h-1.0781zm0-2.5586h1.0781v1.3672h-1.0781z"/></g><g transform="translate(175.46 317.99)"><path d="m2.1953-8.4258v1.8633h2.2188v0.83984h-2.2188v3.5625c0 0.53906 0.074219 0.88672 0.21484 1.0312 0.14453 0.15625 0.44531 0.23047 0.90234 0.23047h1.1016v0.89844h-1.1016c-0.83984 0-1.418-0.15625-1.7266-0.46875-0.3125-0.3125-0.46875-0.875-0.46875-1.6914v-3.5625h-0.79297v-0.83984h0.79297v-1.8633z"/></g><g transform="translate(180.16 317.99)"><path d="m3.8633 0.60156c-0.3125 0.76563-0.60938 1.2812-0.89844 1.5234-0.28906 0.23828-0.67188 0.35938-1.1523 0.35938h-0.86328v-0.89844h0.63672c0.28516 0 0.51562-0.074219 0.68359-0.21875 0.16797-0.14453 0.34766-0.46875 0.55078-0.99609l0.19141-0.48047-2.6523-6.4531h1.1406l2.0508 5.1328 2.0547-5.1328h1.1367z"/></g><g transform="translate(191.08 317.99)"><path d="m2.1953-8.4258v1.8633h2.2188v0.83984h-2.2188v3.5625c0 0.53906 0.074219 0.88672 0.21484 1.0312 0.14453 0.15625 0.44531 0.23047 0.90234 0.23047h1.1016v0.89844h-1.1016c-0.83984 0-1.418-0.15625-1.7266-0.46875-0.3125-0.3125-0.46875-0.875-0.46875-1.6914v-3.5625h-0.79297v-0.83984h0.79297v-1.8633z"/></g><g transform="translate(195.78 317.99)"><path d="m6.7422-3.5508v0.52734h-4.9531c0.046876 0.74219 0.26172 1.3203 0.67188 1.7031 0.39453 0.38281 0.94531 0.57812 1.668 0.57812 0.40625 0 0.81641-0.050781 1.1992-0.14453 0.38281-0.097656 0.78125-0.25391 1.1641-0.46875v1.0195c-0.38281 0.16797-0.78125 0.30078-1.1875 0.37109-0.41016 0.074219-0.82813 0.12109-1.2383 0.12109-1.0547 0-1.8828-0.30078-2.4961-0.89844-0.60937-0.60156-0.91016-1.4297-0.91016-2.4727 0-1.0703 0.28906-1.9219 0.86328-2.5586 0.57812-0.62109 1.3672-0.94531 2.3516-0.94531 0.89062 0 1.5859 0.28516 2.1016 0.85156 0.50391 0.57422 0.76563 1.3438 0.76563 2.3164zm-1.0781-0.3125c-0.011718-0.58984-0.17969-1.0586-0.49219-1.418-0.32422-0.34766-0.75781-0.52734-1.2852-0.52734-0.59766 0-1.0781 0.17969-1.4375 0.51562-0.35938 0.33594-0.57812 0.81641-0.625 1.4297z"/></g><g transform="translate(203.16 317.99)"><path d="m5.3164-6.3711v1.0195c-0.3125-0.14453-0.625-0.26563-0.94922-0.34766-0.33594-0.074219-0.67188-0.12109-1.0195-0.12109-0.53906 0-0.94922 0.085937-1.2109 0.25391-0.26562 0.16797-0.39844 0.40625-0.39844 0.73047 0 0.25 0.097657 0.44531 0.28906 0.58984 0.19141 0.14062 0.57812 0.28516 1.1523 0.40625l0.37109 0.082032c0.76953 0.16797 1.3086 0.41016 1.6328 0.69922 0.3125 0.29688 0.48047 0.71875 0.48047 1.2461 0 0.61328-0.23828 1.0938-0.71875 1.4414-0.48047 0.35938-1.1523 0.52734-1.9922 0.52734-0.35938 0-0.72266-0.035156-1.1055-0.097656-0.38281-0.058594-0.78125-0.15625-1.1992-0.29687v-1.1172c0.39453 0.21484 0.79297 0.37109 1.1758 0.46875 0.38281 0.10547 0.76953 0.15625 1.1523 0.15625 0.50391 0 0.89844-0.085937 1.1758-0.25391 0.26172-0.16797 0.40625-0.41797 0.40625-0.74219 0-0.28906-0.10547-0.51563-0.29688-0.67188-0.19531-0.15625-0.625-0.3125-1.2969-0.45703l-0.37109-0.085937c-0.67188-0.14453-1.1641-0.35938-1.4531-0.64844-0.30078-0.28516-0.44531-0.68359-0.44531-1.1992 0-0.60938 0.21484-1.0898 0.64844-1.4258 0.43359-0.33594 1.0547-0.50391 1.8711-0.50391 0.39844 0 0.76953 0.035156 1.1289 0.09375 0.34766 0.0625 0.67188 0.14453 0.97266 0.25391z"/></g><g transform="translate(209.42 317.99)"><path d="m2.1953-8.4258v1.8633h2.2188v0.83984h-2.2188v3.5625c0 0.53906 0.074219 0.88672 0.21484 1.0312 0.14453 0.15625 0.44531 0.23047 0.90234 0.23047h1.1016v0.89844h-1.1016c-0.83984 0-1.418-0.15625-1.7266-0.46875-0.3125-0.3125-0.46875-0.875-0.46875-1.6914v-3.5625h-0.79297v-0.83984h0.79297v-1.8633z"/></g><g transform="translate(217.94 317.99)"><path d="m5.9531-4.043c0-0.57812-0.13281-1.0078-0.375-1.3203-0.25-0.30078-0.60938-0.45703-1.0781-0.45703-0.32422 0-0.63672 0.085937-0.92578 0.25391-0.28516 0.16797-0.55078 0.39453-0.76562 0.70703-0.23047 0.3125-0.41016 0.69531-0.53906 1.1289-0.13281 0.42969-0.19531 0.86328-0.19531 1.293 0 0.55469 0.12109 0.97266 0.375 1.2617 0.23828 0.30078 0.59766 0.44531 1.0664 0.44531 0.33594 0 0.64844-0.074219 0.9375-0.24219 0.28516-0.15625 0.53906-0.38281 0.75391-0.69531 0.21875-0.3125 0.39844-0.69531 0.53906-1.1289 0.13281-0.42969 0.20703-0.85156 0.20703-1.2461zm-3.3359-1.5234c0.28516-0.375 0.62109-0.66016 1.0195-0.85547 0.38281-0.19141 0.82812-0.29688 1.3086-0.29688 0.67188 0 1.1875 0.22656 1.5586 0.66016 0.37109 0.44141 0.5625 1.0547 0.5625 1.8477 0 0.64844-0.11719 1.2695-0.34766 1.8594-0.23828 0.58594-0.5625 1.1172-0.99609 1.5703-0.28516 0.3125-0.62109 0.55469-0.98438 0.71094-0.35938 0.14062-0.74219 0.22656-1.1367 0.22656-0.46875 0-0.86719-0.097656-1.1758-0.27734-0.3125-0.19141-0.55469-0.48047-0.71094-0.86328l-0.67188 3.4688h-1.0664l1.75-9.0469h1.082z"/></g><g transform="translate(225.55 319.96)"><path d="m5.0664-5.9219-0.16016 0.80469c-0.27734-0.14062-0.55469-0.25-0.82422-0.32422-0.26953-0.078125-0.53906-0.12109-0.78906-0.12109-0.49609 0-0.89062 0.10938-1.1836 0.32812-0.29688 0.21875-0.4375 0.50391-0.4375 0.85938 0 0.19922 0.050781 0.35156 0.16016 0.45312 0.10938 0.10938 0.38672 0.21875 0.83984 0.33594l0.49609 0.125c0.55469 0.15234 0.94922 0.33594 1.168 0.55469s0.32422 0.52734 0.32422 0.93359c0 0.62109-0.24219 1.1172-0.73047 1.5039-0.48438 0.38281-1.125 0.57812-1.9141 0.57812-0.32812 0-0.65625-0.035156-0.98438-0.09375-0.32422-0.058594-0.65234-0.14844-0.98047-0.28516l0.16797-0.85547c0.30078 0.19141 0.60547 0.33594 0.90625 0.42969 0.30469 0.097656 0.61328 0.14062 0.91797 0.14062 0.51172 0 0.92188-0.10937 1.2422-0.34375 0.30859-0.22656 0.46875-0.53125 0.46875-0.89844 0-0.24609-0.066406-0.42969-0.19141-0.55469s-0.39453-0.24219-0.80078-0.35156l-0.49219-0.12891c-0.57422-0.14062-0.96094-0.30859-1.1602-0.50391-0.21094-0.19141-0.3125-0.46094-0.3125-0.8125 0-0.60547 0.23438-1.1094 0.70703-1.4961 0.46875-0.38672 1.0742-0.58984 1.832-0.58984 0.28516 0 0.57812 0.027344 0.86328 0.078125 0.28516 0.050781 0.58203 0.13281 0.86719 0.23438z"/></g></g></g><path transform="matrix(1 0 0 -1 0 329.07)" d="m47.105 61.034h-3.5" fill="none" stroke="#000" stroke-linejoin="round" stroke-miterlimit="10" stroke-width=".8"/><g transform="matrix(1.1 0 0 1.1 -3.2044 -26.819)"><g transform="translate(24.2 271.83)"><path d="m3.1797-6.6406c-0.50781 0-0.89063 0.25-1.1484 0.75-0.26172 0.5-0.38281 1.25-0.38281 2.25s0.12109 1.75 0.38281 2.25c0.25781 0.5 0.64062 0.75 1.1484 0.75 0.51172 0 0.89062-0.25 1.1484-0.75 0.25-0.5 0.38281-1.25 0.38281-2.25s-0.13281-1.75-0.38281-2.25c-0.25781-0.5-0.63672-0.75-1.1484-0.75zm0-0.78125c0.80859 0 1.4297 0.33203 1.8711 0.97266 0.42969 0.64844 0.64844 1.5898 0.64844 2.8086 0 1.2305-0.21875 2.1719-0.64844 2.8125-0.44141 0.63672-1.0625 0.95703-1.8789 0.95703-0.82031 0-1.4414-0.32031-1.8711-0.95703-0.42969-0.64062-0.64062-1.582-0.64062-2.8125 0-1.2188 0.21094-2.1602 0.64062-2.8086 0.42969-0.64062 1.0586-0.97266 1.8789-0.97266z"/></g><g transform="translate(30.56 271.83)"><path d="m1.0703-1.2383h1.0312v1.2383h-1.0312z"/></g><g transform="translate(33.74 271.83)"><path d="m1.0781-7.2891h3.8711v0.82812h-2.9688v1.7891c0.14062-0.046875 0.28906-0.089844 0.42969-0.10938s0.28906-0.039062 0.42969-0.039062c0.80859 0 1.4492 0.23047 1.9297 0.67187 0.48047 0.44922 0.71875 1.0469 0.71875 1.8086 0 0.78906-0.25 1.3984-0.73828 1.8281-0.48828 0.43359-1.1797 0.64062-2.0586 0.64062-0.3125 0-0.62109-0.027344-0.94141-0.070312-0.32031-0.046875-0.64062-0.11719-0.98047-0.23047v-0.98828c0.28906 0.16016 0.58984 0.28125 0.91016 0.35938 0.30859 0.082031 0.64062 0.10938 0.99219 0.10938 0.55859 0 1.0078-0.13672 1.3398-0.4375 0.31641-0.30078 0.48828-0.69922 0.48828-1.2109 0-0.5-0.17188-0.89844-0.48828-1.1992-0.33203-0.30078-0.78125-0.44922-1.3398-0.44922-0.26172 0-0.53125 0.027343-0.79297 0.089843-0.25781 0.058594-0.52734 0.14844-0.80078 0.26953z"/></g></g><path transform="matrix(1 0 0 -1 0 329.07)" d="m47.105 111.43h-3.5" fill="none" stroke="#000" stroke-linejoin="round" stroke-miterlimit="10" stroke-width=".8"/><g transform="matrix(1.1 0 0 1.1 -3.2165 -21.779)"><g transform="translate(24.2 221.43)"><path d="m3.1797-6.6406c-0.50781 0-0.89063 0.25-1.1484 0.75-0.26172 0.5-0.38281 1.25-0.38281 2.25s0.12109 1.75 0.38281 2.25c0.25781 0.5 0.64062 0.75 1.1484 0.75 0.51172 0 0.89062-0.25 1.1484-0.75 0.25-0.5 0.38281-1.25 0.38281-2.25s-0.13281-1.75-0.38281-2.25c-0.25781-0.5-0.63672-0.75-1.1484-0.75zm0-0.78125c0.80859 0 1.4297 0.33203 1.8711 0.97266 0.42969 0.64844 0.64844 1.5898 0.64844 2.8086 0 1.2305-0.21875 2.1719-0.64844 2.8125-0.44141 0.63672-1.0625 0.95703-1.8789 0.95703-0.82031 0-1.4414-0.32031-1.8711-0.95703-0.42969-0.64062-0.64062-1.582-0.64062-2.8125 0-1.2188 0.21094-2.1602 0.64062-2.8086 0.42969-0.64062 1.0586-0.97266 1.8789-0.97266z"/></g><g transform="translate(30.56 221.43)"><path d="m1.0703-1.2383h1.0312v1.2383h-1.0312z"/></g><g transform="translate(33.74 221.43)"><path d="m3.3008-4.0391c-0.44141 0-0.78906 0.16016-1.0508 0.46094-0.26172 0.29688-0.39062 0.71875-0.39062 1.2383 0 0.53125 0.12891 0.94922 0.39062 1.25 0.26172 0.30078 0.60938 0.44922 1.0508 0.44922 0.4375 0 0.78906-0.14844 1.0508-0.44922 0.25781-0.30078 0.38672-0.71875 0.38672-1.25 0-0.51953-0.12891-0.94141-0.38672-1.2383-0.26172-0.30078-0.61328-0.46094-1.0508-0.46094zm1.9609-3.0898v0.89844c-0.25-0.12109-0.5-0.21094-0.75-0.26953-0.26172-0.058594-0.51172-0.089844-0.75-0.089844-0.66016 0-1.1602 0.21875-1.5 0.66016-0.33984 0.44141-0.54297 1.1094-0.58203 1.9883 0.19141-0.27734 0.42969-0.5 0.71875-0.64844 0.29297-0.14844 0.61328-0.23047 0.96094-0.23047 0.73047 0 1.3125 0.23047 1.7305 0.67187 0.42188 0.4375 0.64062 1.0469 0.64062 1.8086 0 0.75-0.23047 1.3516-0.67188 1.8008-0.4375 0.44922-1.0273 0.66797-1.7578 0.66797-0.83984 0-1.4922-0.32031-1.9297-0.95703-0.44922-0.64062-0.67188-1.582-0.67188-2.8125 0-1.1484 0.26953-2.0703 0.82031-2.75 0.53906-0.67969 1.2812-1.0312 2.1992-1.0312 0.24219 0 0.49219 0.03125 0.75 0.070313 0.25 0.050781 0.51172 0.12109 0.79297 0.22266z"/></g></g><path transform="matrix(1 0 0 -1 0 329.07)" d="m47.105 161.83h-3.5" fill="none" stroke="#000" stroke-linejoin="round" stroke-miterlimit="10" stroke-width=".8"/><g transform="matrix(1.1 0 0 1.1 -3.2056 -16.739)"><g transform="translate(24.2 171.03)"><path d="m3.1797-6.6406c-0.50781 0-0.89063 0.25-1.1484 0.75-0.26172 0.5-0.38281 1.25-0.38281 2.25s0.12109 1.75 0.38281 2.25c0.25781 0.5 0.64062 0.75 1.1484 0.75 0.51172 0 0.89062-0.25 1.1484-0.75 0.25-0.5 0.38281-1.25 0.38281-2.25s-0.13281-1.75-0.38281-2.25c-0.25781-0.5-0.63672-0.75-1.1484-0.75zm0-0.78125c0.80859 0 1.4297 0.33203 1.8711 0.97266 0.42969 0.64844 0.64844 1.5898 0.64844 2.8086 0 1.2305-0.21875 2.1719-0.64844 2.8125-0.44141 0.63672-1.0625 0.95703-1.8789 0.95703-0.82031 0-1.4414-0.32031-1.8711-0.95703-0.42969-0.64062-0.64062-1.582-0.64062-2.8125 0-1.2188 0.21094-2.1602 0.64062-2.8086 0.42969-0.64062 1.0586-0.97266 1.8789-0.97266z"/></g><g transform="translate(30.56 171.03)"><path d="m1.0703-1.2383h1.0312v1.2383h-1.0312z"/></g><g transform="translate(33.74 171.03)"><path d="m0.82031-7.2891h4.6914v0.41797l-2.6523 6.8711h-1.0312l2.4922-6.4609h-3.5z"/></g></g><path transform="matrix(1 0 0 -1 0 329.07)" d="m47.105 212.23h-3.5" fill="none" stroke="#000" stroke-linejoin="round" stroke-miterlimit="10" stroke-width=".8"/><g transform="matrix(1.1 0 0 1.1 -3.214 -11.699)"><g transform="translate(24.2 120.63)"><path d="m3.1797-6.6406c-0.50781 0-0.89063 0.25-1.1484 0.75-0.26172 0.5-0.38281 1.25-0.38281 2.25s0.12109 1.75 0.38281 2.25c0.25781 0.5 0.64062 0.75 1.1484 0.75 0.51172 0 0.89062-0.25 1.1484-0.75 0.25-0.5 0.38281-1.25 0.38281-2.25s-0.13281-1.75-0.38281-2.25c-0.25781-0.5-0.63672-0.75-1.1484-0.75zm0-0.78125c0.80859 0 1.4297 0.33203 1.8711 0.97266 0.42969 0.64844 0.64844 1.5898 0.64844 2.8086 0 1.2305-0.21875 2.1719-0.64844 2.8125-0.44141 0.63672-1.0625 0.95703-1.8789 0.95703-0.82031 0-1.4414-0.32031-1.8711-0.95703-0.42969-0.64062-0.64062-1.582-0.64062-2.8125 0-1.2188 0.21094-2.1602 0.64062-2.8086 0.42969-0.64062 1.0586-0.97266 1.8789-0.97266z"/></g><g transform="translate(30.56 120.63)"><path d="m1.0703-1.2383h1.0312v1.2383h-1.0312z"/></g><g transform="translate(33.74 120.63)"><path d="m3.1797-3.4609c-0.46875 0-0.83984 0.13281-1.1094 0.38281-0.26953 0.25-0.39844 0.58984-0.39844 1.0273 0 0.44141 0.12891 0.78906 0.39844 1.0391 0.26953 0.25 0.64063 0.37109 1.1094 0.37109 0.46094 0 0.83203-0.12109 1.1016-0.37891 0.26953-0.25 0.41016-0.58984 0.41016-1.0312 0-0.4375-0.14062-0.77734-0.40234-1.0273-0.26953-0.25-0.64062-0.38281-1.1094-0.38281zm-0.98828-0.41797c-0.42188-0.10156-0.75-0.30078-0.99219-0.58984-0.23828-0.29297-0.34766-0.64062-0.34766-1.0625 0-0.57812 0.19922-1.0391 0.61719-1.3789 0.41016-0.33984 0.98047-0.51172 1.7109-0.51172 0.71875 0 1.2891 0.17188 1.7109 0.51172 0.41016 0.33984 0.62109 0.80078 0.62109 1.3789 0 0.42188-0.12109 0.76953-0.36328 1.0625-0.23828 0.28906-0.55859 0.48828-0.97656 0.58984 0.46875 0.10938 0.83984 0.32812 1.1094 0.64844 0.25781 0.32031 0.39844 0.71875 0.39844 1.1797 0 0.71094-0.21875 1.25-0.64844 1.6211-0.44141 0.37891-1.0625 0.55859-1.8594 0.55859-0.80078 0-1.4219-0.17969-1.8516-0.55859-0.42969-0.37109-0.64062-0.91016-0.64062-1.6211 0-0.46094 0.12891-0.85938 0.39844-1.1797 0.26172-0.32031 0.63281-0.53906 1.1133-0.64844zm-0.36328-1.5625c0 0.38281 0.11328 0.67969 0.35156 0.89062 0.24219 0.21094 0.57031 0.3125 1 0.3125 0.42187 0 0.75-0.10156 0.99219-0.3125 0.23828-0.21094 0.35938-0.50781 0.35938-0.89062 0-0.37891-0.12109-0.66797-0.35938-0.87891-0.24219-0.21094-0.57031-0.32031-0.99219-0.32031-0.42969 0-0.75781 0.10938-1 0.32031-0.23828 0.21094-0.35156 0.5-0.35156 0.87891z"/></g></g><path transform="matrix(1 0 0 -1 0 329.07)" d="m47.105 262.63h-3.5" fill="none" stroke="#000" stroke-linejoin="round" stroke-miterlimit="10" stroke-width=".8"/><g transform="matrix(1.1 0 0 1.1 -3.213 -6.6587)"><g transform="translate(24.2 70.234)"><path d="m3.1797-6.6406c-0.50781 0-0.89063 0.25-1.1484 0.75-0.26172 0.5-0.38281 1.25-0.38281 2.25s0.12109 1.75 0.38281 2.25c0.25781 0.5 0.64062 0.75 1.1484 0.75 0.51172 0 0.89062-0.25 1.1484-0.75 0.25-0.5 0.38281-1.25 0.38281-2.25s-0.13281-1.75-0.38281-2.25c-0.25781-0.5-0.63672-0.75-1.1484-0.75zm0-0.78125c0.80859 0 1.4297 0.33203 1.8711 0.97266 0.42969 0.64844 0.64844 1.5898 0.64844 2.8086 0 1.2305-0.21875 2.1719-0.64844 2.8125-0.44141 0.63672-1.0625 0.95703-1.8789 0.95703-0.82031 0-1.4414-0.32031-1.8711-0.95703-0.42969-0.64062-0.64062-1.582-0.64062-2.8125 0-1.2188 0.21094-2.1602 0.64062-2.8086 0.42969-0.64062 1.0586-0.97266 1.8789-0.97266z"/></g><g transform="translate(30.56 70.234)"><path d="m1.0703-1.2383h1.0312v1.2383h-1.0312z"/></g><g transform="translate(33.74 70.234)"><path d="m1.1016-0.14844v-0.90234c0.23828 0.12109 0.48828 0.21094 0.75 0.26953 0.25 0.0625 0.5 0.089844 0.75 0.089844 0.63672 0 1.1367-0.20703 1.4766-0.64844 0.34375-0.44141 0.54297-1.1016 0.60156-2-0.19922 0.28125-0.44141 0.5-0.71875 0.64844-0.28906 0.15234-0.60938 0.22266-0.96094 0.22266-0.73828 0-1.3203-0.22266-1.7383-0.66016-0.42188-0.44141-0.63281-1.043-0.63281-1.8125 0-0.73828 0.22266-1.3398 0.66016-1.7969 0.44141-0.45312 1.0312-0.68359 1.7695-0.68359 0.83984 0 1.4922 0.33203 1.9297 0.97266 0.44141 0.64844 0.67188 1.5898 0.67188 2.8086 0 1.1602-0.28125 2.0703-0.82031 2.75-0.55078 0.67969-1.2812 1.0195-2.1992 1.0195-0.25 0-0.5-0.027344-0.75-0.070312-0.26172-0.039063-0.51953-0.10938-0.78906-0.20703zm1.957-3.0898c0.44141 0 0.79297-0.15234 1.0508-0.45312 0.26172-0.29688 0.39062-0.71875 0.39062-1.25 0-0.51953-0.12891-0.9375-0.39062-1.2383-0.25781-0.30078-0.60938-0.46094-1.0508-0.46094-0.4375 0-0.78906 0.16016-1.0469 0.46094-0.26172 0.30078-0.39062 0.71875-0.39062 1.2383 0 0.53125 0.12891 0.95312 0.39062 1.25 0.25781 0.30078 0.60938 0.45312 1.0469 0.45312z"/></g></g><path transform="matrix(1 0 0 -1 0 329.07)" d="m47.105 313.03h-3.5" fill="none" stroke="#000" stroke-linejoin="round" stroke-miterlimit="10" stroke-width=".8"/><g transform="matrix(1.1 0 0 1.1 -3.237 -1.6187)"><g transform="translate(24.2 19.834)"><path d="m1.2383-0.82812h1.6133v-5.5625l-1.75 0.35156v-0.90234l1.7383-0.34766h0.98828v6.4609h1.6133v0.82812h-4.2031z"/></g><g transform="translate(30.56 19.834)"><path d="m1.0703-1.2383h1.0312v1.2383h-1.0312z"/></g><g transform="translate(33.74 19.834)"><path d="m3.1797-6.6406c-0.50781 0-0.89063 0.25-1.1484 0.75-0.26172 0.5-0.38281 1.25-0.38281 2.25s0.12109 1.75 0.38281 2.25c0.25781 0.5 0.64062 0.75 1.1484 0.75 0.51172 0 0.89062-0.25 1.1484-0.75 0.25-0.5 0.38281-1.25 0.38281-2.25s-0.13281-1.75-0.38281-2.25c-0.25781-0.5-0.63672-0.75-1.1484-0.75zm0-0.78125c0.80859 0 1.4297 0.33203 1.8711 0.97266 0.42969 0.64844 0.64844 1.5898 0.64844 2.8086 0 1.2305-0.21875 2.1719-0.64844 2.8125-0.44141 0.63672-1.0625 0.95703-1.8789 0.95703-0.82031 0-1.4414-0.32031-1.8711-0.95703-0.42969-0.64062-0.64062-1.582-0.64062-2.8125 0-1.2188 0.21094-2.1602 0.64062-2.8086 0.42969-0.64062 1.0586-0.97266 1.8789-0.97266z"/></g></g><g/><g transform="matrix(1.21 0 0 1.21 -2.7314 -31.374)"><g><g transform="translate(16.325 209.6)"><path d="m-8.7461-1.1758v-1.1875h8.7461v1.1875z"/></g><g transform="translate(16.325 206.06)"><path d="m-5.5664-5.4492h-3.5547v-1.0781h9.1211v1.0781h-0.98438c0.39453 0.23047 0.68359 0.51562 0.86328 0.86328 0.17969 0.35156 0.27734 0.75781 0.27734 1.2383 0 0.79297-0.3125 1.4414-0.9375 1.9453-0.62109 0.50391-1.4609 0.74219-2.4961 0.74219-1.0312 0-1.8594-0.23828-2.4961-0.74219-0.62109-0.50391-0.94531-1.1523-0.94531-1.9453 0-0.48047 0.09375-0.88672 0.28516-1.2383 0.19531-0.34766 0.48047-0.63281 0.86719-0.86328zm2.2891 3.6719c0.79297 0 1.418-0.15625 1.875-0.48047 0.45312-0.32031 0.67188-0.76563 0.67188-1.3438 0-0.57422-0.21875-1.0195-0.67188-1.3555-0.45703-0.32422-1.082-0.49219-1.875-0.49219-0.78906 0-1.4023 0.16797-1.8594 0.49219-0.45703 0.33594-0.68359 0.78125-0.68359 1.3555 0 0.57812 0.22656 1.0234 0.68359 1.3438 0.45703 0.32422 1.0703 0.48047 1.8594 0.48047z"/></g><g transform="translate(16.325 198.44)"><path d="m-3.5508-6.7422h0.52734v4.9531c0.74219-0.046876 1.3203-0.26172 1.7031-0.67188 0.38281-0.39453 0.57812-0.94531 0.57812-1.668 0-0.40625-0.050781-0.81641-0.14453-1.1992-0.097656-0.38281-0.25391-0.78125-0.46875-1.1641h1.0195c0.16797 0.38281 0.30078 0.78125 0.37109 1.1875 0.074219 0.41016 0.12109 0.82813 0.12109 1.2383 0 1.0547-0.30078 1.8828-0.89844 2.4961-0.60156 0.60937-1.4297 0.91016-2.4727 0.91016-1.0703 0-1.9219-0.28906-2.5586-0.86328-0.62109-0.57812-0.94531-1.3672-0.94531-2.3516 0-0.89062 0.28516-1.5859 0.85156-2.1016 0.57422-0.50391 1.3438-0.76563 2.3164-0.76563zm-0.3125 1.0781c-0.58984 0.011718-1.0586 0.17969-1.418 0.49219-0.34766 0.32422-0.52734 0.75781-0.52734 1.2852 0 0.59766 0.17969 1.0781 0.51562 1.4375 0.33594 0.35938 0.81641 0.57812 1.4297 0.625z"/></g><g transform="translate(16.325 191.06)"><path d="m-3.9609-6.5898h3.9609v1.082h-3.9258c-0.62109 0-1.0781 0.13281-1.3906 0.37109-0.3125 0.24219-0.46875 0.60156-0.46875 1.082 0 0.58594 0.19141 1.043 0.56641 1.3789 0.37109 0.33594 0.875 0.50391 1.5117 0.50391h3.707v1.0781h-6.5625v-1.0781h1.0195c-0.38672-0.25391-0.68359-0.55078-0.87891-0.91406-0.19141-0.34766-0.29688-0.75391-0.29688-1.2109 0-0.74219 0.23828-1.3203 0.70703-1.7031s1.1523-0.58984 2.0508-0.58984z"/></g><g transform="translate(16.325 183.45)"><path d="m-8.4258-2.1953h1.8633v-2.2188h0.83984v2.2188h3.5625c0.53906 0 0.88672-0.074219 1.0312-0.21484 0.15625-0.14453 0.23047-0.44531 0.23047-0.90234v-1.1016h0.89844v1.1016c0 0.83984-0.15625 1.418-0.46875 1.7266-0.3125 0.3125-0.875 0.46875-1.6914 0.46875h-3.5625v0.79297h-0.83984v-0.79297h-1.8633z"/></g><g transform="translate(16.325 178.75)"><path d="m-6.5625-1.1289v-1.0781h6.5625v1.0781zm-2.5586 0v-1.0781h1.3672v1.0781z"/></g><g transform="translate(16.325 175.41)"><path d="m-9.1211-4.4531h0.90234v1.0312c0 0.38672 0.082031 0.66016 0.23828 0.80469 0.15625 0.15625 0.43359 0.23047 0.83984 0.23047h0.57812v-1.7773h0.83984v1.7773h5.7227v1.0781h-5.7227v1.0312h-0.83984v-1.0312h-0.45703c-0.71875 0-1.2617-0.16797-1.5977-0.50391-0.33594-0.33594-0.50391-0.875-0.50391-1.6211z"/></g><g transform="translate(16.325 171.19)"><path d="m-6.5625-1.1289v-1.0781h6.5625v1.0781zm-2.5586 0v-1.0781h1.3672v1.0781z"/></g><g transform="translate(16.325 167.85)"><path d="m-6.3125-5.8555h1.0078c-0.16797 0.3125-0.28906 0.61328-0.37109 0.92188-0.085938 0.3125-0.13281 0.61328-0.13281 0.92578 0 0.69531 0.23047 1.2461 0.67188 1.6328 0.44531 0.38281 1.0703 0.57422 1.8594 0.57422 0.80469 0 1.4297-0.19141 1.875-0.57422 0.44141-0.38672 0.66016-0.9375 0.66016-1.6328 0-0.3125-0.039062-0.61328-0.12109-0.92578-0.085938-0.30859-0.21484-0.60938-0.38281-0.92188h0.99219c0.14453 0.3125 0.25391 0.625 0.3125 0.93359 0.0625 0.32422 0.097656 0.67578 0.097656 1.0352 0 0.98438-0.30078 1.7734-0.92578 2.3516-0.60938 0.58594-1.4492 0.875-2.5078 0.875-1.0664 0-1.9062-0.28906-2.5195-0.875-0.60938-0.58984-0.92188-1.3945-0.92188-2.4258 0-0.33594 0.035156-0.66016 0.10547-0.97266 0.074219-0.30859 0.16797-0.62109 0.30078-0.92188z"/></g><g transform="translate(16.325 161.26)"><path d="m-3.3008-4.1172c0 0.87891 0.10938 1.4766 0.30078 1.8125 0.20312 0.33594 0.53906 0.50391 1.0195 0.50391 0.38281 0 0.69531-0.12109 0.91406-0.37109 0.22656-0.25391 0.33594-0.60156 0.33594-1.0312 0-0.60156-0.20703-1.082-0.63672-1.4414-0.42187-0.35938-0.98437-0.53906-1.6914-0.53906h-0.24219zm-0.44141-2.1484h3.7422v1.082h-0.99609c0.40625 0.25 0.69531 0.5625 0.875 0.92188 0.17969 0.36328 0.27734 0.81641 0.27734 1.3477 0 0.67187-0.17969 1.2109-0.55078 1.6055-0.375 0.39844-0.87891 0.58984-1.5117 0.58984-0.73438 0-1.2852-0.24219-1.668-0.74609-0.375-0.49219-0.56641-1.2227-0.56641-2.207v-1.5117h-0.10547c-0.49219 0-0.87891 0.16797-1.1523 0.49219-0.26562 0.32422-0.41016 0.78125-0.41016 1.3672 0 0.38281 0.046875 0.74609 0.14453 1.1055 0.097656 0.35938 0.22656 0.69531 0.39453 1.0195h-0.99609c-0.14062-0.38672-0.26172-0.76953-0.33594-1.1406-0.070313-0.37109-0.11719-0.73047-0.11719-1.0938 0-0.94531 0.25-1.6562 0.74219-2.1211 0.49219-0.46875 1.2383-0.71094 2.2344-0.71094z"/></g><g transform="translate(16.325 153.9)"><path d="m-8.4258-2.1953h1.8633v-2.2188h0.83984v2.2188h3.5625c0.53906 0 0.88672-0.074219 1.0312-0.21484 0.15625-0.14453 0.23047-0.44531 0.23047-0.90234v-1.1016h0.89844v1.1016c0 0.83984-0.15625 1.418-0.46875 1.7266-0.3125 0.3125-0.875 0.46875-1.6914 0.46875h-3.5625v0.79297h-0.83984v-0.79297h-1.8633z"/></g><g transform="translate(16.325 149.2)"><path d="m-6.5625-1.1289v-1.0781h6.5625v1.0781zm-2.5586 0v-1.0781h1.3672v1.0781z"/></g><g transform="translate(16.325 145.86)"><path d="m-5.8086-3.6719c0 0.57422 0.23047 1.0312 0.68359 1.3672 0.45703 0.33594 1.0703 0.50391 1.8477 0.50391 0.79297 0 1.4062-0.15625 1.8633-0.49219 0.45312-0.33594 0.67187-0.79297 0.67187-1.3789 0-0.57422-0.21875-1.0312-0.67187-1.3672-0.45703-0.33594-1.0703-0.50391-1.8633-0.50391-0.76562 0-1.3906 0.16797-1.8477 0.50391-0.45312 0.33594-0.68359 0.79297-0.68359 1.3672zm-0.91016 0c0-0.9375 0.3125-1.668 0.91016-2.207 0.61328-0.52734 1.4531-0.80469 2.5312-0.80469 1.082 0 1.9219 0.27734 2.5195 0.80469 0.61328 0.53906 0.91406 1.2695 0.91406 2.207 0 0.94922-0.30078 1.6914-0.91406 2.2188-0.59766 0.52734-1.4375 0.79297-2.5195 0.79297-1.0781 0-1.918-0.26562-2.5312-0.79297-0.59766-0.52734-0.91016-1.2695-0.91016-2.2188z"/></g><g transform="translate(16.325 138.52)"><path d="m-3.9609-6.5898h3.9609v1.082h-3.9258c-0.62109 0-1.0781 0.13281-1.3906 0.37109-0.3125 0.24219-0.46875 0.60156-0.46875 1.082 0 0.58594 0.19141 1.043 0.56641 1.3789 0.37109 0.33594 0.875 0.50391 1.5117 0.50391h3.707v1.0781h-6.5625v-1.0781h1.0195c-0.38672-0.25391-0.68359-0.55078-0.87891-0.91406-0.19141-0.34766-0.29688-0.75391-0.29688-1.2109 0-0.74219 0.23828-1.3203 0.70703-1.7031s1.1523-0.58984 2.0508-0.58984z"/></g><g transform="translate(16.325 127.1)"><path d="m-8.4258-2.1953h1.8633v-2.2188h0.83984v2.2188h3.5625c0.53906 0 0.88672-0.074219 1.0312-0.21484 0.15625-0.14453 0.23047-0.44531 0.23047-0.90234v-1.1016h0.89844v1.1016c0 0.83984-0.15625 1.418-0.46875 1.7266-0.3125 0.3125-0.875 0.46875-1.6914 0.46875h-3.5625v0.79297h-0.83984v-0.79297h-1.8633z"/></g><g transform="translate(16.325 122.4)"><path d="m-3.5508-6.7422h0.52734v4.9531c0.74219-0.046876 1.3203-0.26172 1.7031-0.67188 0.38281-0.39453 0.57812-0.94531 0.57812-1.668 0-0.40625-0.050781-0.81641-0.14453-1.1992-0.097656-0.38281-0.25391-0.78125-0.46875-1.1641h1.0195c0.16797 0.38281 0.30078 0.78125 0.37109 1.1875 0.074219 0.41016 0.12109 0.82813 0.12109 1.2383 0 1.0547-0.30078 1.8828-0.89844 2.4961-0.60156 0.60937-1.4297 0.91016-2.4727 0.91016-1.0703 0-1.9219-0.28906-2.5586-0.86328-0.62109-0.57812-0.94531-1.3672-0.94531-2.3516 0-0.89062 0.28516-1.5859 0.85156-2.1016 0.57422-0.50391 1.3438-0.76563 2.3164-0.76563zm-0.3125 1.0781c-0.58984 0.011718-1.0586 0.17969-1.418 0.49219-0.34766 0.32422-0.52734 0.75781-0.52734 1.2852 0 0.59766 0.17969 1.0781 0.51562 1.4375 0.33594 0.35938 0.81641 0.57812 1.4297 0.625z"/></g><g transform="translate(16.325 115.01)"><path d="m-6.3711-5.3164h1.0195c-0.14453 0.3125-0.26563 0.625-0.34766 0.94922-0.074219 0.33594-0.12109 0.67188-0.12109 1.0195 0 0.53906 0.085937 0.94922 0.25391 1.2109 0.16797 0.26562 0.40625 0.39844 0.73047 0.39844 0.25 0 0.44531-0.097657 0.58984-0.28906 0.14062-0.19141 0.28516-0.57812 0.40625-1.1523l0.082032-0.37109c0.16797-0.76953 0.41016-1.3086 0.69922-1.6328 0.29688-0.3125 0.71875-0.48047 1.2461-0.48047 0.61328 0 1.0938 0.23828 1.4414 0.71875 0.35938 0.48047 0.52734 1.1523 0.52734 1.9922 0 0.35938-0.035156 0.72266-0.097656 1.1055-0.058594 0.38281-0.15625 0.78125-0.29687 1.1992h-1.1172c0.21484-0.39453 0.37109-0.79297 0.46875-1.1758 0.10547-0.38281 0.15625-0.76953 0.15625-1.1523 0-0.50391-0.085937-0.89844-0.25391-1.1758-0.16797-0.26172-0.41797-0.40625-0.74219-0.40625-0.28906 0-0.51563 0.10547-0.67188 0.29688-0.15625 0.19531-0.3125 0.625-0.45703 1.2969l-0.085937 0.37109c-0.14453 0.67188-0.35938 1.1641-0.64844 1.4531-0.28516 0.30078-0.68359 0.44531-1.1992 0.44531-0.60938 0-1.0898-0.21484-1.4258-0.64844-0.33594-0.43359-0.50391-1.0547-0.50391-1.8711 0-0.39844 0.035156-0.76953 0.09375-1.1289 0.0625-0.34766 0.14453-0.67188 0.25391-0.97266z"/></g><g transform="translate(16.325 108.76)"><path d="m-8.4258-2.1953h1.8633v-2.2188h0.83984v2.2188h3.5625c0.53906 0 0.88672-0.074219 1.0312-0.21484 0.15625-0.14453 0.23047-0.44531 0.23047-0.90234v-1.1016h0.89844v1.1016c0 0.83984-0.15625 1.418-0.46875 1.7266-0.3125 0.3125-0.875 0.46875-1.6914 0.46875h-3.5625v0.79297h-0.83984v-0.79297h-1.8633z"/></g><g transform="translate(16.325 100.24)"><path d="m-4.043-5.9531c-0.57812 0-1.0078 0.13281-1.3203 0.375-0.30078 0.25-0.45703 0.60938-0.45703 1.0781 0 0.32422 0.085937 0.63672 0.25391 0.92578 0.16797 0.28516 0.39453 0.55078 0.70703 0.76562 0.3125 0.23047 0.69531 0.41016 1.1289 0.53906 0.42969 0.13281 0.86328 0.19531 1.293 0.19531 0.55469 0 0.97266-0.12109 1.2617-0.375 0.30078-0.23828 0.44531-0.59766 0.44531-1.0664 0-0.33594-0.074219-0.64844-0.24219-0.9375-0.15625-0.28516-0.38281-0.53906-0.69531-0.75391-0.3125-0.21875-0.69531-0.39844-1.1289-0.53906-0.42969-0.13281-0.85156-0.20703-1.2461-0.20703zm-1.5234 3.3359c-0.375-0.28516-0.66016-0.62109-0.85547-1.0195-0.19141-0.38281-0.29688-0.82812-0.29688-1.3086 0-0.67188 0.22656-1.1875 0.66016-1.5586 0.44141-0.37109 1.0547-0.5625 1.8477-0.5625 0.64844 0 1.2695 0.11719 1.8594 0.34766 0.58594 0.23828 1.1172 0.5625 1.5703 0.99609 0.3125 0.28516 0.55469 0.62109 0.71094 0.98438 0.14062 0.35938 0.22656 0.74219 0.22656 1.1367 0 0.46875-0.097656 0.86719-0.27734 1.1758-0.19141 0.3125-0.48047 0.55469-0.86328 0.71094l3.4688 0.67188v1.0664l-9.0469-1.75v-1.082z"/></g><g transform="translate(18.294 92.626)"><path d="m-6.125-1.418v-0.83203l6.125 1.1914v0.83203z"/></g></g></g><g fill="none" stroke="#000" stroke-linecap="square" stroke-miterlimit="10"><path transform="matrix(1 0 0 -1 0 329.07)" d="m71.457 313.03 6.0859-2.5469 5.9609-2.5469 5.8398-2.543 5.7148-2.5469 5.5859-2.5469 5.4688-2.543 5.3398-2.5469 5.2188-2.5469 5.0898-2.543 4.9688-2.5469 4.8476-2.543 4.7188-2.5469 4.5977-2.5469 4.4688-2.543 4.3477-2.5469 4.2266-2.5469 4.0977-2.543 3.9766-2.5469 3.8476-2.5469 3.7266-2.543 3.6016-2.5469 3.4805-2.543 3.3516-2.5469 3.2305-2.5469 3.1055-2.543 2.9805-2.5469 2.8594-2.5469 2.7305-2.543 2.6094-2.5469 2.4844-2.5469 2.3594-2.543 2.2383-2.5469 2.1094-2.543 1.9883-2.5469 1.8633-2.5469 1.7383-2.543 1.6172-2.5469 1.4883-2.5469 1.3672-2.543 1.2422-2.5469 1.1172-2.5469 0.99609-2.543 0.86719-2.5469 0.74609-2.543 0.6211-2.5469 0.49609-2.5469 0.375-2.543 0.24609-2.5469 0.125-2.5469v-2.543l-0.125-2.5469-0.24609-2.5469-0.375-2.543-0.49609-2.5469-0.6211-2.543-0.74609-2.5469-0.86719-2.5469-0.99609-2.543-1.1172-2.5469-1.2422-2.5469-1.3672-2.543-1.4883-2.5469-1.6172-2.5469-1.7383-2.543-1.8633-2.5469-1.9883-2.543-2.1094-2.5469-2.2383-2.5469-2.3594-2.543-2.4844-2.5469-2.6094-2.5469-2.7305-2.543-2.8594-2.5469-2.9805-2.5469-3.1055-2.543-3.2305-2.5469-3.3516-2.543-3.4805-2.5469-3.6016-2.5469-3.7266-2.543-3.8476-2.5469-3.9766-2.5469-4.0977-2.543-4.2266-2.5469-4.3477-2.5469-4.4688-2.543-4.5977-2.5469-4.7188-2.543-4.8476-2.5469-4.9688-2.5469-5.0898-2.543-5.2188-2.5469-5.3398-2.5469-5.4688-2.543-5.5859-2.5469-5.7148-2.5469-5.8398-2.543-5.9609-2.5469-6.0859-2.543" stroke-linejoin="round"/><path transform="matrix(1 0 0 -1 0 329.07)" d="m47.105 40.873v277.2" stroke-width=".8"/><path transform="matrix(1 0 0 -1 0 329.07)" d="m47.105 40.873h267.84" stroke-width=".8"/></g><g/></g></g><g stroke="#384b86" stroke-linecap="round" stroke-linejoin="round"><path d="m-15.007 304.21a6.7801 6.7801 0 0 1-6.7275 6.7799 6.7801 6.7801 0 0 1-6.8318-6.6747 6.7801 6.7801 0 0 1 6.6216-6.8834 6.7801 6.7801 0 0 1 6.9345 6.568z" fill="url(#radialGradient16435)" stroke-width=".22647" style="paint-order:markers fill stroke"/><g><g stroke-width=".22647"><path d="m-75.964 328.04c0 4.1378 0.23168 7.3028-3.906 7.3349-4.1377 0.0321-11.096-3.0808-11.16-7.2181-0.0642-4.1373 5.7982-9.4356 9.9349-9.5319 4.1367-0.0962 4.9991 5.0456 5.1274 9.1814z" fill="url(#radialGradient6297)" stop-color="#000000" style="-inkscape-stroke:none;font-variation-settings:normal;paint-order:markers fill stroke"/><path d="m-22.004 320.82c-5.6208 0.0725-10.084 2.641-9.997 5.753 0.0868 3.1124 4.6926 5.6033 10.315 5.579 5.6229-0.0241 10.158-2.5544 10.157-5.6672l-3e-3 -0.1763c-0.17535-3.1107-4.8498-5.561-10.47-5.4885zm-0.0326 4.5204c1.4762-4e-3 2.9655 0.23413 3.6209 0.38224-1.9481 0.69291-6.5275 0.47004-7.336 0.0498-0.0313-0.23376 1.6271-0.42662 3.7151-0.43202z" fill="url(#linearGradient10102)" stop-color="#000000" style="-inkscape-stroke:none;font-variation-settings:normal;paint-order:markers fill stroke"/><path d="m-27.582 324.76c2.3814 2.3814 10.083 1.3685 11.452 0" fill="none" stop-color="#000000" style="-inkscape-stroke:none;font-variation-settings:normal;paint-order:markers fill stroke"/></g><g transform="matrix(1.3469 0 0 1.3469 -21.079 218.42)" stroke-width=".16815"><rect x="-28.268" y="76.618" width="8.6694" height="8.4179" ry=".11691" fill="url(#linearGradient5375)" stop-color="#000000" style="-inkscape-stroke:none;font-variation-settings:normal;paint-order:markers fill stroke"/><path d="m-28.219 76.618h8.5027c0.06477 0 0.06493 0.15554 0.11691 0.11691l3.0562-2.2709c0.05199-0.03863 0.0667-0.01144 0.0019-0.01144h-6.386c-0.06477 0-0.01319-0.02254-0.07286 0.0027l-5.2282 2.2112c-0.05965 0.02523-0.05541-0.04847 0.0094-0.04847z" fill="url(#linearGradient3061)" stop-color="#000000" style="-inkscape-stroke:none;font-variation-settings:normal;paint-order:markers fill stroke"/><path d="m-19.602 84.894-0.11358-8.2758c-8.89e-4 -0.06476 0.0088-0.05114 0.0624-0.0875l3.0821-2.0903 0.03045 0.01233-0.03605 7.9375c-2.94e-4 0.06477-0.03921 0.03042-0.08894 0.07193l-3.0533 2.5487c-0.04973 0.04151 0.1178-0.05215 0.11691-0.11691z" fill="url(#radialGradient9683)" stop-color="#000000" style="-inkscape-stroke:none;font-variation-settings:normal;paint-order:markers fill stroke"/></g><path d="m-59.636 295.69-3.9003 5.4368c6.2977 0.0309 4.6215 3.6757 7.8041 5.913 4.6663 3.2803 8.7463 0.74704 10.043 5.5515l3.9155-5.2651c-3.4318-4.8807-5.409-1.5773-10.174-4.6645-3.3031-2.1403-1.6874-7.0378-7.6885-6.9716z" fill="url(#radialGradient9482)" stop-color="#000000" stroke-width=".22647" style="-inkscape-stroke:none;font-variation-settings:normal;paint-order:markers fill stroke"/></g></g><g transform="matrix(1.3831 0 0 1.3831 -8.6034 146.93)" stroke-linecap="round" stroke-linejoin="round"><path d="m-45.573 110.75a3.8559 3.8559 0 0 1-3.826 3.8558 3.8559 3.8559 0 0 1-3.8853-3.796 3.8559 3.8559 0 0 1 3.7657-3.9147 3.8559 3.8559 0 0 1 3.9437 3.7353z" fill="none" stroke="#8c2981" stroke-width=".28318" style="paint-order:markers fill stroke"/><path d="m-51.42 115.76a4.4463 4.4463 0 0 1-4.4118 4.4462 4.4463 4.4463 0 0 1-4.4802-4.3772 4.4463 4.4463 0 0 1 4.3423-4.514 4.4463 4.4463 0 0 1 4.5476 4.3072z" fill="url(#radialGradient9234)" stop-color="#000000" stroke="#384b86" stroke-width=".16374" style="-inkscape-stroke:none;font-variation-settings:normal;paint-order:markers fill stroke"/><path d="m-52.159 113.05a0.29979 0.29979 0 0 1-0.29747 0.29978 0.29979 0.29979 0 0 1-0.30208-0.29513 0.29979 0.29979 0 0 1 0.29278-0.30436 0.29979 0.29979 0 0 1 0.30662 0.29041z" fill="#8c2981" stroke="#8c2981" stroke-width=".063866" style="paint-order:markers fill stroke"/></g><path d="m-118.95 305.05c-0.73188-2.7597-0.4738-7.0453 2.0874-8.307 1.1925-0.58742 4.8997 0.0175 5.4877 1.9 0.55921 1.7903-2.0048 4.857-0.77406 4.5684 0.95794-0.22464 4.0688-0.30156 5.1727-2.2874 1.0095-1.8161 0.0127-5.5736 0.89645-5.4046 1.3996 0.26765 1.3769 5.013 1.9658 6.5888 0.72795 1.9479 1.8337 0.8891 1.0686 2.4756-1.0665 2.2115-6.1319 0.19446-6.9216 2.5193-0.61758 1.8179 4.2355 3.3164 3.0927 4.8592-1.5291 2.0641-6.2382-5.0257-7.699-6.1976-2.0037-1.6074-3.8026 1.4499-4.3767-0.71475z" fill="url(#radialGradient8799)" stop-color="#000000" stroke="#384b86" stroke-linecap="round" stroke-linejoin="round" stroke-width=".22647" style="-inkscape-stroke:none;font-variation-settings:normal;mix-blend-mode:normal;paint-order:markers fill stroke"/><g transform="matrix(.90804 0 0 .90804 -39.826 225.46)" stroke-linecap="round" stroke-linejoin="round"><path d="m-78.348 113.04c-3.1259 3.8363 0.09132 7.4884 0.09132 7.4884" fill="none" stroke="#d3648c" stroke-width=".282" style="paint-order:markers fill stroke"/><g fill="#5d3886" stroke="#d3648c" stroke-width=".282"><path d="m-73.392 117.91-4.9995-4.8166" style="paint-order:markers fill stroke"/><path d="m-79.977 108.33-4.2679 3.4753" style="paint-order:markers fill stroke"/><path d="m-84.367 112.36-1.5242-8.4138" style="paint-order:markers fill stroke"/><path d="m-76.197 102.79-4.024 5.4873" style="paint-order:markers fill stroke"/></g><g stroke="#d3648c" stroke-width=".282"><path d="m-79.794 108.88s3.0565 1.3244 1.2804 4.024" fill="none" style="paint-order:markers fill stroke"/><path d="m-70.405 109.07s-5.6241-2.2946-9.3894-0.73164" fill="none" style="paint-order:markers fill stroke"/><path d="m-80.831 108.64-4.9386-4.6947" fill="#5d3886" style="paint-order:markers fill stroke"/><path d="m-84.306 112.48c1.563 2.4865 5.8494 5.3452 11.036 5.4873" fill="none" style="paint-order:markers fill stroke"/></g><g fill="#4c3c64" stroke="#4f2b88" stroke-width=".3131"><path d="m-83.534 112.08a0.7952 0.7952 0 0 1-0.78903 0.79517 0.7952 0.7952 0 0 1-0.80127-0.78284 0.7952 0.7952 0 0 1 0.77661-0.80731 0.7952 0.7952 0 0 1 0.81331 0.77032z" style="paint-order:markers fill stroke"/><path d="m-79.288 108.47a0.7952 0.7952 0 0 1-0.78903 0.79518 0.7952 0.7952 0 0 1-0.80127-0.78284 0.7952 0.7952 0 0 1 0.77661-0.80732 0.7952 0.7952 0 0 1 0.81331 0.77032z" style="paint-order:markers fill stroke"/><path d="m-77.553 113.13a0.7952 0.7952 0 0 1-0.78903 0.79517 0.7952 0.7952 0 0 1-0.80127-0.78284 0.7952 0.7952 0 0 1 0.77661-0.80732 0.7952 0.7952 0 0 1 0.81331 0.77033z" style="paint-order:markers fill stroke"/><path d="m-77.553 120.43a0.7952 0.7952 0 0 1-0.78903 0.79517 0.7952 0.7952 0 0 1-0.80127-0.78284 0.7952 0.7952 0 0 1 0.77661-0.80732 0.7952 0.7952 0 0 1 0.81331 0.77033z" style="paint-order:markers fill stroke"/><path d="m-69.608 109.2a0.7952 0.7952 0 0 1-0.78903 0.79517 0.7952 0.7952 0 0 1-0.80127-0.78284 0.7952 0.7952 0 0 1 0.77661-0.80732 0.7952 0.7952 0 0 1 0.81331 0.77033z" style="paint-order:markers fill stroke"/><path d="m-75.544 102.72a0.7952 0.7952 0 0 1-0.78903 0.79518 0.7952 0.7952 0 0 1-0.80127-0.78284 0.7952 0.7952 0 0 1 0.77661-0.80732 0.7952 0.7952 0 0 1 0.81331 0.77032z" style="paint-order:markers fill stroke"/><path d="m-85.224 104a0.7952 0.7952 0 0 1-0.78903 0.79517 0.7952 0.7952 0 0 1-0.80127-0.78284 0.7952 0.7952 0 0 1 0.77661-0.80732 0.7952 0.7952 0 0 1 0.81331 0.77033z" style="paint-order:markers fill stroke"/><path d="m-72.713 117.88a0.7952 0.7952 0 0 1-0.78903 0.79518 0.7952 0.7952 0 0 1-0.80127-0.78285 0.7952 0.7952 0 0 1 0.77661-0.80731 0.7952 0.7952 0 0 1 0.81331 0.77032z" style="paint-order:markers fill stroke"/></g></g><path d="m-22.321 289.53h-95.15" fill="url(#linearGradient12501)" marker-end="url(#TriangleStart)" marker-start="url(#three_dots)" stroke="url(#linearGradient14798)" stroke-linecap="round" stroke-linejoin="round" stroke-width=".66502" style="paint-order:markers fill stroke"/><g transform="matrix(.81323 0 0 .81323 -53.313 279.29)" ns1:alignment="middle center" ns1:inkscapeversion="1.2.2" ns1:jacobian_sqrt="0.995724" ns1:pdfconverter="inkscape" ns1:preamble="/Users/marconurisso/Library/Application Support/org.inkscape.Inkscape/config/inkscape/extensions/textext/default_packages.tex" ns1:scale="2.8225217434322185" ns1:stroke-to-path="0" ns1:texconverter="pdflatex" ns1:text="$\\mathrm{Var}(b(\\varepsilon))$" ns1:version="1.8.2"><defs/><g><g id="id-a0243a6b-8779-46c9-bfc0-095b289bfd2f" transform="translate(-148.9 -127.23)"><g transform="translate(148.71 134.76)"><path id="id-abac5e2e-c128-40e0-8c25-84f3312cc75c" d="m6.1875-5.8281c0.14062-0.375 0.40625-0.65625 1.0938-0.67188v-0.3125c-0.3125 0.03125-0.71875 0.03125-0.96875 0.03125-0.29688 0-0.875-0.015625-1.1406-0.03125v0.3125c0.51562 0.015625 0.73438 0.26562 0.73438 0.5 0 0.078125-0.03125 0.14062-0.046875 0.20312l-1.8281 4.7969-1.9062-5.0312c-0.0625-0.14062-0.0625-0.15625-0.0625-0.17188 0-0.29688 0.5625-0.29688 0.8125-0.29688v-0.3125c-0.35938 0.03125-1.0469 0.03125-1.4219 0.03125-0.46875 0-0.90625-0.015625-1.2656-0.03125v0.3125c0.65625 0 0.84375 0 0.98438 0.375l2.3125 6.125c0.0625 0.1875 0.10938 0.21875 0.25 0.21875 0.15625 0 0.1875-0.046875 0.23438-0.1875z"/></g></g><g transform="translate(-148.9 -127.23)"><g transform="translate(155.36 134.76)"><path id="id-83d6977d-3d43-49e6-b4c3-014a2211638a" d="m3.3125-0.75c0.046875 0.39062 0.3125 0.8125 0.78125 0.8125 0.21875 0 0.82812-0.14062 0.82812-0.95312v-0.5625h-0.25v0.5625c0 0.57812-0.25 0.64062-0.35938 0.64062-0.32812 0-0.375-0.45312-0.375-0.5v-1.9844c0-0.42188 0-0.8125-0.35938-1.1875-0.39062-0.39062-0.89062-0.54688-1.3594-0.54688-0.82812 0-1.5156 0.46875-1.5156 1.125 0 0.29688 0.20312 0.46875 0.46875 0.46875 0.28125 0 0.45312-0.20312 0.45312-0.45312 0-0.125-0.046875-0.45312-0.51562-0.45312 0.28125-0.35938 0.76562-0.46875 1.0781-0.46875 0.5 0 1.0625 0.39062 1.0625 1.2812v0.35938c-0.51562 0.03125-1.2031 0.0625-1.8281 0.35938-0.75 0.34375-1 0.85938-1 1.2969 0 0.8125 0.96875 1.0625 1.5938 1.0625 0.65625 0 1.1094-0.40625 1.2969-0.85938zm-0.0625-1.6406v1c0 0.9375-0.71875 1.2812-1.1719 1.2812-0.48438 0-0.89062-0.34375-0.89062-0.84375 0-0.54688 0.42188-1.375 2.0625-1.4375z"/></g><g transform="translate(160.34 134.76)"><path id="id-b4466ba0-816f-432a-b011-96dea8a50a4a" d="m1.6719-3.3125v-1.0938l-1.3906 0.10938v0.3125c0.70312 0 0.78125 0.0625 0.78125 0.5625v2.6719c0 0.4375-0.10938 0.4375-0.78125 0.4375v0.3125c0.39062-0.015625 0.85938-0.03125 1.1406-0.03125 0.39062 0 0.85938 0 1.2656 0.03125v-0.3125h-0.21875c-0.73438 0-0.75-0.10938-0.75-0.46875v-1.5312c0-0.98438 0.42188-1.875 1.1719-1.875 0.0625 0 0.09375 0 0.10938 0.015625-0.03125 0-0.23438 0.125-0.23438 0.39062s0.21875 0.42188 0.4375 0.42188c0.17188 0 0.42188-0.125 0.42188-0.4375s-0.3125-0.60938-0.73438-0.60938c-0.73438 0-1.0938 0.67188-1.2188 1.0938z"/></g><g transform="translate(164.24 134.76)"><path id="id-869f21fb-8e06-4331-ace2-4093c3031ade" d="m3.4375 2.4375 0.1875-0.21875c-1.3594-1.1562-1.8594-2.9688-1.8594-4.7656s0.5-3.6094 1.8594-4.7656l-0.1875-0.21875c-1.625 1.0938-2.4531 3.0156-2.4531 4.9844s0.82812 3.875 2.4531 4.9844z"/></g></g><g id="id-bf325f92-6f76-4e36-943f-a611fa75216c" transform="translate(-148.9 -127.23)"><g transform="translate(168.66 134.76)"><path id="id-f8149eff-2478-4035-8242-323d510cf2ac" d="m2.375-6.8125s0-0.10938-0.125-0.10938c-0.21875 0-0.95312 0.078125-1.2188 0.10938-0.078125 0-0.1875 0.015625-0.1875 0.1875 0 0.125 0.09375 0.125 0.25 0.125 0.46875 0 0.48438 0.0625 0.48438 0.17188 0 0.0625-0.078125 0.40625-0.125 0.60938l-0.82812 3.25c-0.10938 0.5-0.15625 0.67188-0.15625 1.0156 0 0.9375 0.53125 1.5625 1.2656 1.5625 1.1719 0 2.4062-1.4844 2.4062-2.9219 0-0.90625-0.53125-1.5938-1.3281-1.5938-0.45312 0-0.875 0.29688-1.1719 0.59375zm-0.92188 3.7656c0.046875-0.21875 0.046875-0.23438 0.14062-0.34375 0.48438-0.64062 0.9375-0.79688 1.2031-0.79688 0.35938 0 0.625 0.29688 0.625 0.9375 0 0.59375-0.32812 1.7344-0.51562 2.1094-0.32812 0.67188-0.78125 1.0312-1.1719 1.0312-0.34375 0-0.67188-0.26562-0.67188-1 0-0.20312 0-0.39062 0.15625-1.0156z"/></g></g><g transform="translate(-148.9 -127.23)"><g transform="translate(172.94 134.76)"><path d="m3.4375 2.4375 0.1875-0.21875c-1.3594-1.1562-1.8594-2.9688-1.8594-4.7656s0.5-3.6094 1.8594-4.7656l-0.1875-0.21875c-1.625 1.0938-2.4531 3.0156-2.4531 4.9844s0.82812 3.875 2.4531 4.9844z"/></g></g><g id="id-55aa9eda-5c58-4055-a22b-9febb9ba2b4a" transform="translate(-148.9 -127.23)"><g transform="translate(177.37 134.76)"><path id="id-00aceb95-36ad-4b3c-bfd4-65df483576fb" d="m1.4062-2.2656c0.32812 0.14062 0.625 0.14062 0.85938 0.14062 0.25 0 0.8125 0 0.8125-0.3125 0-0.23438-0.35938-0.26562-0.73438-0.26562-0.20312 0-0.5625 0.015625-0.92188 0.1875-0.23438-0.10938-0.40625-0.3125-0.40625-0.57812 0-0.60938 0.98438-0.96875 1.875-0.96875 0.15625 0 0.51562 0 0.92188 0.28125 0.10938 0.078125 0.125 0.10938 0.1875 0.10938 0.14062 0 0.28125-0.14062 0.28125-0.28125 0-0.1875-0.60938-0.5625-1.2969-0.5625-1.1406 0-2.2188 0.67188-2.2188 1.4219 0 0.4375 0.35938 0.6875 0.40625 0.71875-0.59375 0.32812-0.90625 0.875-0.90625 1.3438 0 0.64062 0.5625 1.25 1.625 1.25 1.3125 0 1.875-0.875 1.875-1.0312 0-0.0625-0.0625-0.09375-0.10938-0.09375-0.0625 0-0.09375 0.03125-0.10938 0.0625-0.14062 0.23438-0.375 0.60938-1.5781 0.60938-0.60938 0-1.4531-0.15625-1.4531-0.85938 0-0.34375 0.28125-0.875 0.89062-1.1719zm0.32812-0.125c0.23438-0.078125 0.4375-0.09375 0.60938-0.09375 0.25 0 0.28125 0.015625 0.46875 0.0625-0.15625 0.0625-0.17188 0.078125-0.54688 0.078125-0.21875 0-0.34375 0-0.53125-0.046875z"/></g></g><g transform="translate(-148.9 -127.23)"><g transform="translate(182.01 134.76)"><path d="m0.98438 2.4375c1.625-1.1094 2.4531-3.0156 2.4531-4.9844s-0.82812-3.8906-2.4531-4.9844l-0.1875 0.21875c1.3594 1.1562 1.8594 2.9688 1.8594 4.7656s-0.5 3.6094-1.8594 4.7656z"/></g><g transform="translate(186.44 134.76)"><path id="id-49ae96b0-b7ba-40b5-9400-a924b705258a" d="m0.98438 2.4375c1.625-1.1094 2.4531-3.0156 2.4531-4.9844s-0.82812-3.8906-2.4531-4.9844l-0.1875 0.21875c1.3594 1.1562 1.8594 2.9688 1.8594 4.7656s-0.5 3.6094-1.8594 4.7656z"/></g></g></g></g></g></svg>
