<?xml version="1.0" encoding="UTF-8" standalone="no"?>
<!-- Created with Inkscape (http://www.inkscape.org/) -->

<svg
   version="1.1"
   id="svg182"
   width="474.93607"
   height="449.58893"
   viewBox="0 0 474.93605 449.58893"
   sodipodi:docname="boltz.svg"
   inkscape:version="1.2.2 (b0a8486, 2022-12-01)"
   xmlns:inkscape="http://www.inkscape.org/namespaces/inkscape"
   xmlns:sodipodi="http://sodipodi.sourceforge.net/DTD/sodipodi-0.dtd"
   xmlns="http://www.w3.org/2000/svg"
   xmlns:svg="http://www.w3.org/2000/svg">
  <defs
     id="defs186" />
  <sodipodi:namedview
     id="namedview184"
     pagecolor="#ffffff"
     bordercolor="#000000"
     borderopacity="0.25"
     inkscape:showpageshadow="2"
     inkscape:pageopacity="0.0"
     inkscape:pagecheckerboard="0"
     inkscape:deskcolor="#d1d1d1"
     showgrid="false"
     inkscape:zoom="0.67055268"
     inkscape:cx="105.88281"
     inkscape:cy="167.77205"
     inkscape:window-width="1440"
     inkscape:window-height="847"
     inkscape:window-x="0"
     inkscape:window-y="25"
     inkscape:window-maximized="1"
     inkscape:current-layer="g192">
    <inkscape:page
       x="0"
       y="0"
       id="page188"
       width="474.93604"
       height="449.58893" />
  </sodipodi:namedview>
  <g
     id="g190"
     inkscape:groupmode="layer"
     inkscape:label="Page 1"
     transform="matrix(1.3333333,0,0,1.3333333,17.433882,68.952934)">
    <g
       id="g192">
      <g
         id="g194">
        <path
           d="m 82.625,128.578 c 47.066,36.297 90.613,49.664 138.645,61.86"
           style="fill:none;stroke:#eae3da;stroke-width:4.15276;stroke-linecap:butt;stroke-linejoin:miter;stroke-miterlimit:4;stroke-dasharray:none;stroke-opacity:1"
           id="path196" />
      </g>
      <g
         id="g198"
         transform="matrix(1,0.25386,-0.25386,1,0,0)">
        <path
           d="m 257.935,126.138 -6.962,4.025 -0.001,-8.05 z"
           style="fill:#eae3da;fill-opacity:1;fill-rule:evenodd;stroke:#eae3da;stroke-width:1.07336;stroke-linecap:butt;stroke-linejoin:miter;stroke-miterlimit:4;stroke-dasharray:none;stroke-opacity:1"
           id="path200" />
      </g>
      <g
         id="g202">
        <path
           d="M 83.02,122.309 C 106.875,95.992 136.59,67.684 189.812,59.969"
           style="fill:none;stroke:#eae3da;stroke-width:4.15276;stroke-linecap:butt;stroke-linejoin:miter;stroke-miterlimit:4;stroke-dasharray:none;stroke-opacity:1"
           id="path204" />
      </g>
      <g
         id="g206"
         transform="matrix(1,-0.144991,0.144991,1,0,0)">
        <path
           d="m 182.131,85.689 -7.112,4.109 0.001,-8.222 z"
           style="fill:#eae3da;fill-opacity:1;fill-rule:evenodd;stroke:#eae3da;stroke-width:1.09594;stroke-linecap:butt;stroke-linejoin:miter;stroke-miterlimit:4;stroke-dasharray:none;stroke-opacity:1"
           id="path208" />
      </g>
      <g
         id="g210">
        <path
           d="M 241.992,184.82 C 203.668,153.742 205.379,119.184 213.566,80.355"
           style="fill:none;stroke:#eae3da;stroke-width:4.15276;stroke-linecap:butt;stroke-linejoin:miter;stroke-miterlimit:4;stroke-dasharray:none;stroke-opacity:1"
           id="path212" />
      </g>
      <g
         id="g214"
         transform="matrix(0.210923,-1,1,0.210923,0,0)">
        <path
           d="m -29.114,220.696 -7.03,4.064 10e-4,-8.125 z"
           style="fill:#eae3da;fill-opacity:1;fill-rule:evenodd;stroke:#eae3da;stroke-width:1.08356;stroke-linecap:butt;stroke-linejoin:miter;stroke-miterlimit:4;stroke-dasharray:none;stroke-opacity:1"
           id="path216" />
      </g>
      <g
         id="g218">
        <path
           d="M 307.477,118.922 C 283.801,97.805 260.355,80.578 230.793,68.297"
           style="fill:none;stroke:#eae3da;stroke-width:4.15276;stroke-linecap:butt;stroke-linejoin:miter;stroke-miterlimit:4;stroke-dasharray:none;stroke-opacity:1"
           id="path220" />
      </g>
      <g
         id="g222"
         transform="matrix(-1,-0.415491,0.415491,-1,0,0)">
        <path
           d="m -216.589,23.534 -6.634,3.834 0.002,-7.668 z"
           style="fill:#eae3da;fill-opacity:1;fill-rule:evenodd;stroke:#eae3da;stroke-width:1.02264;stroke-linecap:butt;stroke-linejoin:miter;stroke-miterlimit:4;stroke-dasharray:none;stroke-opacity:1"
           id="path224" />
      </g>
      <g
         id="g226">
        <path
           d="m 219.105,58.629 c 34.864,2.234 68.11,-2.008 100.028,-11.555"
           style="fill:none;stroke:#eae3da;stroke-width:4.15276;stroke-linecap:butt;stroke-linejoin:miter;stroke-miterlimit:4;stroke-dasharray:none;stroke-opacity:1"
           id="path228" />
      </g>
      <g
         id="g230"
         transform="matrix(1,-0.299145,0.299145,1,0,0)">
        <path
           d="m 284.585,130.831 -6.882,3.981 0.001,-7.957 z"
           style="fill:#eae3da;fill-opacity:1;fill-rule:evenodd;stroke:#eae3da;stroke-width:1.06095;stroke-linecap:butt;stroke-linejoin:miter;stroke-miterlimit:4;stroke-dasharray:none;stroke-opacity:1"
           id="path232" />
      </g>
      <g
         id="g234">
        <path
           d="M 8.164,173.492 C 32.516,162.684 42.047,159.25 60.531,138.66"
           style="fill:none;stroke:#eae3da;stroke-width:4.15276;stroke-linecap:butt;stroke-linejoin:miter;stroke-miterlimit:4;stroke-dasharray:none;stroke-opacity:1"
           id="path236" />
      </g>
      <g
         id="g238"
         transform="matrix(0.897831,-1,1,0.897831,0,0)">
        <path
           d="m -43.116,102.445 -5.347,3.09 0.002,-6.181 z"
           style="fill:#eae3da;fill-opacity:1;fill-rule:evenodd;stroke:#eae3da;stroke-width:0.824013;stroke-linecap:butt;stroke-linejoin:miter;stroke-miterlimit:4;stroke-dasharray:none;stroke-opacity:1"
           id="path240" />
      </g>
      <g
         id="g242">
        <path
           d="M 30.125,107.656 H 136.406"
           style="fill:none;stroke:#382327;stroke-width:1.31811;stroke-linecap:butt;stroke-linejoin:miter;stroke-miterlimit:4;stroke-dasharray:none;stroke-opacity:1"
           id="path244" />
      </g>
      <g
         id="g246">
        <path
           d="m 139.449,107.656 -4.562,2.637 v -5.273 z"
           style="fill:#382327;fill-opacity:1;fill-rule:evenodd;stroke:#382327;stroke-width:0.702992;stroke-linecap:butt;stroke-linejoin:miter;stroke-miterlimit:4;stroke-dasharray:none;stroke-opacity:1"
           id="path248" />
      </g>
      <path
         d="m 35.891,107.074 c 52.457,-43.531 62.464,-0.101 94.316,0.008"
         style="fill:#d88c9a;fill-opacity:0.74902;fill-rule:nonzero;stroke:none"
         id="path250" />
      <g
         id="g252">
        <path
           d="M 155.551,40.375 H 261.828"
           style="fill:none;stroke:#382327;stroke-width:1.31811;stroke-linecap:butt;stroke-linejoin:miter;stroke-miterlimit:4;stroke-dasharray:none;stroke-opacity:1"
           id="path254" />
      </g>
      <g
         id="g256">
        <path
           d="m 264.871,40.375 -4.559,2.633 v -5.27 z"
           style="fill:#382327;fill-opacity:1;fill-rule:evenodd;stroke:#382327;stroke-width:0.702992;stroke-linecap:butt;stroke-linejoin:miter;stroke-miterlimit:4;stroke-dasharray:none;stroke-opacity:1"
           id="path258" />
      </g>
      <path
         d="m 160.801,39.684 c 19.883,-1.672 39.258,-1.559 46.351,-10.282 26.188,-32.199 29.45,9.27 48.368,10.282"
         style="fill:#f2d0a9;fill-opacity:0.74902;fill-rule:nonzero;stroke:none"
         id="path260" />
      <g
         id="g262">
        <path
           d="M 101.629,188.777 83.492,146.574"
           style="fill:none;stroke:#eae3da;stroke-width:4.15276;stroke-linecap:butt;stroke-linejoin:miter;stroke-miterlimit:4;stroke-dasharray:none;stroke-opacity:1"
           id="path264" />
      </g>
      <g
         id="g266"
         transform="matrix(-0.429779,-1,1,-0.429779,0,0)">
        <path
           d="m -149.608,17.303 -6.601,3.815 0.003,-7.631 z"
           style="fill:#eae3da;fill-opacity:1;fill-rule:evenodd;stroke:#eae3da;stroke-width:1.01742;stroke-linecap:butt;stroke-linejoin:miter;stroke-miterlimit:4;stroke-dasharray:none;stroke-opacity:1"
           id="path268" />
      </g>
      <g
         id="g270">
        <path
           d="M 234.824,188.629 C 191.363,159.574 148.426,138.668 98.094,129.258"
           style="fill:none;stroke:#eae3da;stroke-width:4.15276;stroke-linecap:butt;stroke-linejoin:miter;stroke-miterlimit:4;stroke-dasharray:none;stroke-opacity:1"
           id="path272" />
      </g>
      <g
         id="g274"
         transform="matrix(-1,-0.18696,0.18696,-1,0,0)">
        <path
           d="m -113.419,-107.17 -7.061,4.082 0.001,-8.164 z"
           style="fill:#eae3da;fill-opacity:1;fill-rule:evenodd;stroke:#eae3da;stroke-width:1.08854;stroke-linecap:butt;stroke-linejoin:miter;stroke-miterlimit:4;stroke-dasharray:none;stroke-opacity:1"
           id="path276" />
      </g>
      <path
         d="m 71.059,141.145 c 0,-0.508 -0.352,-0.903 -0.899,-0.903 -0.707,0 -1.371,0.668 -1.371,1.332 0,0.473 0.352,0.903 0.941,0.903 0.586,0 1.329,-0.59 1.329,-1.332 z m -1.879,9.398 c 0.273,-0.707 0.273,-0.785 0.55,-1.449 0.196,-0.508 0.313,-0.864 0.313,-1.332 0,-1.098 -0.785,-2.035 -2.035,-2.035 -2.352,0 -3.289,3.64 -3.289,3.835 0,0.274 0.234,0.274 0.273,0.274 0.274,0 0.274,-0.078 0.391,-0.469 0.703,-2.347 1.683,-3.094 2.547,-3.094 0.195,0 0.625,0 0.625,0.786 0,0.546 -0.196,1.054 -0.274,1.328 -0.195,0.629 -1.332,3.527 -1.722,4.621 -0.274,0.629 -0.59,1.449 -0.59,2 0,1.172 0.863,2.035 2.039,2.035 2.347,0 3.289,-3.602 3.289,-3.84 0,-0.273 -0.238,-0.273 -0.317,-0.273 -0.234,0 -0.234,0.078 -0.351,0.472 -0.469,1.567 -1.293,3.09 -2.543,3.09 -0.434,0 -0.629,-0.234 -0.629,-0.82 0,-0.625 0.156,-0.981 0.746,-2.508 z"
         style="fill:#000000;fill-opacity:1;fill-rule:nonzero;stroke:none"
         id="path278" />
      <path
         d="m 227.141,199.523 c 0,-0.433 -0.329,-0.835 -0.871,-0.835 -0.547,0 -1.235,0.546 -1.235,1.234 0,0.473 0.324,0.836 0.871,0.836 0.617,0 1.235,-0.617 1.235,-1.235 z m -4.653,15.661 c -0.433,1.746 -1.558,3.089 -2.832,3.089 -0.144,0 -0.508,0 -0.91,-0.218 0.692,-0.145 1.02,-0.762 1.02,-1.235 0,-0.363 -0.254,-0.8 -0.871,-0.8 -0.583,0 -1.239,0.472 -1.239,1.308 0,0.945 0.91,1.453 2.035,1.453 1.637,0 3.782,-1.234 4.36,-3.523 l 2.109,-8.504 c 0.145,-0.434 0.145,-0.762 0.145,-0.836 0,-1.344 -0.981,-2.145 -2.145,-2.145 -2.359,0 -3.668,3.379 -3.668,3.563 0,0.254 0.219,0.254 0.254,0.254 0.219,0 0.254,-0.035 0.438,-0.473 0.578,-1.418 1.632,-2.832 2.906,-2.832 0.324,0 0.726,0.11 0.726,1.051 0,0.547 -0.039,0.801 -0.144,1.199 z"
         style="fill:#000000;fill-opacity:1;fill-rule:nonzero;stroke:none"
         id="path280" />
      <path
         d="m 200.492,74.102 c 0,0 0,-0.254 -0.289,-0.254 -0.535,0 -2.187,0.179 -2.797,0.254 -0.179,0 -0.429,0.035 -0.429,0.429 0,0.285 0.214,0.285 0.535,0.285 1.113,0 1.148,0.145 1.148,0.399 l -0.07,0.465 -3.301,13.168 c -0.109,0.324 -0.109,0.359 -0.109,0.504 0,0.539 0.468,0.644 0.683,0.644 0.285,0 0.61,-0.215 0.754,-0.465 0.106,-0.215 1.149,-4.449 1.289,-5.023 0.793,0.07 2.656,0.43 2.656,1.937 0,0.18 0,0.25 -0.07,0.5 -0.035,0.254 -0.074,0.539 -0.074,0.789 0,1.328 0.898,2.262 2.082,2.262 0.684,0 1.328,-0.359 1.832,-1.219 0.574,-1.004 0.824,-2.261 0.824,-2.297 0,-0.25 -0.215,-0.25 -0.289,-0.25 -0.215,0 -0.25,0.106 -0.32,0.43 -0.469,1.649 -0.969,2.836 -1.973,2.836 -0.469,0 -0.754,-0.254 -0.754,-1.078 0,-0.395 0.106,-0.934 0.18,-1.293 0.105,-0.395 0.105,-0.465 0.105,-0.715 0,-1.472 -1.433,-2.117 -3.406,-2.406 0.715,-0.395 1.469,-1.113 1.973,-1.688 1.109,-1.218 2.152,-2.187 3.266,-2.187 0.14,0 0.179,0 0.214,0.035 0.286,0.035 0.286,0.035 0.5,0.18 0.039,0 0.039,0.035 0.075,0.07 -1.079,0.074 -1.293,0.973 -1.293,1.258 0,0.359 0.25,0.789 0.863,0.789 0.609,0 1.254,-0.504 1.254,-1.399 0,-0.683 -0.539,-1.437 -1.543,-1.437 -0.645,0 -1.688,0.18 -3.336,2.012 -0.789,0.859 -1.688,1.793 -2.547,2.117 z"
         style="fill:#000000;fill-opacity:1;fill-rule:nonzero;stroke:none"
         id="path282" />
      <path
         d="m 68.199,74.34 h 1.207 c 0.285,0 0.418,0 0.418,-0.285 0,-0.157 -0.133,-0.157 -0.375,-0.157 h -1.164 l 0.285,-1.601 c 0.067,-0.289 0.266,-1.277 0.352,-1.453 0.113,-0.262 0.351,-0.485 0.66,-0.485 0.043,0 0.418,0 0.684,0.266 -0.618,0.043 -0.77,0.547 -0.77,0.746 0,0.332 0.262,0.508 0.527,0.508 0.372,0 0.77,-0.332 0.77,-0.859 0,-0.637 -0.637,-0.969 -1.211,-0.969 -0.484,0 -1.363,0.265 -1.781,1.652 -0.086,0.285 -0.129,0.438 -0.461,2.195 h -0.965 c -0.289,0 -0.441,0 -0.441,0.266 0,0.176 0.132,0.176 0.394,0.176 h 0.926 l -1.035,5.539 c -0.262,1.363 -0.504,2.641 -1.231,2.641 -0.066,0 -0.394,0 -0.679,-0.266 0.656,-0.043 0.789,-0.551 0.789,-0.746 0,-0.332 -0.262,-0.508 -0.528,-0.508 -0.375,0 -0.769,0.332 -0.769,0.859 0,0.614 0.617,0.965 1.187,0.965 0.77,0 1.34,-0.832 1.582,-1.363 0.461,-0.879 0.77,-2.57 0.793,-2.68 z"
         style="fill:#000000;fill-opacity:1;fill-rule:nonzero;stroke:none"
         id="path284" />
      <path
         d="m 73.105,75.914 c 0,-0.152 -0.132,-0.375 -0.394,-0.375 -0.266,0 -0.551,0.266 -0.551,0.551 0,0.152 0.11,0.375 0.395,0.375 0.265,0 0.55,-0.285 0.55,-0.551 z m -2,4.992 c -0.046,0.129 -0.089,0.239 -0.089,0.418 0,0.461 0.375,0.813 0.925,0.813 0.965,0 1.407,-1.344 1.407,-1.496 0,-0.133 -0.133,-0.133 -0.157,-0.133 -0.129,0 -0.152,0.066 -0.195,0.176 -0.223,0.793 -0.641,1.187 -1.035,1.187 -0.195,0 -0.242,-0.133 -0.242,-0.351 0,-0.219 0.066,-0.395 0.156,-0.614 0.109,-0.265 0.219,-0.531 0.305,-0.793 0.09,-0.242 0.465,-1.121 0.484,-1.254 0.047,-0.086 0.066,-0.195 0.066,-0.308 0,-0.461 -0.394,-0.836 -0.921,-0.836 -0.993,0 -1.43,1.344 -1.43,1.519 0,0.11 0.133,0.11 0.176,0.11 0.133,0 0.133,-0.043 0.175,-0.153 0.243,-0.836 0.68,-1.187 1.036,-1.187 0.152,0 0.238,0.066 0.238,0.328 0,0.242 -0.043,0.375 -0.285,0.988 z"
         style="fill:#000000;fill-opacity:1;fill-rule:nonzero;stroke:none"
         id="path286" />
      <path
         d="m 79.223,83.309 c 0,-0.043 0,-0.067 -0.243,-0.309 -1.734,-1.758 -2.199,-4.418 -2.199,-6.57 0,-2.442 0.528,-4.883 2.266,-6.618 0.176,-0.175 0.176,-0.199 0.176,-0.242 0,-0.109 -0.043,-0.156 -0.133,-0.156 -0.152,0 -1.406,0.969 -2.242,2.75 -0.703,1.539 -0.879,3.098 -0.879,4.266 0,1.097 0.152,2.789 0.922,4.394 0.859,1.715 2.047,2.641 2.199,2.641 0.09,0 0.133,-0.047 0.133,-0.156 z"
         style="fill:#000000;fill-opacity:1;fill-rule:nonzero;stroke:none"
         id="path288" />
      <path
         d="m 86.609,74.734 c 0,-0.769 -0.375,-0.988 -0.617,-0.988 -0.351,0 -0.703,0.375 -0.703,0.68 0,0.176 0.066,0.265 0.219,0.418 0.308,0.289 0.484,0.64 0.484,1.144 0,0.594 -0.855,3.805 -2.484,3.805 -0.727,0 -1.055,-0.484 -1.055,-1.231 0,-0.769 0.395,-1.804 0.813,-2.968 0.109,-0.242 0.175,-0.442 0.175,-0.703 0,-0.618 -0.437,-1.145 -1.14,-1.145 -1.321,0 -1.848,2.043 -1.848,2.156 0,0.153 0.133,0.153 0.152,0.153 0.157,0 0.157,-0.043 0.223,-0.266 0.414,-1.406 1.008,-1.734 1.426,-1.734 0.109,0 0.351,0 0.351,0.437 0,0.352 -0.152,0.75 -0.242,0.992 -0.613,1.625 -0.789,2.262 -0.789,2.879 0,1.516 1.231,1.735 1.867,1.735 2.352,0 3.168,-4.637 3.168,-5.364 z"
         style="fill:#000000;fill-opacity:1;fill-rule:nonzero;stroke:none"
         id="path290" />
      <path
         d="m 90.191,79.922 c 0,-0.922 -0.351,-1.473 -0.902,-1.473 -0.461,0 -0.746,0.352 -0.746,0.75 0,0.371 0.285,0.746 0.746,0.746 0.156,0 0.352,-0.066 0.484,-0.175 0.043,-0.043 0.067,-0.043 0.067,-0.043 0.023,0 0.023,0 0.023,0.195 0,1.058 -0.484,1.89 -0.945,2.355 -0.156,0.153 -0.156,0.176 -0.156,0.219 0,0.109 0.066,0.152 0.133,0.152 0.152,0 1.296,-1.074 1.296,-2.726 z"
         style="fill:#000000;fill-opacity:1;fill-rule:nonzero;stroke:none"
         id="path292" />
      <path
         d="m 96.449,74.34 h 1.321 c 0.285,0 0.437,0 0.437,-0.285 0,-0.157 -0.152,-0.157 -0.395,-0.157 h -1.23 c 0.504,-2 0.57,-2.261 0.57,-2.351 0,-0.242 -0.175,-0.375 -0.418,-0.375 -0.043,0 -0.441,0 -0.55,0.508 l -0.547,2.218 h -1.321 c -0.285,0 -0.418,0 -0.418,0.266 0,0.176 0.11,0.176 0.395,0.176 h 1.234 c -1.011,3.98 -1.078,4.222 -1.078,4.461 0,0.769 0.528,1.297 1.297,1.297 1.43,0 2.219,-2.043 2.219,-2.153 0,-0.152 -0.11,-0.152 -0.153,-0.152 -0.132,0 -0.156,0.043 -0.218,0.195 -0.594,1.473 -1.344,1.805 -1.828,1.805 -0.286,0 -0.438,-0.176 -0.438,-0.641 0,-0.351 0.043,-0.437 0.086,-0.679 z"
         style="fill:#000000;fill-opacity:1;fill-rule:nonzero;stroke:none"
         id="path294" />
      <path
         d="m 102.668,76.43 c 0,-1.078 -0.152,-2.774 -0.922,-4.375 -0.836,-1.715 -2.043,-2.641 -2.176,-2.641 -0.09,0 -0.156,0.066 -0.156,0.156 0,0.043 0,0.067 0.266,0.328 1.386,1.387 2.175,3.606 2.175,6.532 0,2.418 -0.503,4.879 -2.242,6.636 -0.199,0.176 -0.199,0.2 -0.199,0.243 0,0.089 0.066,0.156 0.156,0.156 0.133,0 1.407,-0.969 2.219,-2.75 0.727,-1.539 0.879,-3.098 0.879,-4.285 z"
         style="fill:#000000;fill-opacity:1;fill-rule:nonzero;stroke:none"
         id="path296" />
      <path
         d="m 240.641,139.398 h 1.207 c 0.285,0 0.418,0 0.418,-0.285 0,-0.156 -0.133,-0.156 -0.371,-0.156 h -1.168 l 0.285,-1.602 c 0.066,-0.289 0.265,-1.277 0.351,-1.453 0.114,-0.261 0.352,-0.484 0.66,-0.484 0.047,0 0.418,0 0.684,0.266 -0.617,0.043 -0.769,0.546 -0.769,0.746 0,0.332 0.261,0.508 0.527,0.508 0.375,0 0.769,-0.333 0.769,-0.86 0,-0.637 -0.636,-0.969 -1.211,-0.969 -0.484,0 -1.363,0.266 -1.781,1.653 -0.086,0.285 -0.129,0.437 -0.461,2.195 h -0.965 c -0.289,0 -0.441,0 -0.441,0.266 0,0.175 0.133,0.175 0.395,0.175 h 0.925 l -1.035,5.54 c -0.262,1.363 -0.504,2.64 -1.23,2.64 -0.067,0 -0.395,0 -0.68,-0.266 0.656,-0.042 0.789,-0.55 0.789,-0.746 0,-0.332 -0.262,-0.507 -0.527,-0.507 -0.375,0 -0.77,0.332 -0.77,0.859 0,0.613 0.617,0.965 1.188,0.965 0.769,0 1.34,-0.836 1.582,-1.363 0.461,-0.879 0.769,-2.571 0.793,-2.68 z"
         style="fill:#000000;fill-opacity:1;fill-rule:nonzero;stroke:none"
         id="path298" />
      <path
         d="m 246.668,140.973 c 0,-0.153 -0.133,-0.375 -0.395,-0.375 -0.289,0 -0.55,0.285 -0.55,0.55 0,0.153 0.109,0.375 0.394,0.375 0.266,0 0.551,-0.265 0.551,-0.55 z m -2.09,6.617 c -0.152,0.68 -0.68,1.23 -1.254,1.23 -0.129,0 -0.238,0 -0.351,-0.043 0.242,-0.132 0.332,-0.351 0.332,-0.507 0,-0.239 -0.2,-0.352 -0.399,-0.352 -0.285,0 -0.547,0.266 -0.547,0.574 0,0.371 0.371,0.613 0.965,0.613 0.594,0 1.738,-0.351 2.047,-1.539 l 0.879,-3.515 c 0.023,-0.11 0.043,-0.199 0.043,-0.352 0,-0.527 -0.461,-0.926 -1.031,-0.926 -1.102,0 -1.715,1.364 -1.715,1.52 0,0.109 0.129,0.109 0.152,0.109 0.11,0 0.133,-0.023 0.199,-0.175 0.243,-0.571 0.747,-1.165 1.317,-1.165 0.242,0 0.332,0.153 0.332,0.481 0,0.113 0,0.242 -0.024,0.289 z"
         style="fill:#000000;fill-opacity:1;fill-rule:nonzero;stroke:none"
         id="path300" />
      <path
         d="m 252.902,148.367 c 0,-0.043 0,-0.066 -0.242,-0.308 -1.734,-1.758 -2.195,-4.418 -2.195,-6.571 0,-2.441 0.527,-4.883 2.262,-6.617 0.175,-0.176 0.175,-0.199 0.175,-0.242 0,-0.113 -0.043,-0.156 -0.129,-0.156 -0.156,0 -1.41,0.968 -2.242,2.75 -0.707,1.539 -0.883,3.097 -0.883,4.265 0,1.098 0.157,2.789 0.926,4.395 0.856,1.715 2.043,2.64 2.199,2.64 0.086,0 0.129,-0.046 0.129,-0.156 z"
         style="fill:#000000;fill-opacity:1;fill-rule:nonzero;stroke:none"
         id="path302" />
      <path
         d="m 260.289,139.793 c 0,-0.77 -0.375,-0.988 -0.617,-0.988 -0.352,0 -0.703,0.375 -0.703,0.679 0,0.176 0.066,0.266 0.222,0.418 0.305,0.289 0.481,0.641 0.481,1.145 0,0.594 -0.856,3.805 -2.481,3.805 -0.726,0 -1.058,-0.485 -1.058,-1.231 0,-0.769 0.398,-1.805 0.816,-2.969 0.11,-0.242 0.176,-0.441 0.176,-0.703 0,-0.617 -0.441,-1.144 -1.145,-1.144 -1.32,0 -1.847,2.043 -1.847,2.156 0,0.152 0.133,0.152 0.156,0.152 0.152,0 0.152,-0.043 0.219,-0.265 0.418,-1.407 1.012,-1.735 1.43,-1.735 0.109,0 0.351,0 0.351,0.438 0,0.351 -0.156,0.75 -0.242,0.992 -0.617,1.625 -0.793,2.262 -0.793,2.879 0,1.516 1.23,1.734 1.871,1.734 2.352,0 3.164,-4.636 3.164,-5.363 z"
         style="fill:#000000;fill-opacity:1;fill-rule:nonzero;stroke:none"
         id="path304" />
      <path
         d="m 263.871,144.98 c 0,-0.921 -0.351,-1.472 -0.898,-1.472 -0.461,0 -0.75,0.351 -0.75,0.75 0,0.371 0.289,0.746 0.75,0.746 0.152,0 0.351,-0.066 0.484,-0.176 0.043,-0.043 0.063,-0.043 0.063,-0.043 0.023,0 0.023,0 0.023,0.195 0,1.059 -0.484,1.891 -0.945,2.356 -0.153,0.152 -0.153,0.176 -0.153,0.219 0,0.109 0.067,0.152 0.129,0.152 0.156,0 1.297,-1.074 1.297,-2.727 z"
         style="fill:#000000;fill-opacity:1;fill-rule:nonzero;stroke:none"
         id="path306" />
      <path
         d="m 270.129,139.398 h 1.32 c 0.285,0 0.438,0 0.438,-0.285 0,-0.156 -0.153,-0.156 -0.395,-0.156 h -1.23 c 0.504,-2 0.57,-2.262 0.57,-2.352 0,-0.242 -0.176,-0.375 -0.418,-0.375 -0.043,0 -0.437,0 -0.547,0.508 l -0.551,2.219 h -1.32 c -0.285,0 -0.418,0 -0.418,0.266 0,0.175 0.113,0.175 0.399,0.175 h 1.23 c -1.012,3.981 -1.078,4.223 -1.078,4.461 0,0.77 0.527,1.297 1.297,1.297 1.429,0 2.222,-2.043 2.222,-2.152 0,-0.152 -0.113,-0.152 -0.156,-0.152 -0.133,0 -0.152,0.043 -0.219,0.195 -0.593,1.473 -1.339,1.805 -1.824,1.805 -0.285,0 -0.441,-0.176 -0.441,-0.641 0,-0.352 0.043,-0.438 0.09,-0.68 z"
         style="fill:#000000;fill-opacity:1;fill-rule:nonzero;stroke:none"
         id="path308" />
      <path
         d="m 276.352,141.488 c 0,-1.078 -0.157,-2.773 -0.926,-4.375 -0.832,-1.715 -2.043,-2.64 -2.176,-2.64 -0.086,0 -0.152,0.066 -0.152,0.156 0,0.043 0,0.066 0.261,0.328 1.387,1.387 2.18,3.605 2.18,6.531 0,2.418 -0.508,4.879 -2.246,6.637 -0.195,0.176 -0.195,0.199 -0.195,0.242 0,0.09 0.066,0.156 0.152,0.156 0.133,0 1.406,-0.968 2.223,-2.75 0.722,-1.539 0.879,-3.101 0.879,-4.285 z"
         style="fill:#000000;fill-opacity:1;fill-rule:nonzero;stroke:none"
         id="path310" />
      <path
         d="m 205.602,4.926 h 1.207 c 0.285,0 0.418,0 0.418,-0.285 0,-0.157 -0.133,-0.157 -0.375,-0.157 h -1.164 l 0.285,-1.605 c 0.066,-0.285 0.265,-1.274 0.351,-1.449 0.11,-0.266 0.352,-0.485 0.66,-0.485 0.043,0 0.418,0 0.684,0.266 -0.617,0.043 -0.77,0.547 -0.77,0.746 0,0.328 0.262,0.504 0.528,0.504 0.371,0 0.769,-0.328 0.769,-0.856 0,-0.636 -0.64,-0.968 -1.211,-0.968 -0.484,0 -1.363,0.265 -1.781,1.648 -0.086,0.285 -0.133,0.442 -0.461,2.199 h -0.969 c -0.285,0 -0.437,0 -0.437,0.266 0,0.176 0.133,0.176 0.394,0.176 h 0.926 l -1.035,5.539 c -0.266,1.363 -0.504,2.637 -1.23,2.637 -0.067,0 -0.395,0 -0.684,-0.262 0.66,-0.043 0.793,-0.551 0.793,-0.75 0,-0.328 -0.266,-0.504 -0.527,-0.504 -0.375,0 -0.77,0.328 -0.77,0.855 0,0.618 0.617,0.969 1.188,0.969 0.769,0 1.339,-0.836 1.582,-1.363 0.461,-0.879 0.769,-2.57 0.793,-2.68 z"
         style="fill:#000000;fill-opacity:1;fill-rule:nonzero;stroke:none"
         id="path312" />
      <path
         d="m 210.398,6.125 c 0,-0.023 0.02,-0.152 0.02,-0.152 0,-0.067 -0.02,-0.157 -0.152,-0.157 -0.2,0 -1.012,0.09 -1.254,0.11 -0.067,0 -0.219,0.023 -0.219,0.222 0,0.129 0.152,0.129 0.262,0.129 0.461,0 0.461,0.09 0.461,0.157 0,0.066 -0.02,0.132 -0.02,0.218 l -1.387,5.539 c -0.066,0.176 -0.066,0.2 -0.066,0.223 0,0.152 0.133,0.305 0.352,0.305 0.265,0 0.375,-0.176 0.441,-0.395 0.023,-0.043 0.437,-1.781 0.484,-1.91 0.703,0.063 1.254,0.305 1.254,0.813 0,0.043 0,0.085 -0.023,0.195 -0.043,0.133 -0.043,0.199 -0.043,0.308 0,0.684 0.57,0.989 1.054,0.989 0.946,0 1.231,-1.473 1.231,-1.492 0,-0.133 -0.109,-0.133 -0.152,-0.133 -0.133,0 -0.157,0.066 -0.2,0.242 -0.109,0.418 -0.375,1.121 -0.859,1.121 -0.262,0 -0.352,-0.242 -0.352,-0.504 0,-0.18 0,-0.199 0.067,-0.441 0.023,-0.043 0.047,-0.2 0.047,-0.309 0,-0.879 -1.168,-1.012 -1.586,-1.031 0.285,-0.176 0.64,-0.508 0.816,-0.66 0.504,-0.461 0.988,-0.926 1.539,-0.926 0.11,0 0.239,0.023 0.328,0.133 -0.418,0.066 -0.507,0.394 -0.507,0.551 0,0.199 0.156,0.351 0.375,0.351 0.285,0 0.574,-0.219 0.574,-0.617 0,-0.328 -0.242,-0.703 -0.75,-0.703 -0.571,0 -1.078,0.418 -1.582,0.879 -0.418,0.375 -0.727,0.683 -1.145,0.859 z"
         style="fill:#000000;fill-opacity:1;fill-rule:nonzero;stroke:none"
         id="path314" />
      <path
         d="m 218.855,13.895 c 0,-0.043 0,-0.067 -0.242,-0.309 -1.738,-1.758 -2.199,-4.418 -2.199,-6.574 0,-2.438 0.527,-4.879 2.266,-6.617 0.175,-0.176 0.175,-0.196 0.175,-0.243 0,-0.109 -0.043,-0.152 -0.132,-0.152 -0.153,0 -1.407,0.969 -2.243,2.75 -0.703,1.535 -0.878,3.098 -0.878,4.262 0,1.101 0.152,2.793 0.921,4.398 0.86,1.715 2.047,2.637 2.2,2.637 0.089,0 0.132,-0.043 0.132,-0.152 z"
         style="fill:#000000;fill-opacity:1;fill-rule:nonzero;stroke:none"
         id="path316" />
      <path
         d="m 226.238,5.32 c 0,-0.769 -0.371,-0.988 -0.613,-0.988 -0.352,0 -0.703,0.371 -0.703,0.68 0,0.176 0.066,0.265 0.219,0.418 0.308,0.285 0.484,0.636 0.484,1.144 0,0.594 -0.859,3.801 -2.484,3.801 -0.727,0 -1.055,-0.48 -1.055,-1.23 0,-0.77 0.394,-1.801 0.812,-2.969 0.11,-0.238 0.176,-0.438 0.176,-0.703 0,-0.614 -0.441,-1.141 -1.144,-1.141 -1.317,0 -1.844,2.043 -1.844,2.152 0,0.157 0.129,0.157 0.152,0.157 0.153,0 0.153,-0.047 0.219,-0.266 0.418,-1.406 1.012,-1.734 1.43,-1.734 0.109,0 0.351,0 0.351,0.437 0,0.352 -0.152,0.746 -0.242,0.988 -0.613,1.629 -0.789,2.266 -0.789,2.883 0,1.516 1.231,1.735 1.867,1.735 2.352,0 3.164,-4.637 3.164,-5.364 z"
         style="fill:#000000;fill-opacity:1;fill-rule:nonzero;stroke:none"
         id="path318" />
      <path
         d="m 229.824,10.508 c 0,-0.922 -0.351,-1.473 -0.902,-1.473 -0.461,0 -0.746,0.352 -0.746,0.746 0,0.375 0.285,0.75 0.746,0.75 0.156,0 0.351,-0.066 0.484,-0.176 0.043,-0.043 0.067,-0.043 0.067,-0.043 0.019,0 0.019,0 0.019,0.196 0,1.054 -0.48,1.89 -0.945,2.351 -0.152,0.157 -0.152,0.176 -0.152,0.223 0,0.109 0.066,0.152 0.132,0.152 0.153,0 1.297,-1.078 1.297,-2.726 z"
         style="fill:#000000;fill-opacity:1;fill-rule:nonzero;stroke:none"
         id="path320" />
      <path
         d="m 236.082,4.926 h 1.316 c 0.29,0 0.442,0 0.442,-0.285 0,-0.157 -0.152,-0.157 -0.395,-0.157 h -1.234 c 0.508,-2 0.574,-2.265 0.574,-2.351 0,-0.242 -0.176,-0.375 -0.418,-0.375 -0.043,0 -0.441,0 -0.551,0.508 l -0.55,2.218 h -1.317 c -0.285,0 -0.418,0 -0.418,0.266 0,0.176 0.11,0.176 0.395,0.176 h 1.23 c -1.011,3.976 -1.074,4.219 -1.074,4.461 0,0.769 0.527,1.297 1.297,1.297 1.426,0 2.219,-2.043 2.219,-2.153 0,-0.156 -0.11,-0.156 -0.153,-0.156 -0.133,0 -0.156,0.047 -0.222,0.199 -0.594,1.473 -1.34,1.801 -1.825,1.801 -0.285,0 -0.437,-0.176 -0.437,-0.637 0,-0.351 0.043,-0.437 0.086,-0.679 z"
         style="fill:#000000;fill-opacity:1;fill-rule:nonzero;stroke:none"
         id="path322" />
      <path
         d="m 242.301,7.012 c 0,-1.074 -0.153,-2.77 -0.922,-4.375 C 240.543,0.922 239.332,0 239.203,0 c -0.09,0 -0.156,0.066 -0.156,0.152 0,0.047 0,0.067 0.265,0.332 1.383,1.383 2.176,3.606 2.176,6.528 0,2.418 -0.508,4.883 -2.242,6.64 -0.199,0.176 -0.199,0.2 -0.199,0.243 0,0.085 0.066,0.152 0.156,0.152 0.129,0 1.406,-0.965 2.219,-2.746 0.726,-1.539 0.879,-3.102 0.879,-4.289 z"
         style="fill:#000000;fill-opacity:1;fill-rule:nonzero;stroke:none"
         id="path324" />
      <path
         d="m 128.703,113.566 c 0,-0.949 -0.461,-1.222 -0.758,-1.222 -0.437,0 -0.871,0.461 -0.871,0.844 0,0.214 0.082,0.324 0.274,0.515 0.379,0.352 0.597,0.785 0.597,1.41 0,0.735 -1.062,4.703 -3.07,4.703 -0.898,0 -1.305,-0.597 -1.305,-1.523 0,-0.949 0.489,-2.227 1.004,-3.668 0.137,-0.297 0.219,-0.543 0.219,-0.867 0,-0.762 -0.543,-1.414 -1.414,-1.414 -1.629,0 -2.281,2.527 -2.281,2.664 0,0.187 0.164,0.187 0.191,0.187 0.188,0 0.188,-0.054 0.27,-0.324 0.515,-1.738 1.25,-2.148 1.765,-2.148 0.137,0 0.438,0 0.438,0.547 0,0.433 -0.192,0.921 -0.301,1.218 -0.762,2.012 -0.977,2.801 -0.977,3.559 0,1.875 1.52,2.148 2.309,2.148 2.906,0 3.91,-5.73 3.91,-6.629 z"
         style="fill:#000000;fill-opacity:1;fill-rule:nonzero;stroke:none"
         id="path326" />
      <path
         d="m 256.559,44.879 c 0,-0.949 -0.465,-1.223 -0.762,-1.223 -0.434,0 -0.871,0.461 -0.871,0.844 0,0.215 0.082,0.324 0.273,0.516 0.379,0.351 0.598,0.785 0.598,1.41 0,0.734 -1.059,4.703 -3.07,4.703 -0.899,0 -1.305,-0.598 -1.305,-1.524 0,-0.949 0.488,-2.226 1.004,-3.667 0.136,-0.297 0.219,-0.543 0.219,-0.868 0,-0.761 -0.543,-1.414 -1.415,-1.414 -1.628,0 -2.281,2.528 -2.281,2.664 0,0.188 0.164,0.188 0.192,0.188 0.191,0 0.191,-0.055 0.273,-0.324 0.516,-1.739 1.246,-2.149 1.766,-2.149 0.132,0 0.433,0 0.433,0.547 0,0.434 -0.191,0.922 -0.301,1.219 -0.757,2.011 -0.976,2.801 -0.976,3.562 0,1.871 1.519,2.145 2.309,2.145 2.906,0 3.914,-5.731 3.914,-6.629 z"
         style="fill:#000000;fill-opacity:1;fill-rule:nonzero;stroke:none"
         id="path328" />
      <path
         d="m 291.723,174.988 c 0,-0.953 -0.461,-1.222 -0.762,-1.222 -0.434,0 -0.867,0.461 -0.867,0.839 0,0.219 0.082,0.329 0.269,0.516 0.383,0.356 0.598,0.789 0.598,1.414 0,0.735 -1.059,4.699 -3.07,4.699 -0.895,0 -1.301,-0.597 -1.301,-1.519 0,-0.953 0.488,-2.227 1.004,-3.668 0.136,-0.301 0.218,-0.543 0.218,-0.871 0,-0.758 -0.546,-1.41 -1.414,-1.41 -1.628,0 -2.281,2.527 -2.281,2.66 0,0.191 0.16,0.191 0.188,0.191 0.191,0 0.191,-0.055 0.273,-0.324 0.516,-1.742 1.25,-2.148 1.766,-2.148 0.136,0 0.433,0 0.433,0.543 0,0.433 -0.187,0.925 -0.297,1.222 -0.761,2.012 -0.98,2.797 -0.98,3.559 0,1.875 1.523,2.148 2.312,2.148 2.907,0 3.911,-5.734 3.911,-6.629 z"
         style="fill:#000000;fill-opacity:1;fill-rule:nonzero;stroke:none"
         id="path330" />
      <g
         id="g368">
        <path
           d="m 89.328,119.395 c 2.981,6.73 -0.058,14.605 -6.785,17.593 -6.731,2.989 -14.609,-0.043 -17.602,-6.769 -2.996,-6.727 0.024,-14.606 6.747,-17.61 6.722,-3 14.609,0.008 17.617,6.731 z"
           style="fill:#d88c9a;fill-opacity:1;fill-rule:nonzero;stroke:#382327;stroke-width:1.14236;stroke-linecap:butt;stroke-linejoin:miter;stroke-miterlimit:4;stroke-dasharray:none;stroke-opacity:1"
           id="path370" />
      </g>
      <g
         id="g372">
        <path
           d="m 223.531,53.418 c 2.981,6.734 -0.058,14.605 -6.789,17.594 -6.726,2.988 -14.605,-0.043 -17.601,-6.77 -2.993,-6.726 0.027,-14.605 6.75,-17.609 6.722,-3 14.605,0.012 17.617,6.73 z"
           style="fill:#f2d0a9;fill-opacity:1;fill-rule:nonzero;stroke:#382327;stroke-width:1.14236;stroke-linecap:butt;stroke-linejoin:miter;stroke-miterlimit:4;stroke-dasharray:none;stroke-opacity:1"
           id="path374" />
      </g>
      <g
         id="g376">
        <path
           d="m 255.027,187.508 c 2.981,6.734 -0.058,14.609 -6.785,17.594 -6.73,2.988 -14.609,-0.04 -17.605,-6.766 -2.992,-6.727 0.027,-14.609 6.75,-17.609 6.722,-3.004 14.609,0.007 17.617,6.726 z"
           style="fill:#99c1b9;fill-opacity:1;fill-rule:nonzero;stroke:#382327;stroke-width:1.14236;stroke-linecap:butt;stroke-linejoin:miter;stroke-miterlimit:4;stroke-dasharray:none;stroke-opacity:1"
           id="path378" />
      </g>
      <g
         id="g410">
        <path
           d="M 189.953,169.926 H 296.23"
           style="fill:none;stroke:#382327;stroke-width:1.31811;stroke-linecap:butt;stroke-linejoin:miter;stroke-miterlimit:4;stroke-dasharray:none;stroke-opacity:1"
           id="path412" />
      </g>
      <g
         id="g414">
        <path
           d="m 299.273,169.926 -4.558,2.636 v -5.273 z"
           style="fill:#382327;fill-opacity:1;fill-rule:evenodd;stroke:#382327;stroke-width:0.702992;stroke-linecap:butt;stroke-linejoin:miter;stroke-miterlimit:4;stroke-dasharray:none;stroke-opacity:1"
           id="path416" />
      </g>
      <path
         d="m 190.539,169.402 c 15.836,-3.297 19.984,-27.832 29.629,-27.507 5.496,0.183 9.262,14.851 14.277,20.921 2.559,3.098 8.907,-4.992 11.809,-7.183 6.73,-5.074 11.637,4.644 15.203,7.019 6.109,4.071 15.965,6.668 28.578,6.7"
         style="fill:#99c1b9;fill-opacity:0.74902;fill-rule:nonzero;stroke:none"
         id="path418" />
    </g>
  </g>
</svg>
