<?xml version="1.0" encoding="UTF-8"?>
<!-- Created with Inkscape (http://www.inkscape.org/) -->
<svg width="145.63mm" height="119.69mm" version="1.1" viewBox="0 0 145.63 119.69" xml:space="preserve" xmlns="http://www.w3.org/2000/svg"><defs><marker id="marker8097" overflow="visible" markerHeight="6.155385" markerWidth="5.3244081" orient="auto-start-reverse" preserveAspectRatio="xMidYMid" viewBox="0 0 5.3244081 6.1553851"><path transform="scale(.5)" d="m5.77 0-8.65 5v-10z" fill="context-stroke" fill-rule="evenodd" stroke="context-stroke" stroke-width="1pt"/></marker><marker id="TriangleStart" overflow="visible" markerHeight="6.155385" markerWidth="5.3244081" orient="auto-start-reverse" preserveAspectRatio="xMidYMid" viewBox="0 0 5.3244081 6.1553851"><path transform="scale(.5)" d="m5.77 0-8.65 5v-10z" fill="context-stroke" fill-rule="evenodd" stroke="context-stroke" stroke-width="1pt"/></marker><clipPath id="clipPath5531"><path d="m45 39.6h279v277.2h-279z"/></clipPath><clipPath id="clipPath5541"><path d="m45 39.6h279v277.2h-279z"/></clipPath><clipPath id="clipPath5551"><path d="m45 39.6h279v277.2h-279z"/></clipPath><clipPath id="clipPath5561"><path d="m45 39.6h279v277.2h-279z"/></clipPath><clipPath id="clipPath5571"><path d="m45 39.6h279v277.2h-279z"/></clipPath><clipPath><path d="m45 39.6h279v277.2h-279z"/></clipPath><clipPath id="clipPath1564-4"><path d="m45 39.6h279v277.2h-279z"/></clipPath><clipPath id="clipPath1574-0"><path d="m45 39.6h279v277.2h-279z"/></clipPath><clipPath id="clipPath1584-6"><path d="m45 39.6h279v277.2h-279z"/></clipPath><clipPath id="clipPath1594-3"><path d="m45 39.6h279v277.2h-279z"/></clipPath><clipPath id="clipPath1604-6"><path d="m45 39.6h279v277.2h-279z"/></clipPath><clipPath id="clipPath1614-4"><path d="m45 39.6h279v277.2h-279z"/></clipPath><clipPath id="clipPath1624-3"><path d="m45 39.6h279v277.2h-279z"/></clipPath><clipPath id="clipPath1634-8"><path d="m45 39.6h279v277.2h-279z"/></clipPath><clipPath id="clipPath1644-3"><path d="m45 39.6h279v277.2h-279z"/></clipPath><clipPath id="clipPath1654-1"><path d="m45 39.6h279v277.2h-279z"/></clipPath><clipPath id="clipPath1664-3"><path d="m45 39.6h279v277.2h-279z"/></clipPath><clipPath id="clipPath1674-4"><path d="m45 39.6h279v277.2h-279z"/></clipPath><clipPath id="clipPath1684-6"><path d="m45 39.6h279v277.2h-279z"/></clipPath><clipPath id="clipPath1694-9"><path d="m45 39.6h279v277.2h-279z"/></clipPath><clipPath id="clipPath1704-4"><path d="m45 39.6h279v277.2h-279z"/></clipPath><clipPath id="clipPath1714-1"><path d="m45 39.6h279v277.2h-279z"/></clipPath><clipPath id="clipPath1724-5"><path d="m45 39.6h279v277.2h-279z"/></clipPath><clipPath id="clipPath1734-4"><path d="m45 39.6h279v277.2h-279z"/></clipPath><clipPath id="clipPath1744-8"><path d="m45 39.6h279v277.2h-279z"/></clipPath><clipPath id="clipPath1754-3"><path d="m45 39.6h279v277.2h-279z"/></clipPath><clipPath id="clipPath1764-2"><path d="m45 39.6h279v277.2h-279z"/></clipPath><clipPath id="clipPath1774-6"><path d="m45 39.6h279v277.2h-279z"/></clipPath><clipPath id="clipPath1784-7"><path d="m45 39.6h279v277.2h-279z"/></clipPath><clipPath id="clipPath1794-4"><path d="m45 39.6h279v277.2h-279z"/></clipPath><clipPath id="clipPath1804-7"><path d="m45 39.6h279v277.2h-279z"/></clipPath><clipPath id="clipPath1814-8"><path d="m45 39.6h279v277.2h-279z"/></clipPath><clipPath id="clipPath1824-8"><path d="m45 39.6h279v277.2h-279z"/></clipPath><clipPath id="clipPath1834-7"><path d="m45 39.6h279v277.2h-279z"/></clipPath><clipPath id="clipPath1844-4"><path d="m45 39.6h279v277.2h-279z"/></clipPath><clipPath id="clipPath1854-1"><path d="m45 39.6h279v277.2h-279z"/></clipPath><clipPath id="clipPath1864-5"><path d="m45 39.6h279v277.2h-279z"/></clipPath><clipPath id="clipPath1874-8"><path d="m45 39.6h279v277.2h-279z"/></clipPath><clipPath id="clipPath1884-9"><path d="m45 39.6h279v277.2h-279z"/></clipPath><clipPath id="clipPath1894-2"><path d="m45 39.6h279v277.2h-279z"/></clipPath><clipPath id="clipPath1904-7"><path d="m45 39.6h279v277.2h-279z"/></clipPath><clipPath id="clipPath1914-8"><path d="m45 39.6h279v277.2h-279z"/></clipPath><clipPath id="clipPath1924-8"><path d="m45 39.6h279v277.2h-279z"/></clipPath><clipPath id="clipPath1934-0"><path d="m45 39.6h279v277.2h-279z"/></clipPath><clipPath id="clipPath1944-2"><path d="m45 39.6h279v277.2h-279z"/></clipPath><clipPath id="clipPath1954-5"><path d="m45 39.6h279v277.2h-279z"/></clipPath><clipPath id="clipPath1964-2"><path d="m45 39.6h279v277.2h-279z"/></clipPath>
      
      
      
      
    
      
      
      
      
      
    <g id="id-d6f1aeb4-ed67-4587-acea-b934a1b6a18e">
      
      
      
      
      
      
      
    </g>
      
      
      
      
      
    
  
  
  

      
      
    
      
      
    
      
      
    
  
  
  
  

  
  

  
  
  
  
  
  
  
  
  
  
  
  
  
  
  
  
  
  
  
  
  
  
  
  
<g id="id-4c72dffc-024f-49e8-bef1-1e64ec30b93e">
      
      
    </g>
  
  
  
  

    
    
    
    <clipPath id="clipPath13312"><path d="m406.01 113.03h98.425v-97.79h-98.425z" stroke-width=".35278"/></clipPath><clipPath id="clipPath13342"><path d="m406.01 113.03h98.425v-97.79h-98.425z" stroke-width=".35278"/></clipPath><clipPath id="clipPath13371"><path d="m406.01 113.03h98.425v-97.79h-98.425z" stroke-width=".35278"/></clipPath><clipPath id="clipPath13400"><path d="m406.01 113.03h98.425v-97.79h-98.425z" stroke-width=".35278"/></clipPath><clipPath id="clipPath13430"><path d="m406.01 113.03h98.425v-97.79h-98.425z" stroke-width=".35278"/></clipPath><clipPath id="clipPath13490"><path d="m406.01 113.03h98.425v-97.79h-98.425z" stroke-width=".35278"/></clipPath><clipPath id="clipPath13497"><path d="m406.01 113.03h98.425v-97.79h-98.425z" stroke-width=".35278"/></clipPath><clipPath id="clipPath13503"><path d="m406.01 113.03h98.425v-97.79h-98.425z" stroke-width=".35278"/></clipPath><clipPath id="clipPath13509"><path d="m406.01 113.03h98.425v-97.79h-98.425z" stroke-width=".35278"/></clipPath><clipPath id="clipPath13515"><path d="m406.01 113.03h98.425v-97.79h-98.425z" stroke-width=".35278"/></clipPath><clipPath id="clipPath13521"><path d="m406.01 113.03h98.425v-97.79h-98.425z" stroke-width=".35278"/></clipPath><clipPath id="clipPath13527"><path d="m406.01 113.03h98.425v-97.79h-98.425z" stroke-width=".35278"/></clipPath><clipPath id="clipPath13533"><path d="m406.01 113.03h98.425v-97.79h-98.425z" stroke-width=".35278"/></clipPath><clipPath id="clipPath13539"><path d="m406.01 113.03h98.425v-97.79h-98.425z" stroke-width=".35278"/></clipPath><clipPath id="clipPath13545"><path d="m406.01 113.03h98.425v-97.79h-98.425z" stroke-width=".35278"/></clipPath><clipPath id="clipPath13551"><path d="m406.01 113.03h98.425v-97.79h-98.425z" stroke-width=".35278"/></clipPath><clipPath id="clipPath13557"><path d="m406.01 113.03h98.425v-97.79h-98.425z" stroke-width=".35278"/></clipPath><clipPath id="clipPath13563"><path d="m406.01 113.03h98.425v-97.79h-98.425z" stroke-width=".35278"/></clipPath><clipPath id="clipPath13569"><path d="m406.01 113.03h98.425v-97.79h-98.425z" stroke-width=".35278"/></clipPath><clipPath id="clipPath13575"><path d="m406.01 113.03h98.425v-97.79h-98.425z" stroke-width=".35278"/></clipPath><clipPath id="clipPath13581"><path d="m406.01 113.03h98.425v-97.79h-98.425z" stroke-width=".35278"/></clipPath><clipPath id="clipPath13587"><path d="m406.01 113.03h98.425v-97.79h-98.425z" stroke-width=".35278"/></clipPath><clipPath id="clipPath13593"><path d="m406.01 113.03h98.425v-97.79h-98.425z" stroke-width=".35278"/></clipPath><clipPath id="clipPath13599"><path d="m406.01 113.03h98.425v-97.79h-98.425z" stroke-width=".35278"/></clipPath><clipPath id="clipPath13605"><path d="m406.01 113.03h98.425v-97.79h-98.425z" stroke-width=".35278"/></clipPath><clipPath id="clipPath13611"><path d="m406.01 113.03h98.425v-97.79h-98.425z" stroke-width=".35278"/></clipPath><clipPath id="clipPath13617"><path d="m406.01 113.03h98.425v-97.79h-98.425z" stroke-width=".35278"/></clipPath><clipPath id="clipPath13623"><path d="m406.01 113.03h98.425v-97.79h-98.425z" stroke-width=".35278"/></clipPath><clipPath id="clipPath13629"><path d="m406.01 113.03h98.425v-97.79h-98.425z" stroke-width=".35278"/></clipPath><clipPath id="clipPath13635"><path d="m406.01 113.03h98.425v-97.79h-98.425z" stroke-width=".35278"/></clipPath><clipPath id="clipPath13641"><path d="m406.01 113.03h98.425v-97.79h-98.425z" stroke-width=".35278"/></clipPath><clipPath id="clipPath13647"><path d="m406.01 113.03h98.425v-97.79h-98.425z" stroke-width=".35278"/></clipPath><clipPath id="clipPath13676"><path d="m406.01 113.03h98.425v-97.79h-98.425z" stroke-width=".35278"/></clipPath><clipPath id="clipPath13706"><path d="m406.01 113.03h98.425v-97.79h-98.425z" stroke-width=".35278"/></clipPath><clipPath id="clipPath13736"><path d="m406.01 113.03h98.425v-97.79h-98.425z" stroke-width=".35278"/></clipPath><clipPath id="clipPath13766"><path d="m33.237 35.758-41.219 16.324-4.9233-35.842 41.219-16.324z" stroke-width=".14192"/></clipPath><clipPath id="clipPath13800"><path d="m406.01 113.03h98.425v-97.79h-98.425z" stroke-width=".35278"/></clipPath><clipPath id="clipPath13830"><path d="m406.01 113.03h98.425v-97.79h-98.425z" stroke-width=".35278"/></clipPath><clipPath id="clipPath13860"><path d="m406.01 113.03h98.425v-97.79h-98.425z" stroke-width=".35278"/></clipPath><clipPath id="clipPath13890"><path d="m406.01 113.03h98.425v-97.79h-98.425z" stroke-width=".35278"/></clipPath><clipPath id="clipPath13920"><path d="m406.01 113.03h98.425v-97.79h-98.425z" stroke-width=".35278"/></clipPath>
  
  
  
  
  
  
  
  
  
  
</defs><g transform="translate(201.81 -42.552)"><g transform="matrix(1.1286 0 0 1.1286 -199.18 30.066)"><path d="m91.042 115.17c-9.9333-31.603-83.757-94.053-83.757-94.053" fill="none" marker-start="url(#marker8097)" stroke="#c0b085" stroke-dasharray="0.4, 0.8" stroke-linecap="round" stroke-linejoin="round" stroke-opacity=".78049" stroke-width=".4"/><g transform="matrix(-.059947 .26171 -.2656 .013807 144.17 30.041)" clip-path="url(#clipPath1564-4)" fill="#d5236d" fill-opacity=".54902"><path d="m170.66 211.93 5.5109-75.004 66.813 42.039z" fill="#d5236d" fill-opacity=".54902" stroke="#d45087" stroke-miterlimit="10" stroke-opacity=".55"/></g><g transform="matrix(-.059947 .26171 -.2656 .013807 144.17 30.041)" clip-path="url(#clipPath1574-0)" fill="#ff6a29" fill-opacity=".55"><path d="m170.66 211.93 5.5109-75.004-60.455 31.617z" fill="#ff6a29" fill-opacity=".55" stroke="#ff7c43" stroke-miterlimit="10" stroke-opacity=".55"/></g><g transform="matrix(-.059947 .26171 -.2656 .013807 144.17 30.041)" clip-path="url(#clipPath1584-6)"><path d="m170.66 211.93 5.5109-75.004-28.827 39.948z" fill="#a05195" fill-opacity=".55" stroke="#a05195" stroke-miterlimit="10" stroke-opacity=".55"/></g><g transform="matrix(-.059947 .26171 -.2656 .013807 144.17 30.041)" clip-path="url(#clipPath1594-3)"><path d="m170.66 211.93 5.5109-75.004-7.729 36.648z" fill="#005982" fill-opacity=".5443" stroke="#003f5c" stroke-miterlimit="10" stroke-opacity=".55"/></g><g transform="matrix(-.059947 .26171 -.2656 .013807 144.17 30.041)" clip-path="url(#clipPath1604-6)" fill="#ff6a29" fill-opacity=".55"><path d="m170.66 211.93 72.324-32.965-9.6724 64.576z" fill="#ff6a29" fill-opacity=".55" stroke="#ff7c43" stroke-miterlimit="10" stroke-opacity=".55"/></g><g transform="matrix(-.059947 .26171 -.2656 .013807 144.17 30.041)" clip-path="url(#clipPath1614-4)"><path d="m170.66 211.93 72.324-32.965-27.038 39.057z" fill="#a05195" fill-opacity=".55" stroke="#a05195" stroke-miterlimit="10" stroke-opacity=".55"/></g><g transform="matrix(-.059947 .26171 -.2656 .013807 144.17 30.041)" clip-path="url(#clipPath1624-3)"><path d="m170.66 211.93 72.324-32.965-33.703 20.435z" fill="#005982" fill-opacity=".5443" stroke="#003f5c" stroke-miterlimit="10" stroke-opacity=".55"/></g><g transform="matrix(-.059947 .26171 -.2656 .013807 144.17 30.041)" clip-path="url(#clipPath1634-8)" fill="#a03091" fill-opacity=".54902"><path d="m170.66 211.93-54.944-43.387-11.154 42.481z" fill="#a03091" fill-opacity=".54902" stroke="#a05195" stroke-miterlimit="10" stroke-opacity=".55"/></g><g transform="matrix(-.059947 .26171 -.2656 .013807 144.17 30.041)" clip-path="url(#clipPath1644-3)"><path d="m170.66 211.93-54.944-43.387 3.1581 32.412z" fill="#005982" fill-opacity=".5443" stroke="#003f5c" stroke-miterlimit="10" stroke-opacity=".55"/></g><g transform="matrix(-.059947 .26171 -.2656 .013807 144.17 30.041)" clip-path="url(#clipPath1654-1)" fill="#a03091" fill-opacity=".54902"><path d="m170.66 211.93 62.652 31.611-37.879 25.226z" fill="#a03091" fill-opacity=".54902" stroke="#a05195" stroke-miterlimit="10" stroke-opacity=".55"/></g><g transform="matrix(-.059947 .26171 -.2656 .013807 144.17 30.041)" clip-path="url(#clipPath1664-3)"><path d="m170.66 211.93 62.652 31.611-32.983 9.3778z" fill="#005982" fill-opacity=".5443" stroke="#003f5c" stroke-miterlimit="10" stroke-opacity=".55"/></g><g transform="matrix(-.059947 .26171 -.2656 .013807 144.17 30.041)" clip-path="url(#clipPath1674-4)"><path d="m170.66 211.93-23.316-35.057-11.562 39.266z" fill="#005982" fill-opacity=".5443" stroke="#003f5c" stroke-miterlimit="10" stroke-opacity=".55"/></g><g transform="matrix(-.059947 .26171 -.2656 .013807 144.17 30.041)" clip-path="url(#clipPath1684-6)" fill="#003f5c" fill-opacity=".55"><path d="m170.66 211.93 45.286 6.0916-34.908 24.5z" fill="#005982" fill-opacity=".5443" stroke="#003f5c" stroke-miterlimit="10" stroke-opacity=".55"/></g><g transform="matrix(-.059947 .26171 -.2656 .013807 144.17 30.041)" clip-path="url(#clipPath1694-9)"><path d="m170.66 211.93-66.098-0.90621 13.553 29.752z" fill="#005982" fill-opacity=".5443" stroke="#003f5c" stroke-miterlimit="10" stroke-opacity=".55"/></g><g transform="matrix(-.059947 .26171 -.2656 .013807 144.17 30.041)" clip-path="url(#clipPath1704-4)"><path d="m170.66 211.93 24.772 56.837-34.393-0.87154z" fill="#005982" fill-opacity=".5443" stroke="#003f5c" stroke-miterlimit="10" stroke-opacity=".55"/></g><g transform="matrix(-.059947 .26171 -.2656 .013807 144.17 30.041)" clip-path="url(#clipPath1714-1)" fill="#ff6a29" fill-opacity=".55"><path d="m176.17 136.93 66.813 42.039-0.51969-65.875z" fill="#ff6a29" fill-opacity=".55" stroke="#ff7c43" stroke-miterlimit="10" stroke-opacity=".55"/></g><g transform="matrix(-.059947 .26171 -.2656 .013807 144.17 30.041)" clip-path="url(#clipPath1724-5)"><path d="m176.17 136.93 66.813 42.039-19.668-41.567z" fill="#a05195" fill-opacity=".55" stroke="#a05195" stroke-miterlimit="10" stroke-opacity=".55"/></g><g transform="matrix(-.059947 .26171 -.2656 .013807 144.17 30.041)" clip-path="url(#clipPath1734-4)"><path d="m176.17 136.93 66.813 42.039-30.427-24.911z" fill="#005982" fill-opacity=".5443" stroke="#003f5c" stroke-miterlimit="10" stroke-opacity=".55"/></g><g transform="matrix(-.059947 .26171 -.2656 .013807 144.17 30.041)" clip-path="url(#clipPath1744-8)" fill="#a03091" fill-opacity=".54902"><path d="m176.17 136.93-60.455 31.617-4.6576-41.977z" fill="#a03091" fill-opacity=".54902" stroke="#a05195" stroke-miterlimit="10" stroke-opacity=".55"/></g><g transform="matrix(-.059947 .26171 -.2656 .013807 144.17 30.041)" clip-path="url(#clipPath1754-3)"><path d="m176.17 136.93-60.455 31.617 9.4752-36.069z" fill="#005982" fill-opacity=".5443" stroke="#003f5c" stroke-miterlimit="10" stroke-opacity=".55"/></g><g transform="matrix(-.059947 .26171 -.2656 .013807 144.17 30.041)" clip-path="url(#clipPath1764-2)"><path d="m176.17 136.93-28.827 39.948-5.3886-35.035z" fill="#005982" fill-opacity=".5443" stroke="#003f5c" stroke-miterlimit="10" stroke-opacity=".55"/></g><g transform="matrix(-.059947 .26171 -.2656 .013807 144.17 30.041)" clip-path="url(#clipPath1774-6)" fill="#a03091" fill-opacity=".54902"><path d="m176.17 136.93 66.293-23.836-34.108-29.565z" fill="#a03091" fill-opacity=".54902" stroke="#a05195" stroke-miterlimit="10" stroke-opacity=".55"/></g><g transform="matrix(-.059947 .26171 -.2656 .013807 144.17 30.041)" clip-path="url(#clipPath1784-7)"><path d="m176.17 136.93 66.293-23.836-31.215-13.665z" fill="#005982" fill-opacity=".5443" stroke="#003f5c" stroke-miterlimit="10" stroke-opacity=".55"/></g><g transform="matrix(-.059947 .26171 -.2656 .013807 144.17 30.041)" clip-path="url(#clipPath1794-4)"><path d="m176.17 136.93 47.145 0.4723-26.935-28.169z" fill="#005982" fill-opacity=".5443" stroke="#003f5c" stroke-miterlimit="10" stroke-opacity=".55"/></g><g transform="matrix(-.059947 .26171 -.2656 .013807 144.17 30.041)" clip-path="url(#clipPath1804-7)"><path d="m176.17 136.93-65.112-10.36 19.453-26.276z" fill="#005982" fill-opacity=".5443" stroke="#003f5c" stroke-miterlimit="10" stroke-opacity=".55"/></g><g transform="matrix(-.059947 .26171 -.2656 .013807 144.17 30.041)" clip-path="url(#clipPath1814-8)"><path d="m176.17 136.93 32.186-53.401-33.902-2.9726z" fill="#005982" fill-opacity=".5443" stroke="#003f5c" stroke-miterlimit="10" stroke-opacity=".55"/></g><g transform="matrix(-.059947 .26171 -.2656 .013807 144.17 30.041)" clip-path="url(#clipPath1824-8)" fill="#a03091" fill-opacity=".54902"><path d="m242.99 178.97-9.6724 64.576 44.697-12.907z" fill="#a03091" fill-opacity=".54902" stroke="#a05195" stroke-miterlimit="10" stroke-opacity=".55"/></g><g transform="matrix(-.059947 .26171 -.2656 .013807 144.17 30.041)" clip-path="url(#clipPath1834-7)"><path d="m242.99 178.97-9.6724 64.576 29.554-18.462z" fill="#005982" fill-opacity=".5443" stroke="#003f5c" stroke-miterlimit="10" stroke-opacity=".55"/></g><g transform="matrix(-.059947 .26171 -.2656 .013807 144.17 30.041)" clip-path="url(#clipPath1844-4)"><path d="m242.99 178.97-27.038 39.057 43.118-10.938z" fill="#005982" fill-opacity=".5443" stroke="#003f5c" stroke-miterlimit="10" stroke-opacity=".55"/></g><g transform="matrix(-.059947 .26171 -.2656 .013807 144.17 30.041)" clip-path="url(#clipPath1854-1)" fill="#a03091" fill-opacity=".54902"><path d="m242.99 178.97-0.51969-65.875 42.219 18.565z" fill="#a03091" fill-opacity=".54902" stroke="#a05195" stroke-miterlimit="10" stroke-opacity=".55"/></g><g transform="matrix(-.059947 .26171 -.2656 .013807 144.17 30.041)" clip-path="url(#clipPath1864-5)"><path d="m242.99 178.97-0.51969-65.875 25.721 21.705z" fill="#005982" fill-opacity=".5443" stroke="#003f5c" stroke-miterlimit="10" stroke-opacity=".55"/></g><g transform="matrix(-.059947 .26171 -.2656 .013807 144.17 30.041)" clip-path="url(#clipPath1874-8)"><path d="m242.99 178.97-19.668-41.567 30.446 12.232z" fill="#005982" fill-opacity=".5443" stroke="#003f5c" stroke-miterlimit="10" stroke-opacity=".55"/></g><g transform="matrix(-.059947 .26171 -.2656 .013807 144.17 30.041)" clip-path="url(#clipPath1884-9)"><path d="m242.99 178.97 41.699-47.31 15.102 28.191z" fill="#005982" fill-opacity=".5443" stroke="#003f5c" stroke-miterlimit="10" stroke-opacity=".55"/></g><g transform="matrix(-.059947 .26171 -.2656 .013807 144.17 30.041)" clip-path="url(#clipPath1894-2)"><path d="m242.99 178.97 35.025 51.669 18.62-26.28z" fill="#005982" fill-opacity=".5443" stroke="#003f5c" stroke-miterlimit="10" stroke-opacity=".55"/></g><g transform="matrix(-.059947 .26171 -.2656 .013807 144.17 30.041)" clip-path="url(#clipPath1904-7)"><path d="m115.72 168.54-11.154 42.481-35.355-18.6z" fill="#005982" fill-opacity=".5443" stroke="#003f5c" stroke-miterlimit="10" stroke-opacity=".55"/></g><g transform="matrix(-.059947 .26171 -.2656 .013807 144.17 30.041)" clip-path="url(#clipPath1914-8)"><path d="m115.72 168.54-4.6576-41.977-37.7 11.803z" fill="#005982" fill-opacity=".5443" stroke="#003f5c" stroke-miterlimit="10" stroke-opacity=".55"/></g><g transform="matrix(-.059947 .26171 -.2656 .013807 144.17 30.041)" clip-path="url(#clipPath1924-8)"><path d="m233.32 243.54-37.879 25.226 31.459 23.976z" fill="#005982" fill-opacity=".5443" stroke="#003f5c" stroke-miterlimit="10" stroke-opacity=".55"/></g><g transform="matrix(-.059947 .26171 -.2656 .013807 144.17 30.041)" clip-path="url(#clipPath1934-0)"><path d="m233.32 243.54 44.697-12.907 1.6701 37.448z" fill="#005982" fill-opacity=".5443" stroke="#003f5c" stroke-miterlimit="10" stroke-opacity=".55"/></g><g transform="matrix(-.059947 .26171 -.2656 .013807 144.17 30.041)" clip-path="url(#clipPath1944-2)"><path d="m242.47 113.09-34.108-29.565 34.48-19.872z" fill="#005982" fill-opacity=".5443" stroke="#003f5c" stroke-miterlimit="10" stroke-opacity=".55"/></g><g transform="matrix(-.059947 .26171 -.2656 .013807 144.17 30.041)" clip-path="url(#clipPath1954-5)"><path d="m242.47 113.09 42.219 18.565 7.0339-37.127z" fill="#005982" fill-opacity=".5443" stroke="#003f5c" stroke-miterlimit="10" stroke-opacity=".55"/></g><g transform="matrix(-.059947 .26171 -.2656 .013807 144.17 30.041)" clip-path="url(#clipPath1964-2)"><g fill="none" stroke="#011a25" stroke-linejoin="round" stroke-miterlimit="10" stroke-width="1.2"><path d="m170.66 211.93 5.5109-75.004"/><path d="m170.66 211.93 72.324-32.965"/><path d="m170.66 211.93-54.944-43.387"/><path d="m170.66 211.93 62.652 31.611"/><path d="m170.66 211.93-23.316-35.057"/><path d="m170.66 211.93 45.286 6.0916"/><path d="m170.66 211.93-66.098-0.90621"/><path d="m170.66 211.93 24.772 56.837"/><path d="m170.66 211.93-2.2181-38.356"/><path d="m170.66 211.93 38.621-12.53"/><path d="m170.66 211.93-51.786-10.975"/><path d="m170.66 211.93 29.669 40.989"/><path d="m170.66 211.93-34.878 4.2097"/><path d="m170.66 211.93 10.378 30.591"/><path d="m170.66 211.93-52.545 28.846"/><path d="m170.66 211.93-9.6203 55.966"/><path d="m176.17 136.93 66.813 42.039"/><path d="m176.17 136.93-60.455 31.617"/><path d="m176.17 136.93 66.293-23.836"/><path d="m176.17 136.93-28.827 39.948"/><path d="m176.17 136.93 47.145 0.4723"/><path d="m176.17 136.93-65.112-10.36"/><path d="m176.17 136.93 32.186-53.401"/><path d="m176.17 136.93-7.729 36.648"/><path d="m176.17 136.93 36.386 17.128"/><path d="m176.17 136.93-50.979-4.4517"/><path d="m176.17 136.93 35.079-37.501"/><path d="m176.17 136.93-34.215 4.9122"/><path d="m176.17 136.93 20.657-28.211"/><path d="m176.17 136.93-45.659-36.636"/><path d="m176.17 136.93-1.7162-56.374"/><path d="m242.99 178.97-0.51969-65.875"/><path d="m242.99 178.97-9.6724 64.576"/><path d="m242.99 178.97-19.668-41.567"/><path d="m242.99 178.97-27.038 39.057"/><path d="m242.99 178.97 41.699-47.31"/><path d="m242.99 178.97 35.025 51.669"/><path d="m242.99 178.97-30.427-24.911"/><path d="m242.99 178.97-33.703 20.435"/><path d="m242.99 178.97 25.201-44.17"/><path d="m242.99 178.97 19.882 46.114"/><path d="m242.99 178.97 10.993-29.583"/><path d="m242.99 178.97 16.259 27.879"/><path d="m242.99 178.97 56.802-19.12"/><path d="m242.99 178.97 53.645 25.389"/><path d="m115.72 168.54-11.154 42.481"/><path d="m115.72 168.54-4.6576-41.977"/><path d="m115.72 168.54 3.1581 32.412"/><path d="m115.72 168.54 9.4752-36.069"/><path d="m115.72 168.54-46.509 23.881"/><path d="m115.72 168.54-42.357-30.174"/><path d="m233.32 243.54-37.879 25.226"/><path d="m233.32 243.54 44.697-12.907"/><path d="m233.32 243.54-32.983 9.3778"/><path d="m233.32 243.54 29.554-18.462"/><path d="m233.32 243.54-6.42 49.203"/><path d="m233.32 243.54 46.367 24.54"/><path d="m147.35 176.88-11.562 39.266"/><path d="m147.35 176.88-5.3886-35.035"/><path d="m215.95 218.02-34.908 24.5"/><path d="m215.95 218.02 43.51-11.226"/><path d="m104.57 211.03 13.553 29.752"/><path d="m104.57 211.03-35.355-18.6"/><path d="m195.44 268.77-34.393-0.87154"/><path d="m195.44 268.77 31.459 23.976"/><path d="m242.47 113.09-34.108-29.565"/><path d="m242.47 113.09 42.219 18.565"/><path d="m242.47 113.09-31.215-13.665"/><path d="m242.47 113.09 25.721 21.705"/><path d="m242.47 113.09 0.37229-49.437"/><path d="m242.47 113.09 49.253-18.562"/><path d="m223.32 137.4-26.946-27.96"/><path d="m223.32 137.4 30.457 12.03"/><path d="m111.06 126.57 19.453-26.276"/><path d="m111.06 126.57-37.7 11.803"/><path d="m208.36 83.526-33.902-2.9726"/><path d="m208.36 83.526 34.48-19.872"/><path d="m284.69 131.66 15.102 28.191"/><path d="m284.69 131.66 7.0339-37.127"/><path d="m278.01 230.64 18.62-26.28"/><path d="m278.01 230.64 1.6701 37.448"/></g><ellipse transform="matrix(.052682 -.99861 .97546 -.22016 0 0)" cx="-269.11" cy="280.49" rx="3.3183" ry="3.4475" fill="#011a25" stroke="#fff" stroke-linecap="square" stroke-linejoin="bevel" stroke-width=".61094" style="paint-order:markers fill stroke"/></g><g><circle cx="103.31" cy="83.006" r=".86965" fill="#011a25" stroke="#fff" stroke-linecap="square" stroke-linejoin="bevel" stroke-width=".15708" style="paint-order:markers fill stroke"/><circle cx="89.291" cy="98.448" r=".86965" fill="#011a25" stroke="#fff" stroke-linecap="square" stroke-linejoin="bevel" stroke-width=".15708" style="paint-order:markers fill stroke"/><path transform="matrix(-.3357 -.3779 -.55766 .47786 242.49 198.86)" d="m444.03 76.803 4.9437-28.023 23.15 18.076z" clip-path="url(#clipPath13706)" fill="#d5236d" fill-opacity=".54902" stroke="#d45087" stroke-miterlimit="10" stroke-opacity=".55" stroke-width=".35278"/></g><g fill-opacity=".55" stroke-miterlimit="10" stroke-opacity=".55" stroke-width=".35278"><path transform="matrix(-.3357 -.3779 -.55766 .47786 242.49 198.86)" d="m444.03 76.803 4.9437-28.023-26.497 9.9915z" clip-path="url(#clipPath13676)" fill="#ff6a29" stroke="#ff7c43"/><path transform="matrix(-.3357 -.3779 -.55766 .47786 242.49 198.86)" d="m444.03 76.803 4.9437-28.023-14.301 12.475z" clip-path="url(#clipPath13736)" fill="#a05195" stroke="#a05195"/><path transform="matrix(-.3357 -.3779 -.55766 .47786 242.49 198.86)" d="m444.03 76.803 28.093-9.9474-5.3941 26.524z" clip-path="url(#clipPath13800)" fill="#ff6a29" stroke="#ff7c43"/><path transform="matrix(-.3357 -.3779 -.55766 .47786 242.49 198.86)" d="m444.03 76.803 28.093-9.9474-10.066 15.505z" clip-path="url(#clipPath13312)" fill="#a05195" stroke="#a05195"/></g><g stroke-miterlimit="10" stroke-opacity=".55" stroke-width=".35278"><path transform="matrix(-.3357 -.3779 -.55766 .47786 242.49 198.86)" d="m444.03 76.803-21.553-18.032-7.9195 19.918z" clip-path="url(#clipPath13342)" fill="#a03091" fill-opacity=".54902" stroke="#a05195"/><path transform="matrix(-.3357 -.3779 -.55766 .47786 242.49 198.86)" d="m444.03 76.803 22.699 16.576-19.091 11.165z" clip-path="url(#clipPath13371)" fill="#a03091" fill-opacity=".54902" stroke="#a05195"/><path transform="matrix(-.3357 -.3779 -.55766 .47786 242.49 198.86)" d="m448.97 48.78 23.15 18.076 4.1206-26.679z" clip-path="url(#clipPath13400)" fill="#ff6a29" fill-opacity=".55" stroke="#ff7c43"/><path transform="matrix(-.3357 -.3779 -.55766 .47786 242.49 198.86)" d="m448.97 48.78 23.15 18.076-4.3113-17.9z" clip-path="url(#clipPath13430)" fill="#a05195" fill-opacity=".55" stroke="#a05195"/></g><g fill="#a03091" fill-opacity=".54902" stroke="#a05195" stroke-miterlimit="10" stroke-opacity=".55" stroke-width=".35278"><path transform="matrix(-.3357 -.3779 -.55766 .47786 242.49 198.86)" d="m448.97 48.78-26.497 9.9915-0.53262-21.19z" clip-path="url(#clipPath13830)"/><path transform="matrix(-.3357 -.3779 -.55766 .47786 242.49 198.86)" d="m448.97 48.78 27.27-8.6031-14.205-16.451z" clip-path="url(#clipPath13860)"/><path transform="matrix(-.3357 -.3779 -.55766 .47786 242.49 198.86)" d="m472.12 66.856-5.3941 26.524 22.087-3.5276z" clip-path="url(#clipPath13890)"/><path transform="matrix(-.3357 -.3779 -.55766 .47786 242.49 198.86)" d="m472.12 66.856 4.1206-26.679 19.656 10.112z" clip-path="url(#clipPath13920)"/></g><g fill="none" stroke="#011a25" stroke-linejoin="round" stroke-miterlimit="10" stroke-width=".42333"><path transform="matrix(-.3357 -.3779 -.55766 .47786 242.49 198.86)" d="m444.03 76.803 4.9437-28.023" clip-path="url(#clipPath13647)"/><path transform="matrix(-.3357 -.3779 -.55766 .47786 242.49 198.86)" d="m444.03 76.803 28.093-9.9474" clip-path="url(#clipPath13641)"/><path transform="matrix(-.3357 -.3779 -.55766 .47786 242.49 198.86)" d="m444.03 76.803-21.553-18.032" clip-path="url(#clipPath13635)"/><path transform="matrix(-.3357 -.3779 -.55766 .47786 242.49 198.86)" d="m444.03 76.803 22.699 16.576" clip-path="url(#clipPath13629)"/><path transform="matrix(-.3357 -.3779 -.55766 .47786 242.49 198.86)" d="m444.03 76.803-9.3573-15.548" clip-path="url(#clipPath13623)"/><path transform="matrix(-.3357 -.3779 -.55766 .47786 242.49 198.86)" d="m444.03 76.803 18.028 5.5577" clip-path="url(#clipPath13617)"/><path transform="matrix(-.3357 -.3779 -.55766 .47786 242.49 198.86)" d="m444.03 76.803-29.473 1.8863" clip-path="url(#clipPath13611)"/><path transform="matrix(-.3357 -.3779 -.55766 .47786 242.49 198.86)" d="m444.03 76.803 3.6083 27.741" clip-path="url(#clipPath13605)"/><path transform="matrix(-.3357 -.3779 -.55766 .47786 242.49 198.86)" d="m448.97 48.78 23.15 18.076" clip-path="url(#clipPath13599)"/><path transform="matrix(-.3357 -.3779 -.55766 .47786 242.49 198.86)" d="m448.97 48.78-26.497 9.9915" clip-path="url(#clipPath13593)"/><path transform="matrix(-.3357 -.3779 -.55766 .47786 242.49 198.86)" d="m448.97 48.78 27.27-8.6031" clip-path="url(#clipPath13587)"/><path transform="matrix(-.3357 -.3779 -.55766 .47786 242.49 198.86)" d="m448.97 48.78-14.301 12.475" clip-path="url(#clipPath13581)"/><path transform="matrix(-.3357 -.3779 -.55766 .47786 242.49 198.86)" d="m448.97 48.78 18.838 0.17512" clip-path="url(#clipPath13575)"/><path transform="matrix(-.3357 -.3779 -.55766 .47786 242.49 198.86)" d="m448.97 48.78-27.03-11.198" clip-path="url(#clipPath13569)"/><path transform="matrix(-.3357 -.3779 -.55766 .47786 242.49 198.86)" d="m448.97 48.78 13.065-25.054" clip-path="url(#clipPath13563)"/><path transform="matrix(-.3357 -.3779 -.55766 .47786 242.49 198.86)" d="m472.12 66.856 4.1206-26.679" clip-path="url(#clipPath13557)"/><path transform="matrix(-.3357 -.3779 -.55766 .47786 242.49 198.86)" d="m472.12 66.856-5.3941 26.524" clip-path="url(#clipPath13551)"/><path transform="matrix(-.3357 -.3779 -.55766 .47786 242.49 198.86)" d="m472.12 66.856-4.3113-17.9" clip-path="url(#clipPath13545)"/><path transform="matrix(-.3357 -.3779 -.55766 .47786 242.49 198.86)" d="m472.12 66.856-10.066 15.505" clip-path="url(#clipPath13539)"/><path transform="matrix(-.3357 -.3779 -.55766 .47786 242.49 198.86)" d="m472.12 66.856 23.777-16.567" clip-path="url(#clipPath13533)"/><path transform="matrix(-.3357 -.3779 -.55766 .47786 242.49 198.86)" d="m472.12 66.856 16.693 22.996" clip-path="url(#clipPath13527)"/><path transform="matrix(-.3357 -.3779 -.55766 .47786 242.49 198.86)" d="m422.47 58.771-7.9195 19.918" clip-path="url(#clipPath13521)"/><path transform="matrix(-.3357 -.3779 -.55766 .47786 242.49 198.86)" d="m422.47 58.771-0.53262-21.19" clip-path="url(#clipPath13515)"/><path transform="matrix(-.3357 -.3779 -.55766 .47786 242.49 198.86)" d="m466.72 93.379-19.091 11.165" clip-path="url(#clipPath13509)"/><path transform="matrix(-.3357 -.3779 -.55766 .47786 242.49 198.86)" d="m466.72 93.379 22.087-3.5276" clip-path="url(#clipPath13503)"/><path transform="matrix(-.3357 -.3779 -.55766 .47786 242.49 198.86)" d="m476.24 40.177-14.205-16.451" clip-path="url(#clipPath13497)"/><path transform="matrix(-.3357 -.3779 -.55766 .47786 242.49 198.86)" d="m476.24 40.177 19.656 10.112" clip-path="url(#clipPath13490)"/></g><g transform="matrix(-.11843 -.13331 .19673 -.16858 40.694 112.12)"/><g fill="#011a25" stroke="#fff" stroke-linecap="square" stroke-linejoin="bevel" stroke-width=".15708"><circle cx="50.718" cy="67.733" r=".86965" style="paint-order:markers fill stroke"/><circle cx="33.949" cy="79.759" r=".86965" style="paint-order:markers fill stroke"/><circle cx="33.785" cy="67.079" r=".86965" style="paint-order:markers fill stroke"/><circle cx="28.222" cy="57.181" r=".86965" style="paint-order:markers fill stroke"/><circle cx="46.792" cy="52.6" r=".86965" style="paint-order:markers fill stroke"/><circle cx="41.474" cy="63.643" r=".86965" style="paint-order:markers fill stroke"/><circle cx="64.625" cy="52.763" r=".86965" style="paint-order:markers fill stroke"/><circle cx="67.897" cy="67.406" r=".86965" style="paint-order:markers fill stroke"/><circle cx="79.84" cy="57.508" r=".86965" style="paint-order:markers fill stroke"/><circle cx="74.196" cy="35.585" r=".86965" style="paint-order:markers fill stroke"/><circle cx="60.126" cy="38.121" r=".86965" style="paint-order:markers fill stroke"/><circle cx="48.101" cy="35.585" r=".86965" style="paint-order:markers fill stroke"/></g><g transform="matrix(-.14774 .058507 -.017761 -.1293 56.088 51.581)" clip-path="url(#clipPath5531)" fill="#d5236d" fill-opacity=".54902"><path d="m181.43 120.49 6.8458 104.14-104.79-46.897z" fill="#d5236d" fill-opacity=".54902" stroke="#d45087" stroke-miterlimit="10" stroke-opacity=".55"/></g><g fill="#ff6b29" fill-opacity=".54902"><g transform="matrix(-.14774 .058507 -.017761 -.1293 56.088 51.581)" clip-path="url(#clipPath5541)"><path d="m181.43 120.49 6.8458 104.14 111.51-57.8z" fill="#ff6b29" fill-opacity=".54902" stroke="#ff7c43" stroke-miterlimit="10" stroke-opacity=".55"/></g><g transform="matrix(-.14774 .058507 -.017761 -.1293 56.088 51.581)" clip-path="url(#clipPath5551)"><path d="m181.43 120.49-97.944 57.239-14.277-114.08z" fill="#ff6b29" fill-opacity=".54902" stroke="#ff7c43" stroke-miterlimit="10" stroke-opacity=".55"/></g><g transform="matrix(-.14774 .058507 -.017761 -.1293 56.088 51.581)" clip-path="url(#clipPath5561)"><path d="m188.28 224.63-104.79-46.897 0.64105 115.01z" fill="#ff6b29" fill-opacity=".54902" stroke="#ff7c43" stroke-miterlimit="10" stroke-opacity=".55"/></g></g><g transform="matrix(-.14774 .058507 -.017761 -.1293 56.088 51.581)" clip-path="url(#clipPath5571)" fill="none" stroke="#011a25" stroke-linejoin="round" stroke-miterlimit="10" stroke-width="1.873"><path d="m181.43 120.49 6.8458 104.14"/><path d="m181.43 120.49-97.944 57.239"/><path d="m181.43 120.49 118.36 46.337"/><path d="m181.43 120.49-112.22-56.838"/><path d="m188.28 224.63-104.79-46.897"/><path d="m188.28 224.63 111.51-57.8"/><path d="m188.28 224.63-104.15 68.116"/><path d="m83.488 177.73 0.64105 115.01"/><path d="m83.488 177.73-14.277-114.08"/></g><g fill="#011a25" stroke="#fff" stroke-linecap="square" stroke-linejoin="bevel" stroke-width=".15708"><circle cx="24.341" cy="33.52" r=".86965" style="paint-order:markers fill stroke"/><circle cx="27.127" cy="46.633" r=".86965" style="paint-order:markers fill stroke"/><circle cx="40.568" cy="33.602" r=".86965" style="paint-order:markers fill stroke"/><circle cx="44.666" cy="47.288" r=".86965" style="paint-order:markers fill stroke"/><circle cx="38.355" cy="18.686" r=".86965" style="paint-order:markers fill stroke"/><circle cx="8.9332" cy="47.452" r=".86965" style="paint-order:markers fill stroke"/></g><path d="m11.644 33.281-2.8609-13.064 16.314-0.06708z" clip-path="url(#clipPath13766)" fill="#d5236d" fill-opacity=".54902" stroke="#d45087" stroke-miterlimit="10" stroke-opacity=".55" stroke-width=".14192"/><g fill="none" stroke="#011a25" stroke-linejoin="round" stroke-miterlimit="10" stroke-width=".27"><path d="m11.644 33.281-2.8609-13.064"/><path d="m11.644 33.281 13.453-13.132"/><path d="m8.7832 20.216 16.314-0.06708"/></g><g><g transform="matrix(.59619 0 0 .59619 18.902 16.861)"><path id="id-55a5af3b-1dc2-4cf7-b94a-134c131f17bc" d="m2.9375-6.375c0-0.25 0-0.26562-0.23438-0.26562-0.625 0.64062-1.5 0.64062-1.8125 0.64062v0.3125c0.20312 0 0.78125 0 1.2969-0.26562v5.1719c0 0.35938-0.03125 0.46875-0.92188 0.46875h-0.3125v0.3125c0.34375-0.03125 1.2031-0.03125 1.6094-0.03125 0.39062 0 1.2656 0 1.6094 0.03125v-0.3125h-0.3125c-0.90625 0-0.92188-0.10938-0.92188-0.46875z"/>
      </g><g transform="matrix(.59619 0 0 .59619 40.743 22.945)"><path d="m1.2656-0.76562 1.0625-1.0312c1.5469-1.375 2.1406-1.9062 2.1406-2.9062 0-1.1406-0.89062-1.9375-2.1094-1.9375-1.125 0-1.8594 0.92188-1.8594 1.8125 0 0.54688 0.5 0.54688 0.53125 0.54688 0.17188 0 0.51562-0.10938 0.51562-0.53125 0-0.25-0.1875-0.51562-0.53125-0.51562-0.078125 0-0.09375 0-0.125 0.015625 0.21875-0.65625 0.76562-1.0156 1.3438-1.0156 0.90625 0 1.3281 0.8125 1.3281 1.625 0 0.79688-0.48438 1.5781-1.0469 2.2031l-1.9062 2.125c-0.10938 0.10938-0.10938 0.14062-0.10938 0.375h3.7031l0.26562-1.7344h-0.23438c-0.0625 0.29688-0.125 0.73438-0.23438 0.89062-0.0625 0.078125-0.71875 0.078125-0.9375 0.078125z"/>
      </g><g transform="matrix(.59619 0 0 .59619 59.287 32.501)"><path d="m2.8906-3.5156c0.8125-0.26562 1.3906-0.95312 1.3906-1.75 0-0.8125-0.875-1.375-1.8281-1.375-1 0-1.7656 0.59375-1.7656 1.3594 0 0.32812 0.21875 0.51562 0.51562 0.51562s0.5-0.21875 0.5-0.51562c0-0.48438-0.46875-0.48438-0.60938-0.48438 0.29688-0.5 0.95312-0.625 1.3125-0.625 0.42188 0 0.96875 0.21875 0.96875 1.1094 0 0.125-0.03125 0.70312-0.28125 1.1406-0.29688 0.48438-0.64062 0.51562-0.89062 0.51562-0.078125 0.015625-0.3125 0.03125-0.39062 0.03125-0.078125 0.015625-0.14062 0.03125-0.14062 0.125 0 0.10938 0.0625 0.10938 0.23438 0.10938h0.4375c0.8125 0 1.1875 0.67188 1.1875 1.6562 0 1.3594-0.6875 1.6406-1.125 1.6406s-1.1875-0.17188-1.5312-0.75c0.34375 0.046875 0.65625-0.17188 0.65625-0.54688 0-0.35938-0.26562-0.5625-0.54688-0.5625-0.25 0-0.5625 0.14062-0.5625 0.57812 0 0.90625 0.92188 1.5625 2.0156 1.5625 1.2188 0 2.125-0.90625 2.125-1.9219 0-0.8125-0.64062-1.5938-1.6719-1.8125z"/>
      </g><g transform="matrix(.59619 0 0 .59619 95.238 48.003)"><path d="m2.9375-1.6406v0.85938c0 0.35938-0.03125 0.46875-0.76562 0.46875h-0.20312v0.3125c0.40625-0.03125 0.92188-0.03125 1.3438-0.03125s0.9375 0 1.3594 0.03125v-0.3125h-0.21875c-0.73438 0-0.75-0.10938-0.75-0.46875v-0.85938h0.98438v-0.3125h-0.98438v-4.5312c0-0.20312 0-0.26562-0.17188-0.26562-0.078125 0-0.10938 0-0.1875 0.125l-3.0625 4.6719v0.3125zm0.046875-0.3125h-2.4219l2.4219-3.7188z"/>
      </g></g><g fill="#011a25" stroke="#fff" stroke-linecap="square" stroke-linejoin="bevel" stroke-width=".15708"><circle cx="53.328" cy="93.132" r=".86965" style="paint-order:markers fill stroke"/><circle cx="65.499" cy="94.494" r=".86965" style="paint-order:markers fill stroke"/><circle cx="66.317" cy="106.24" r=".86965" style="paint-order:markers fill stroke"/><circle cx="72.116" cy="110.55" r=".86965" style="paint-order:markers fill stroke"/><circle cx="68.621" cy="102.15" r=".86965" style="paint-order:markers fill stroke"/><circle cx="82.227" cy="96.278" r=".86965" style="paint-order:markers fill stroke"/><circle cx="73.379" cy="89.736" r=".86965" style="paint-order:markers fill stroke"/><circle cx="68.993" cy="80.888" r=".86965" style="paint-order:markers fill stroke"/><circle cx="64.978" cy="86.167" r=".86965" style="paint-order:markers fill stroke"/><circle cx="61.163" cy="84.926" r=".86965" style="paint-order:markers fill stroke"/><circle cx="63.46" cy="76.047" r=".86965" style="paint-order:markers fill stroke"/><circle cx="56.248" cy="106.73" r=".86965" style="paint-order:markers fill stroke"/></g><path d="m58.109 115.71c-4.9994-33.434-50.938-85.453-50.938-85.453" fill="none" marker-start="url(#marker8097)" stroke="#c0b085" stroke-dasharray="0.4, 0.8" stroke-linecap="round" stroke-linejoin="round" stroke-opacity=".78049" stroke-width=".4"/><g fill="#011a25" stroke="#fff" stroke-linecap="square" stroke-linejoin="bevel" stroke-width=".15708"><circle cx="77.668" cy="77.873" r=".86965" style="paint-order:markers fill stroke"/><circle cx="97.034" cy="78.488" r=".86965" style="paint-order:markers fill stroke"/><circle cx="78.385" cy="87.607" r=".86965" style="paint-order:markers fill stroke"/><circle cx="87.71" cy="76.336" r=".86965" style="paint-order:markers fill stroke"/><circle cx="90.784" cy="87.915" r=".86965" style="paint-order:markers fill stroke"/><circle cx="88.325" cy="71.315" r=".86965" style="paint-order:markers fill stroke"/><circle cx="94.165" cy="90.681" r=".86965" style="paint-order:markers fill stroke"/><circle cx="78.693" cy="68.446" r=".86965" style="paint-order:markers fill stroke"/><circle cx="97.956" cy="69.369" r=".86965" style="paint-order:markers fill stroke"/><circle cx="92.321" cy="102.05" r=".86965" style="paint-order:markers fill stroke"/><circle cx="92.218" cy="106.24" r=".86965" style="paint-order:markers fill stroke"/><circle cx="83.714" cy="110.76" r=".86965" style="paint-order:markers fill stroke"/><circle cx="101.54" cy="107.79" r=".86965" style="paint-order:markers fill stroke"/><circle cx="99.596" cy="95.292" r=".86965" style="paint-order:markers fill stroke"/><circle cx="112.71" cy="94.575" r=".86965" style="paint-order:markers fill stroke"/><circle cx="109.43" cy="85.763" r=".86965" style="paint-order:markers fill stroke"/><circle cx="105.03" cy="86.788" r=".86965" style="paint-order:markers fill stroke"/></g><path d="m125.29 90.867c-41.245 0.93739-112.58-71.958-112.58-71.958" fill="none" marker-start="url(#marker8097)" stroke="#c0b085" stroke-dasharray="0.4, 0.8" stroke-linecap="round" stroke-linejoin="round" stroke-opacity=".78049" stroke-width=".4"/><g fill="#011a25" stroke="#fff" stroke-linecap="square" stroke-linejoin="bevel" stroke-width=".15708"><circle cx="112.51" cy="76.848" r=".86965" style="paint-order:markers fill stroke"/><circle cx="109.74" cy="65.68" r=".86965" style="paint-order:markers fill stroke"/><circle cx="101.24" cy="64.758" r=".86965" style="paint-order:markers fill stroke"/><circle cx="103.9" cy="60.864" r=".86965" style="paint-order:markers fill stroke"/><circle cx="102.87" cy="51.232" r=".86965" style="paint-order:markers fill stroke"/></g><path d="m20.575 19.453c25.982 21.627 72.6 30.803 95.097 33.303" fill="none" marker-end="url(#TriangleStart)" stroke="#c0b085" stroke-dasharray="0.4, 0.8" stroke-linecap="round" stroke-linejoin="round" stroke-opacity=".78049" stroke-width=".4"/><g fill="#011a25" stroke="#fff" stroke-linecap="square" stroke-linejoin="bevel" stroke-width=".15708"><circle cx="88.939" cy="51.027" r=".86965" style="paint-order:markers fill stroke"/><circle cx="81.869" cy="60.659" r=".86965" style="paint-order:markers fill stroke"/><circle cx="83.611" cy="63.938" r=".86965" style="paint-order:markers fill stroke"/><circle transform="scale(1,-1)" cx="92.526" cy="-62.708" r=".86965" style="paint-order:markers fill stroke"/><circle cx="73.365" cy="64.348" r=".86965" style="paint-order:markers fill stroke"/><circle cx="58.163" cy="45.59" r=".86965" style="paint-order:markers fill stroke"/><circle cx="62.456" cy="63.785" r=".86965" style="paint-order:markers fill stroke"/><circle cx="59.468" cy="79.545" r=".86965" style="paint-order:markers fill stroke"/><circle cx="11.72" cy="33.438" r=".86965" style="paint-order:markers fill stroke"/><circle cx="8.9332" cy="20.243" r=".86965" style="paint-order:markers fill stroke"/><circle cx="25.16" cy="20.243" r=".86965" style="paint-order:markers fill stroke"/></g></g><g transform="matrix(.35242 0 0 .37693 -130.34 526.75)"/></g></svg>
